<svg xmlns="http://www.w3.org/2000/svg" xmlns:xlink="http://www.w3.org/1999/xlink" width="1920" zoomAndPan="magnify" viewBox="0 0 1440 809.999993" height="1080" preserveAspectRatio="xMidYMid meet" version="1.0"><defs><g/><clipPath id="7c0aa60f5e"><path d="M 38.25 0 L 1401.75 0 C 1411.894531 0 1421.625 4.03125 1428.796875 11.203125 C 1435.96875 18.375 1440 28.105469 1440 38.25 L 1440 771.75 C 1440 781.894531 1435.96875 791.625 1428.796875 798.796875 C 1421.625 805.96875 1411.894531 810 1401.75 810 L 38.25 810 C 28.105469 810 18.375 805.96875 11.203125 798.796875 C 4.03125 791.625 0 781.894531 0 771.75 L 0 38.25 C 0 28.105469 4.03125 18.375 11.203125 11.203125 C 18.375 4.03125 28.105469 0 38.25 0 Z M 38.25 0 " clip-rule="nonzero"/></clipPath><clipPath id="c56393df89"><path d="M 81 217.507812 L 455.984375 217.507812 L 455.984375 592.492188 L 81 592.492188 Z M 81 217.507812 " clip-rule="nonzero"/></clipPath><clipPath id="cdb9bfd31f"><path d="M 268.492188 217.507812 C 164.941406 217.507812 81 301.449219 81 405 C 81 508.550781 164.941406 592.492188 268.492188 592.492188 C 372.042969 592.492188 455.984375 508.550781 455.984375 405 C 455.984375 301.449219 372.042969 217.507812 268.492188 217.507812 Z M 268.492188 217.507812 " clip-rule="nonzero"/></clipPath><clipPath id="945c2932a2"><path d="M 81 217.507812 L 455.976562 217.507812 L 455.976562 592.484375 L 81 592.484375 Z M 81 217.507812 " clip-rule="nonzero"/></clipPath><clipPath id="1538882dfc"><path d="M 268.488281 217.507812 C 164.941406 217.507812 81 301.449219 81 404.996094 C 81 508.542969 164.941406 592.484375 268.488281 592.484375 C 372.035156 592.484375 455.976562 508.542969 455.976562 404.996094 C 455.976562 301.449219 372.035156 217.507812 268.488281 217.507812 Z M 268.488281 217.507812 " clip-rule="nonzero"/></clipPath></defs><g clip-path="url(#7c0aa60f5e)"><path fill="#ffffff" d="M 0 0 L 1439.648438 0 L 1439.648438 810 L 0 810 Z M 0 0 " fill-opacity="1" fill-rule="nonzero"/><path stroke-linecap="butt" transform="matrix(0.75, 0, 0, 0.75, 0.0000126595, 0.00002)" fill="none" stroke-linejoin="miter" d="M 50.999986 -0.0000266667 L 1869.000077 -0.0000266667 C 1882.526119 -0.0000266667 1895.500078 5.374974 1905.062579 14.937474 C 1914.625079 24.499975 1920.00008 37.473934 1920.00008 50.999976 L 1920.00008 1029.000025 C 1920.00008 1042.526067 1914.625079 1055.500026 1905.062579 1065.062527 C 1895.500078 1074.625027 1882.526119 1080.000028 1869.000077 1080.000028 L 50.999986 1080.000028 C 37.473943 1080.000028 24.499984 1074.625027 14.937484 1065.062527 C 5.374983 1055.500026 -0.0000168794 1042.526067 -0.0000168794 1029.000025 L -0.0000168794 50.999976 C -0.0000168794 37.473934 5.374983 24.499975 14.937484 14.937474 C 24.499984 5.374974 37.473943 -0.0000266667 50.999986 -0.0000266667 Z M 50.999986 -0.0000266667 " stroke="#000000" stroke-width="40" stroke-opacity="1" stroke-miterlimit="4"/></g><g clip-path="url(#c56393df89)"><g clip-path="url(#cdb9bfd31f)"><path fill="#4f000b" d="M 81 217.507812 L 455.984375 217.507812 L 455.984375 592.492188 L 81 592.492188 Z M 81 217.507812 " fill-opacity="1" fill-rule="nonzero"/></g></g><g clip-path="url(#945c2932a2)"><g clip-path="url(#1538882dfc)"><path stroke-linecap="butt" transform="matrix(0.75, 0, 0, 0.75, 81.000002, 217.507274)" fill="none" stroke-linejoin="miter" d="M 249.984401 0.00071819 C 111.921885 0.00071819 -0.00000286296 111.922606 -0.00000286296 249.985122 C -0.00000286296 388.047638 111.921885 499.969525 249.984401 499.969525 C 388.046916 499.969525 499.968804 388.047638 499.968804 249.985122 C 499.968804 111.922606 388.046916 0.00071819 249.984401 0.00071819 Z M 249.984401 0.00071819 " stroke="#000000" stroke-width="44" stroke-opacity="1" stroke-miterlimit="4"/></g></g><g fill="#000000" fill-opacity="1"><g transform="translate(493.928833, 344.250003)"><g><path d="M 37.34375 2.625 C 32.34375 2.625 27.601562 1.984375 23.125 0.703125 C 18.644531 -0.578125 14.539062 -2.5 10.8125 -5.0625 C 10.113281 -5.644531 9.472656 -6.253906 8.890625 -6.890625 C 8.316406 -7.535156 7.851562 -8.265625 7.5 -9.078125 C 6.570312 -11.984375 5.929688 -15.554688 5.578125 -19.796875 C 5.234375 -24.046875 5.117188 -28.148438 5.234375 -32.109375 C 5.234375 -32.921875 5.550781 -33.5 6.1875 -33.84375 C 6.832031 -34.195312 7.617188 -34.375 8.546875 -34.375 C 9.484375 -34.375 10.210938 -34.226562 10.734375 -33.9375 C 11.253906 -33.644531 11.628906 -33.09375 11.859375 -32.28125 C 14.421875 -23.550781 18.144531 -16.742188 23.03125 -11.859375 C 27.914062 -6.972656 33.441406 -4.53125 39.609375 -4.53125 C 43.453125 -4.53125 46.707031 -5.398438 49.375 -7.140625 C 52.050781 -8.890625 54.085938 -11.160156 55.484375 -13.953125 C 56.878906 -16.742188 57.578125 -19.769531 57.578125 -23.03125 C 57.578125 -27.101562 56.847656 -30.476562 55.390625 -33.15625 C 53.941406 -35.832031 51.765625 -38.242188 48.859375 -40.390625 C 45.953125 -42.546875 42.285156 -44.847656 37.859375 -47.296875 C 33.097656 -50.085938 28.445312 -53.019531 23.90625 -56.09375 C 19.363281 -59.175781 15.640625 -62.84375 12.734375 -67.09375 C 9.828125 -71.34375 8.375 -76.609375 8.375 -82.890625 C 8.375 -89.398438 10.03125 -95.125 13.34375 -100.0625 C 16.664062 -105.007812 21.289062 -108.878906 27.21875 -111.671875 C 33.15625 -114.472656 40.019531 -115.875 47.8125 -115.875 C 52.113281 -115.875 56.125 -115.40625 59.84375 -114.46875 C 63.570312 -113.539062 66.539062 -112.613281 68.75 -111.6875 C 70.03125 -111.21875 70.988281 -110.632812 71.625 -109.9375 C 72.269531 -109.238281 72.765625 -108.132812 73.109375 -106.625 C 73.804688 -104.175781 74.414062 -101.265625 74.9375 -97.890625 C 75.46875 -94.515625 75.734375 -90.96875 75.734375 -87.25 C 75.734375 -85.851562 74.6875 -85.15625 72.59375 -85.15625 C 71.664062 -85.15625 70.734375 -85.382812 69.796875 -85.84375 C 68.867188 -86.3125 68.289062 -86.957031 68.0625 -87.78125 C 65.957031 -94.519531 63.070312 -99.632812 59.40625 -103.125 C 55.75 -106.613281 51.242188 -108.359375 45.890625 -108.359375 C 42.285156 -108.359375 39.203125 -107.75 36.640625 -106.53125 C 34.085938 -105.3125 32.050781 -103.453125 30.53125 -100.953125 C 29.019531 -98.453125 28.265625 -95.222656 28.265625 -91.265625 C 28.265625 -88.234375 29.28125 -85.4375 31.3125 -82.875 C 33.351562 -80.320312 36.207031 -77.820312 39.875 -75.375 C 43.539062 -72.9375 47.640625 -70.265625 52.171875 -67.359375 C 57.753906 -64.097656 62.4375 -60.8125 66.21875 -57.5 C 70 -54.1875 72.878906 -50.519531 74.859375 -46.5 C 76.835938 -42.488281 77.828125 -37.75 77.828125 -32.28125 C 77.828125 -24.601562 76.140625 -18.175781 72.765625 -13 C 69.390625 -7.820312 64.675781 -3.921875 58.625 -1.296875 C 52.582031 1.316406 45.488281 2.625 37.34375 2.625 Z M 37.34375 2.625 "/></g></g></g><g fill="#000000" fill-opacity="1"><g transform="translate(578.383044, 344.250003)"><g><path d="M 21.8125 2.4375 C 19.019531 2.4375 16.375 1.679688 13.875 0.171875 C 11.375 -1.335938 9.363281 -3.3125 7.84375 -5.75 C 6.332031 -8.195312 5.578125 -10.703125 5.578125 -13.265625 C 5.578125 -17.210938 6.738281 -20.4375 9.0625 -22.9375 C 11.394531 -25.445312 14.890625 -27.691406 19.546875 -29.671875 L 35.765625 -36.640625 C 38.097656 -37.578125 39.523438 -38.453125 40.046875 -39.265625 C 40.566406 -40.078125 40.828125 -41.585938 40.828125 -43.796875 L 41.1875 -54.09375 C 41.300781 -57.351562 40.628906 -59.96875 39.171875 -61.9375 C 37.722656 -63.914062 35.539062 -64.90625 32.625 -64.90625 C 31.113281 -64.90625 29.546875 -64.613281 27.921875 -64.03125 C 26.296875 -63.457031 25.015625 -62.703125 24.078125 -61.765625 C 23.617188 -61.304688 23.300781 -60.695312 23.125 -59.9375 C 22.945312 -59.1875 22.859375 -58.460938 22.859375 -57.765625 C 22.859375 -57.179688 22.882812 -56.453125 22.9375 -55.578125 C 23 -54.703125 23.03125 -53.914062 23.03125 -53.21875 C 23.03125 -52.519531 22.15625 -51.644531 20.40625 -50.59375 C 18.664062 -49.550781 16.691406 -48.625 14.484375 -47.8125 C 12.273438 -47 10.414062 -46.59375 8.90625 -46.59375 C 8.082031 -46.59375 7.4375 -46.882812 6.96875 -47.46875 C 6.507812 -48.050781 6.28125 -48.75 6.28125 -49.5625 C 6.28125 -51.414062 6.890625 -53.300781 8.109375 -55.21875 C 9.335938 -57.144531 11.285156 -59.210938 13.953125 -61.421875 C 16.867188 -63.867188 20.070312 -66.050781 23.5625 -67.96875 C 27.050781 -69.882812 30.453125 -71.425781 33.765625 -72.59375 C 37.078125 -73.757812 39.957031 -74.34375 42.40625 -74.34375 C 47.988281 -74.34375 52.46875 -72.507812 55.84375 -68.84375 C 59.21875 -65.175781 60.84375 -60.375 60.71875 -54.4375 L 59.859375 -17.09375 C 59.734375 -14.539062 60.222656 -12.390625 61.328125 -10.640625 C 62.441406 -8.898438 63.8125 -8.03125 65.4375 -8.03125 C 67.882812 -8.03125 69.863281 -8.726562 71.375 -10.125 C 71.832031 -10.582031 72.238281 -10.8125 72.59375 -10.8125 C 73.175781 -10.8125 73.671875 -10.609375 74.078125 -10.203125 C 74.484375 -9.796875 74.6875 -9.300781 74.6875 -8.71875 C 74.6875 -7.445312 73.753906 -5.878906 71.890625 -4.015625 C 69.796875 -1.921875 67.554688 -0.320312 65.171875 0.78125 C 62.785156 1.882812 60.429688 2.4375 58.109375 2.4375 C 51.941406 2.4375 46.9375 -0.757812 43.09375 -7.15625 L 42.578125 -7.15625 C 38.734375 -3.78125 35.210938 -1.335938 32.015625 0.171875 C 28.816406 1.679688 25.414062 2.4375 21.8125 2.4375 Z M 31.40625 -8.03125 C 33.039062 -8.03125 34.4375 -8.289062 35.59375 -8.8125 C 36.757812 -9.332031 37.75 -10.0625 38.5625 -11 C 39.03125 -11.570312 39.410156 -12.265625 39.703125 -13.078125 C 39.992188 -13.898438 40.195312 -15.066406 40.3125 -16.578125 L 40.65625 -27.75 C 40.769531 -28.90625 40.648438 -29.6875 40.296875 -30.09375 C 39.953125 -30.507812 39.550781 -30.71875 39.09375 -30.71875 C 38.851562 -30.71875 38.5 -30.6875 38.03125 -30.625 C 37.570312 -30.5625 37.050781 -30.359375 36.46875 -30.015625 C 32.164062 -28.265625 29.082031 -26.398438 27.21875 -24.421875 C 25.363281 -22.453125 24.4375 -19.894531 24.4375 -16.75 C 24.4375 -13.613281 25.191406 -11.375 26.703125 -10.03125 C 28.210938 -8.695312 29.78125 -8.03125 31.40625 -8.03125 Z M 31.40625 -8.03125 "/></g></g></g><g fill="#000000" fill-opacity="1"><g transform="translate(652.54222, 344.250003)"><g><path d="M 37 2.4375 C 30.945312 2.4375 25.476562 0.867188 20.59375 -2.265625 C 15.707031 -5.410156 11.835938 -9.742188 8.984375 -15.265625 C 6.140625 -20.796875 4.71875 -26.992188 4.71875 -33.859375 C 4.71875 -41.421875 6.460938 -48.253906 9.953125 -54.359375 C 13.441406 -60.460938 18.0625 -65.316406 23.8125 -68.921875 C 29.570312 -72.535156 36 -74.34375 43.09375 -74.34375 C 51.9375 -74.34375 59.382812 -71.550781 65.4375 -65.96875 C 66.601562 -64.914062 67.1875 -63.863281 67.1875 -62.8125 C 67.1875 -62 66.71875 -60.953125 65.78125 -59.671875 C 64.851562 -58.398438 63.75 -57.296875 62.46875 -56.359375 C 61.1875 -55.429688 60.082031 -54.96875 59.15625 -54.96875 C 58.226562 -54.96875 57.351562 -55.257812 56.53125 -55.84375 C 55.71875 -56.425781 54.90625 -57.066406 54.09375 -57.765625 C 51.1875 -60.085938 48.160156 -62.0625 45.015625 -63.6875 C 41.878906 -65.320312 39.207031 -66.140625 37 -66.140625 C 32.226562 -66.140625 28.503906 -64.046875 25.828125 -59.859375 C 23.148438 -55.671875 21.8125 -49.382812 21.8125 -41 C 21.8125 -35.300781 22.800781 -30.359375 24.78125 -26.171875 C 26.757812 -21.984375 29.550781 -18.722656 33.15625 -16.390625 C 36.757812 -14.066406 40.945312 -12.90625 45.71875 -12.90625 C 49.207031 -12.90625 52.203125 -13.457031 54.703125 -14.5625 C 57.203125 -15.675781 59.847656 -17.453125 62.640625 -19.890625 C 63.109375 -20.242188 63.546875 -20.5625 63.953125 -20.84375 C 64.359375 -21.132812 64.796875 -21.28125 65.265625 -21.28125 C 66.546875 -21.28125 67.1875 -20.351562 67.1875 -18.5 C 67.1875 -18.03125 67.066406 -17.359375 66.828125 -16.484375 C 66.597656 -15.617188 66.132812 -14.660156 65.4375 -13.609375 C 64.15625 -11.285156 62.085938 -8.84375 59.234375 -6.28125 C 56.390625 -3.71875 53.101562 -1.625 49.375 0 C 45.65625 1.625 41.53125 2.4375 37 2.4375 Z M 37 2.4375 "/></g></g></g><g fill="#000000" fill-opacity="1"><g transform="translate(724.084018, 344.250003)"><g><path d="M 7.671875 0.53125 C 6.742188 0.53125 5.929688 0.328125 5.234375 -0.078125 C 4.535156 -0.492188 4.1875 -1.050781 4.1875 -1.75 C 4.1875 -2.675781 4.5625 -3.367188 5.3125 -3.828125 C 6.070312 -4.296875 7.035156 -4.707031 8.203125 -5.0625 C 10.640625 -5.757812 12.351562 -6.601562 13.34375 -7.59375 C 14.332031 -8.582031 14.828125 -9.945312 14.828125 -11.6875 L 14.828125 -50.953125 C 14.828125 -53.628906 14.445312 -55.867188 13.6875 -57.671875 C 12.9375 -59.472656 11.34375 -60.664062 8.90625 -61.25 C 8.4375 -61.476562 7.96875 -61.796875 7.5 -62.203125 C 7.039062 -62.609375 6.8125 -63.222656 6.8125 -64.046875 C 6.8125 -65.554688 7.445312 -66.484375 8.71875 -66.828125 C 12.207031 -67.765625 15.988281 -69.015625 20.0625 -70.578125 C 24.132812 -72.148438 27.566406 -73.691406 30.359375 -75.203125 C 30.941406 -75.554688 31.582031 -75.90625 32.28125 -76.25 C 32.976562 -76.601562 33.503906 -76.78125 33.859375 -76.78125 C 34.785156 -76.78125 35.25 -76.195312 35.25 -75.03125 C 35.25 -74.570312 35.21875 -73.523438 35.15625 -71.890625 C 35.101562 -70.265625 35.046875 -68.488281 34.984375 -66.5625 C 34.929688 -64.644531 34.84375 -62.929688 34.71875 -61.421875 C 34.71875 -60.722656 34.894531 -60.375 35.25 -60.375 C 37.113281 -62.820312 39.207031 -65.09375 41.53125 -67.1875 C 43.851562 -69.28125 46.320312 -71.023438 48.9375 -72.421875 C 51.5625 -73.816406 54.210938 -74.515625 56.890625 -74.515625 C 60.265625 -74.515625 62.796875 -73.816406 64.484375 -72.421875 C 66.171875 -71.023438 67.015625 -69.28125 67.015625 -67.1875 C 67.015625 -65.550781 66.578125 -63.800781 65.703125 -61.9375 C 64.828125 -60.082031 63.71875 -58.484375 62.375 -57.140625 C 61.039062 -55.804688 59.5625 -55.140625 57.9375 -55.140625 C 57 -55.140625 56.003906 -55.34375 54.953125 -55.75 C 53.910156 -56.15625 52.867188 -56.648438 51.828125 -57.234375 C 50.773438 -57.703125 49.695312 -58.164062 48.59375 -58.625 C 47.488281 -59.09375 46.472656 -59.328125 45.546875 -59.328125 C 42.640625 -59.328125 40.019531 -58.25 37.6875 -56.09375 C 35.363281 -53.945312 34.203125 -49.734375 34.203125 -43.453125 L 34.203125 -12.734375 C 34.203125 -10.640625 34.957031 -9.039062 36.46875 -7.9375 C 37.976562 -6.832031 40.304688 -5.816406 43.453125 -4.890625 C 44.734375 -4.535156 45.691406 -4.15625 46.328125 -3.75 C 46.972656 -3.34375 47.296875 -2.675781 47.296875 -1.75 C 47.296875 -0.226562 46.25 0.53125 44.15625 0.53125 C 40.65625 0.53125 37.363281 0.382812 34.28125 0.09375 C 31.207031 -0.195312 28.15625 -0.34375 25.125 -0.34375 C 23.144531 -0.34375 21.253906 -0.285156 19.453125 -0.171875 C 17.648438 -0.0546875 15.816406 0.0859375 13.953125 0.265625 C 12.097656 0.441406 10.003906 0.53125 7.671875 0.53125 Z M 7.671875 0.53125 "/></g></g></g><g fill="#000000" fill-opacity="1"><g transform="translate(791.786987, 344.250003)"><g><path d="M 6.984375 0.53125 C 6.046875 0.53125 5.285156 0.328125 4.703125 -0.078125 C 4.128906 -0.492188 3.84375 -1.050781 3.84375 -1.75 C 3.84375 -2.675781 4.191406 -3.367188 4.890625 -3.828125 C 5.585938 -4.296875 6.398438 -4.648438 7.328125 -4.890625 C 10.117188 -5.585938 12.125 -6.34375 13.34375 -7.15625 C 14.570312 -7.96875 15.1875 -9.363281 15.1875 -11.34375 L 15.1875 -49.203125 C 15.1875 -52.929688 14.601562 -55.722656 13.4375 -57.578125 C 12.269531 -59.441406 10.289062 -60.609375 7.5 -61.078125 C 6.914062 -61.191406 6.445312 -61.507812 6.09375 -62.03125 C 5.75 -62.550781 5.578125 -63.160156 5.578125 -63.859375 C 5.578125 -65.492188 6.21875 -66.367188 7.5 -66.484375 C 13.082031 -67.648438 17.9375 -69.25 22.0625 -71.28125 C 26.195312 -73.320312 29.367188 -74.921875 31.578125 -76.078125 C 33.210938 -76.890625 34.257812 -77.296875 34.71875 -77.296875 C 36 -77.296875 36.640625 -76.71875 36.640625 -75.5625 C 36.523438 -73.925781 36.289062 -71.679688 35.9375 -68.828125 C 35.59375 -65.984375 35.273438 -62.960938 34.984375 -59.765625 C 34.691406 -56.566406 34.546875 -53.570312 34.546875 -50.78125 L 34.546875 -11.515625 C 34.546875 -9.773438 35.1875 -8.4375 36.46875 -7.5 C 37.75 -6.570312 39.785156 -5.703125 42.578125 -4.890625 C 43.503906 -4.535156 44.316406 -4.15625 45.015625 -3.75 C 45.710938 -3.34375 46.0625 -2.675781 46.0625 -1.75 C 46.0625 -0.351562 45.070312 0.34375 43.09375 0.34375 C 40.882812 0.34375 38.757812 0.285156 36.71875 0.171875 C 34.6875 0.0546875 32.710938 -0.0546875 30.796875 -0.171875 C 28.878906 -0.285156 26.875 -0.34375 24.78125 -0.34375 C 22.800781 -0.34375 20.878906 -0.285156 19.015625 -0.171875 C 17.160156 -0.0546875 15.269531 0.0859375 13.34375 0.265625 C 11.425781 0.441406 9.304688 0.53125 6.984375 0.53125 Z M 24.4375 -87.421875 C 21.0625 -87.421875 18.207031 -88.582031 15.875 -90.90625 C 13.550781 -93.238281 12.390625 -96.035156 12.390625 -99.296875 C 12.390625 -102.898438 13.550781 -105.863281 15.875 -108.1875 C 18.207031 -110.519531 21.0625 -111.6875 24.4375 -111.6875 C 27.925781 -111.6875 30.832031 -110.519531 33.15625 -108.1875 C 35.488281 -105.863281 36.65625 -102.898438 36.65625 -99.296875 C 36.65625 -96.035156 35.488281 -93.238281 33.15625 -90.90625 C 30.832031 -88.582031 27.925781 -87.421875 24.4375 -87.421875 Z M 24.4375 -87.421875 "/></g></g></g><g fill="#000000" fill-opacity="1"><g transform="translate(840.470289, 344.250003)"><g><path d="M 7.328125 0.53125 C 6.398438 0.53125 5.585938 0.328125 4.890625 -0.078125 C 4.191406 -0.492188 3.84375 -1.050781 3.84375 -1.75 C 3.84375 -2.675781 4.160156 -3.367188 4.796875 -3.828125 C 5.441406 -4.296875 6.285156 -4.648438 7.328125 -4.890625 C 10.347656 -5.816406 12.351562 -6.742188 13.34375 -7.671875 C 14.332031 -8.609375 14.828125 -10.125 14.828125 -12.21875 L 14.828125 -61.59375 C 13.671875 -61.59375 12.332031 -61.617188 10.8125 -61.671875 C 9.300781 -61.734375 7.617188 -61.828125 5.765625 -61.953125 C 5.179688 -62.066406 4.625 -62.644531 4.09375 -63.6875 C 3.570312 -64.738281 3.3125 -65.671875 3.3125 -66.484375 C 3.3125 -66.835938 3.484375 -67.128906 3.828125 -67.359375 C 4.179688 -67.585938 4.476562 -67.757812 4.71875 -67.875 C 6.457031 -68.695312 8.113281 -69.457031 9.6875 -70.15625 C 11.257812 -70.851562 12.972656 -71.609375 14.828125 -72.421875 C 15.066406 -82.078125 16.609375 -90.160156 19.453125 -96.671875 C 22.304688 -103.179688 25.882812 -108.382812 30.1875 -112.28125 C 34.488281 -116.1875 39.050781 -118.984375 43.875 -120.671875 C 48.707031 -122.359375 53.21875 -123.203125 57.40625 -123.203125 C 64.851562 -123.203125 70.289062 -122.125 73.71875 -119.96875 C 77.15625 -117.8125 78.875 -114.703125 78.875 -110.640625 C 78.875 -108.078125 78.289062 -106.066406 77.125 -104.609375 C 75.96875 -103.160156 74.398438 -102.4375 72.421875 -102.4375 C 71.367188 -102.4375 70.347656 -102.867188 69.359375 -103.734375 C 68.367188 -104.609375 67.296875 -105.742188 66.140625 -107.140625 C 64.273438 -109.003906 62.09375 -110.863281 59.59375 -112.71875 C 57.09375 -114.582031 53.921875 -115.515625 50.078125 -115.515625 C 45.191406 -115.515625 41.320312 -113.363281 38.46875 -109.0625 C 35.625 -104.757812 34.203125 -98.070312 34.203125 -89 L 34.203125 -74.15625 C 34.203125 -73.34375 34.429688 -72.789062 34.890625 -72.5 C 35.359375 -72.207031 35.941406 -72.0625 36.640625 -72.0625 L 57.0625 -72.0625 C 57.875 -72.0625 58.507812 -71.800781 58.96875 -71.28125 C 59.4375 -70.757812 59.671875 -70.148438 59.671875 -69.453125 C 59.671875 -68.523438 59.554688 -67.503906 59.328125 -66.390625 C 59.097656 -65.285156 58.75 -64.382812 58.28125 -63.6875 C 57.8125 -62.757812 57.347656 -62.296875 56.890625 -62.296875 L 39.4375 -62.296875 C 37.34375 -62.296875 35.945312 -62.03125 35.25 -61.5 C 34.550781 -60.976562 34.203125 -60.082031 34.203125 -58.8125 L 34.203125 -14.140625 C 34.203125 -11.347656 34.898438 -9.335938 36.296875 -8.109375 C 37.691406 -6.890625 40.773438 -5.875 45.546875 -5.0625 C 47.984375 -4.59375 49.203125 -3.546875 49.203125 -1.921875 C 49.203125 -1.222656 48.910156 -0.640625 48.328125 -0.171875 C 47.753906 0.296875 47 0.53125 46.0625 0.53125 C 42.570312 0.53125 38.90625 0.382812 35.0625 0.09375 C 31.226562 -0.195312 27.800781 -0.34375 24.78125 -0.34375 C 22.800781 -0.34375 20.9375 -0.285156 19.1875 -0.171875 C 17.445312 -0.0546875 15.613281 0.0859375 13.6875 0.265625 C 11.769531 0.441406 9.648438 0.53125 7.328125 0.53125 Z M 7.328125 0.53125 "/></g></g></g><g fill="#000000" fill-opacity="1"><g transform="translate(900.844553, 344.250003)"><g><path d="M 6.984375 0.53125 C 6.046875 0.53125 5.285156 0.328125 4.703125 -0.078125 C 4.128906 -0.492188 3.84375 -1.050781 3.84375 -1.75 C 3.84375 -2.675781 4.191406 -3.367188 4.890625 -3.828125 C 5.585938 -4.296875 6.398438 -4.648438 7.328125 -4.890625 C 10.117188 -5.585938 12.125 -6.34375 13.34375 -7.15625 C 14.570312 -7.96875 15.1875 -9.363281 15.1875 -11.34375 L 15.1875 -49.203125 C 15.1875 -52.929688 14.601562 -55.722656 13.4375 -57.578125 C 12.269531 -59.441406 10.289062 -60.609375 7.5 -61.078125 C 6.914062 -61.191406 6.445312 -61.507812 6.09375 -62.03125 C 5.75 -62.550781 5.578125 -63.160156 5.578125 -63.859375 C 5.578125 -65.492188 6.21875 -66.367188 7.5 -66.484375 C 13.082031 -67.648438 17.9375 -69.25 22.0625 -71.28125 C 26.195312 -73.320312 29.367188 -74.921875 31.578125 -76.078125 C 33.210938 -76.890625 34.257812 -77.296875 34.71875 -77.296875 C 36 -77.296875 36.640625 -76.71875 36.640625 -75.5625 C 36.523438 -73.925781 36.289062 -71.679688 35.9375 -68.828125 C 35.59375 -65.984375 35.273438 -62.960938 34.984375 -59.765625 C 34.691406 -56.566406 34.546875 -53.570312 34.546875 -50.78125 L 34.546875 -11.515625 C 34.546875 -9.773438 35.1875 -8.4375 36.46875 -7.5 C 37.75 -6.570312 39.785156 -5.703125 42.578125 -4.890625 C 43.503906 -4.535156 44.316406 -4.15625 45.015625 -3.75 C 45.710938 -3.34375 46.0625 -2.675781 46.0625 -1.75 C 46.0625 -0.351562 45.070312 0.34375 43.09375 0.34375 C 40.882812 0.34375 38.757812 0.285156 36.71875 0.171875 C 34.6875 0.0546875 32.710938 -0.0546875 30.796875 -0.171875 C 28.878906 -0.285156 26.875 -0.34375 24.78125 -0.34375 C 22.800781 -0.34375 20.878906 -0.285156 19.015625 -0.171875 C 17.160156 -0.0546875 15.269531 0.0859375 13.34375 0.265625 C 11.425781 0.441406 9.304688 0.53125 6.984375 0.53125 Z M 24.4375 -87.421875 C 21.0625 -87.421875 18.207031 -88.582031 15.875 -90.90625 C 13.550781 -93.238281 12.390625 -96.035156 12.390625 -99.296875 C 12.390625 -102.898438 13.550781 -105.863281 15.875 -108.1875 C 18.207031 -110.519531 21.0625 -111.6875 24.4375 -111.6875 C 27.925781 -111.6875 30.832031 -110.519531 33.15625 -108.1875 C 35.488281 -105.863281 36.65625 -102.898438 36.65625 -99.296875 C 36.65625 -96.035156 35.488281 -93.238281 33.15625 -90.90625 C 30.832031 -88.582031 27.925781 -87.421875 24.4375 -87.421875 Z M 24.4375 -87.421875 "/></g></g></g><g fill="#000000" fill-opacity="1"><g transform="translate(949.527855, 344.250003)"><g><path d="M 37 2.4375 C 30.945312 2.4375 25.476562 0.867188 20.59375 -2.265625 C 15.707031 -5.410156 11.835938 -9.742188 8.984375 -15.265625 C 6.140625 -20.796875 4.71875 -26.992188 4.71875 -33.859375 C 4.71875 -41.421875 6.460938 -48.253906 9.953125 -54.359375 C 13.441406 -60.460938 18.0625 -65.316406 23.8125 -68.921875 C 29.570312 -72.535156 36 -74.34375 43.09375 -74.34375 C 51.9375 -74.34375 59.382812 -71.550781 65.4375 -65.96875 C 66.601562 -64.914062 67.1875 -63.863281 67.1875 -62.8125 C 67.1875 -62 66.71875 -60.953125 65.78125 -59.671875 C 64.851562 -58.398438 63.75 -57.296875 62.46875 -56.359375 C 61.1875 -55.429688 60.082031 -54.96875 59.15625 -54.96875 C 58.226562 -54.96875 57.351562 -55.257812 56.53125 -55.84375 C 55.71875 -56.425781 54.90625 -57.066406 54.09375 -57.765625 C 51.1875 -60.085938 48.160156 -62.0625 45.015625 -63.6875 C 41.878906 -65.320312 39.207031 -66.140625 37 -66.140625 C 32.226562 -66.140625 28.503906 -64.046875 25.828125 -59.859375 C 23.148438 -55.671875 21.8125 -49.382812 21.8125 -41 C 21.8125 -35.300781 22.800781 -30.359375 24.78125 -26.171875 C 26.757812 -21.984375 29.550781 -18.722656 33.15625 -16.390625 C 36.757812 -14.066406 40.945312 -12.90625 45.71875 -12.90625 C 49.207031 -12.90625 52.203125 -13.457031 54.703125 -14.5625 C 57.203125 -15.675781 59.847656 -17.453125 62.640625 -19.890625 C 63.109375 -20.242188 63.546875 -20.5625 63.953125 -20.84375 C 64.359375 -21.132812 64.796875 -21.28125 65.265625 -21.28125 C 66.546875 -21.28125 67.1875 -20.351562 67.1875 -18.5 C 67.1875 -18.03125 67.066406 -17.359375 66.828125 -16.484375 C 66.597656 -15.617188 66.132812 -14.660156 65.4375 -13.609375 C 64.15625 -11.285156 62.085938 -8.84375 59.234375 -6.28125 C 56.390625 -3.71875 53.101562 -1.625 49.375 0 C 45.65625 1.625 41.53125 2.4375 37 2.4375 Z M 37 2.4375 "/></g></g></g><g fill="#000000" fill-opacity="1"><g transform="translate(1021.06963, 344.250003)"><g><path d="M 37 2.4375 C 30.59375 2.4375 24.945312 0.8125 20.0625 -2.4375 C 15.175781 -5.695312 11.335938 -10.207031 8.546875 -15.96875 C 5.753906 -21.726562 4.359375 -28.269531 4.359375 -35.59375 C 4.359375 -42.695312 6.015625 -49.179688 9.328125 -55.046875 C 12.648438 -60.921875 17.101562 -65.601562 22.6875 -69.09375 C 28.269531 -72.59375 34.375 -74.34375 41 -74.34375 C 45.894531 -74.34375 50.257812 -73.320312 54.09375 -71.28125 C 57.9375 -69.25 60.988281 -66.457031 63.25 -62.90625 C 65.519531 -59.351562 66.65625 -55.367188 66.65625 -50.953125 C 66.65625 -46.765625 64.851562 -44.671875 61.25 -44.671875 L 25.828125 -44.671875 C 24.203125 -44.671875 23.007812 -44.234375 22.25 -43.359375 C 21.488281 -42.484375 21.109375 -40.882812 21.109375 -38.5625 C 21.109375 -33.675781 22.1875 -29.253906 24.34375 -25.296875 C 26.5 -21.347656 29.378906 -18.207031 32.984375 -15.875 C 36.585938 -13.550781 40.71875 -12.390625 45.375 -12.390625 C 48.75 -12.390625 51.859375 -13.054688 54.703125 -14.390625 C 57.554688 -15.734375 60.257812 -17.566406 62.8125 -19.890625 C 63.28125 -20.242188 63.6875 -20.5625 64.03125 -20.84375 C 64.382812 -21.132812 64.738281 -21.28125 65.09375 -21.28125 C 66.25 -21.28125 66.828125 -20.582031 66.828125 -19.1875 C 66.828125 -17.5625 66.128906 -15.585938 64.734375 -13.265625 C 63.335938 -10.585938 61.332031 -8.023438 58.71875 -5.578125 C 56.101562 -3.140625 52.929688 -1.195312 49.203125 0.25 C 45.484375 1.707031 41.414062 2.4375 37 2.4375 Z M 25.828125 -51.484375 L 38.21875 -51.484375 C 41.238281 -51.484375 43.503906 -51.539062 45.015625 -51.65625 C 46.535156 -51.769531 47.992188 -52 49.390625 -52.34375 C 49.960938 -52.46875 50.363281 -52.960938 50.59375 -53.828125 C 50.832031 -54.703125 50.953125 -55.722656 50.953125 -56.890625 C 50.953125 -60.023438 49.757812 -62.671875 47.375 -64.828125 C 44.988281 -66.984375 42.050781 -68.0625 38.5625 -68.0625 C 36.125 -68.0625 33.738281 -67.332031 31.40625 -65.875 C 29.082031 -64.414062 27.164062 -62.582031 25.65625 -60.375 C 24.144531 -58.164062 23.445312 -55.898438 23.5625 -53.578125 C 23.5625 -52.179688 24.316406 -51.484375 25.828125 -51.484375 Z M 25.828125 -51.484375 "/></g></g></g><g fill="#000000" fill-opacity="1"><g transform="translate(1092.262451, 344.250003)"><g/></g></g><g fill="#000000" fill-opacity="1"><g transform="translate(1131.523191, 344.250003)"><g><path d="M 36.46875 2.796875 C 31.351562 2.796875 26.4375 1.78125 21.71875 -0.25 C 17.007812 -2.289062 13.203125 -5.171875 10.296875 -8.890625 C 7.390625 -12.617188 5.9375 -17.160156 5.9375 -22.515625 C 5.9375 -30.191406 8.4375 -37.195312 13.4375 -43.53125 C 18.4375 -49.875 25.242188 -55.023438 33.859375 -58.984375 L 37.515625 -60.71875 L 35.59375 -62.640625 C 34.4375 -63.921875 32.925781 -65.519531 31.0625 -67.4375 C 29.195312 -69.363281 27.535156 -71.691406 26.078125 -74.421875 C 24.628906 -77.160156 23.90625 -80.210938 23.90625 -83.578125 C 23.90625 -87.648438 25.210938 -91.253906 27.828125 -94.390625 C 30.453125 -97.535156 33.972656 -100.039062 38.390625 -101.90625 C 42.804688 -103.769531 47.75 -104.703125 53.21875 -104.703125 C 58.457031 -104.703125 62.96875 -103.738281 66.75 -101.8125 C 70.53125 -99.894531 73.46875 -97.453125 75.5625 -94.484375 C 77.65625 -91.523438 78.703125 -88.300781 78.703125 -84.8125 C 78.703125 -79.800781 77.039062 -75.785156 73.71875 -72.765625 C 70.40625 -69.742188 65.898438 -67.1875 60.203125 -65.09375 L 56.890625 -63.6875 L 59.859375 -60.546875 C 63.460938 -56.710938 67.007812 -53.050781 70.5 -49.5625 C 73.988281 -46.070312 77.300781 -42.40625 80.4375 -38.5625 L 83.234375 -35.25 L 85.859375 -37.859375 C 88.410156 -40.304688 90.703125 -42.953125 92.734375 -45.796875 C 94.773438 -48.648438 96.460938 -51.296875 97.796875 -53.734375 C 99.140625 -56.179688 99.8125 -57.929688 99.8125 -58.984375 C 99.8125 -60.378906 99.316406 -61.570312 98.328125 -62.5625 C 97.335938 -63.550781 96.144531 -64.21875 94.75 -64.5625 C 94.050781 -64.914062 93.378906 -65.296875 92.734375 -65.703125 C 92.097656 -66.109375 91.78125 -66.660156 91.78125 -67.359375 C 91.78125 -68.523438 92.300781 -69.191406 93.34375 -69.359375 C 94.394531 -69.535156 95.445312 -69.625 96.5 -69.625 C 97.539062 -69.625 98.960938 -69.535156 100.765625 -69.359375 C 102.578125 -69.191406 104.441406 -69.019531 106.359375 -68.84375 C 108.273438 -68.664062 110.050781 -68.578125 111.6875 -68.578125 C 113.894531 -68.578125 116.273438 -68.835938 118.828125 -69.359375 C 121.390625 -69.890625 123.863281 -70.441406 126.25 -71.015625 C 128.632812 -71.597656 130.703125 -71.890625 132.453125 -71.890625 C 133.023438 -71.890625 133.570312 -71.65625 134.09375 -71.1875 C 134.625 -70.726562 134.890625 -70.265625 134.890625 -69.796875 C 134.890625 -68.984375 134.363281 -68.140625 133.3125 -67.265625 C 132.269531 -66.398438 131.050781 -65.847656 129.65625 -65.609375 C 126.28125 -65.140625 123.367188 -64.117188 120.921875 -62.546875 C 118.484375 -60.984375 116.390625 -59.390625 114.640625 -57.765625 C 113.597656 -56.828125 112.113281 -55.398438 110.1875 -53.484375 C 108.269531 -51.566406 106.148438 -49.472656 103.828125 -47.203125 C 101.503906 -44.929688 99.207031 -42.691406 96.9375 -40.484375 C 94.664062 -38.273438 92.597656 -36.296875 90.734375 -34.546875 C 88.878906 -32.804688 87.484375 -31.53125 86.546875 -30.71875 L 89.6875 -26.703125 C 93.414062 -21.929688 96.992188 -17.972656 100.421875 -14.828125 C 103.859375 -11.691406 107.492188 -10.125 111.328125 -10.125 C 113.421875 -10.125 115.660156 -10.351562 118.046875 -10.8125 C 120.429688 -11.28125 122.726562 -11.976562 124.9375 -12.90625 C 125.519531 -13.144531 126.128906 -13.378906 126.765625 -13.609375 C 127.410156 -13.835938 128.023438 -13.953125 128.609375 -13.953125 C 129.535156 -13.953125 130.203125 -13.804688 130.609375 -13.515625 C 131.015625 -13.234375 131.21875 -12.566406 131.21875 -11.515625 C 131.21875 -10.234375 129.992188 -8.429688 127.546875 -6.109375 C 125.109375 -3.785156 121.882812 -1.75 117.875 0 C 113.863281 1.75 109.472656 2.625 104.703125 2.625 C 100.273438 2.625 96.460938 1.984375 93.265625 0.703125 C 90.066406 -0.578125 87.160156 -2.5 84.546875 -5.0625 C 81.929688 -7.625 79.109375 -10.820312 76.078125 -14.65625 L 73.296875 -18.328125 L 72.421875 -17.28125 C 68.929688 -13.320312 65.320312 -9.828125 61.59375 -6.796875 C 57.875 -3.773438 53.976562 -1.421875 49.90625 0.265625 C 45.832031 1.953125 41.351562 2.796875 36.46875 2.796875 Z M 46.59375 -12.046875 C 50.425781 -12.046875 54.144531 -12.710938 57.75 -14.046875 C 61.363281 -15.378906 64.800781 -17.789062 68.0625 -21.28125 L 69.453125 -22.6875 L 67.015625 -26 C 63.515625 -30.539062 59.757812 -35.078125 55.75 -39.609375 C 51.738281 -44.148438 47.460938 -48.863281 42.921875 -53.75 L 40.828125 -56.1875 L 37.515625 -54.4375 C 34.253906 -53.039062 31.78125 -51.179688 30.09375 -48.859375 C 28.414062 -46.535156 27.253906 -44.035156 26.609375 -41.359375 C 25.972656 -38.679688 25.65625 -35.945312 25.65625 -33.15625 C 25.65625 -26.875 27.570312 -21.785156 31.40625 -17.890625 C 35.25 -13.992188 40.3125 -12.046875 46.59375 -12.046875 Z M 53.75 -67.53125 L 55.671875 -68.921875 C 57.878906 -70.316406 59.503906 -72.523438 60.546875 -75.546875 C 61.597656 -78.578125 62.125 -81.601562 62.125 -84.625 C 62.238281 -88.351562 61.507812 -91.671875 59.9375 -94.578125 C 58.363281 -97.484375 55.832031 -98.9375 52.34375 -98.9375 C 49.789062 -98.9375 47.46875 -98.003906 45.375 -96.140625 C 43.28125 -94.285156 42.234375 -91.90625 42.234375 -89 C 42.234375 -86.207031 42.550781 -83.765625 43.1875 -81.671875 C 43.832031 -79.578125 44.789062 -77.710938 46.0625 -76.078125 C 47.34375 -74.453125 48.800781 -72.707031 50.4375 -70.84375 Z M 53.75 -67.53125 "/></g></g></g><g fill="#000000" fill-opacity="1"><g transform="translate(551.503052, 587.99999)"><g><path d="M 36.46875 0.703125 C 35.300781 0.703125 34.28125 0.492188 33.40625 0.078125 C 32.539062 -0.328125 32.109375 -0.878906 32.109375 -1.578125 C 32.109375 -2.503906 32.515625 -3.257812 33.328125 -3.84375 C 34.140625 -4.425781 35.300781 -4.832031 36.8125 -5.0625 C 41.238281 -5.988281 44.5 -7.296875 46.59375 -8.984375 C 48.6875 -10.671875 49.734375 -13.4375 49.734375 -17.28125 L 49.734375 -87.953125 C 49.734375 -92.722656 49.613281 -96.328125 49.375 -98.765625 C 49.144531 -101.210938 48.828125 -102.867188 48.421875 -103.734375 C 48.015625 -104.609375 47.40625 -105.101562 46.59375 -105.21875 C 45.425781 -105.6875 43.96875 -105.976562 42.21875 -106.09375 C 40.476562 -106.207031 38.796875 -106.265625 37.171875 -106.265625 L 31.765625 -106.265625 C 28.390625 -106.265625 25.128906 -105.476562 21.984375 -103.90625 C 18.847656 -102.34375 16.40625 -100.222656 14.65625 -97.546875 C 14.1875 -96.847656 13.457031 -95.859375 12.46875 -94.578125 C 11.488281 -93.296875 10.441406 -92.128906 9.328125 -91.078125 C 8.222656 -90.035156 7.09375 -89.515625 5.9375 -89.515625 C 5.125 -89.515625 4.570312 -89.804688 4.28125 -90.390625 C 3.988281 -90.972656 3.84375 -91.613281 3.84375 -92.3125 C 3.84375 -93.707031 4.191406 -95.101562 4.890625 -96.5 C 6.867188 -100.457031 8.347656 -103.914062 9.328125 -106.875 C 10.316406 -109.84375 10.988281 -113.363281 11.34375 -117.4375 C 11.570312 -119.1875 12.0625 -120.320312 12.8125 -120.84375 C 13.570312 -121.363281 14.363281 -121.625 15.1875 -121.625 C 15.882812 -121.625 16.722656 -120.894531 17.703125 -119.4375 C 18.691406 -117.988281 19.597656 -116.800781 20.421875 -115.875 C 21.460938 -114.820312 23.320312 -114.035156 26 -113.515625 C 28.675781 -112.992188 30.945312 -112.734375 32.8125 -112.734375 L 97.203125 -112.90625 C 100.453125 -112.90625 103.179688 -113.164062 105.390625 -113.6875 C 107.609375 -114.207031 109.359375 -114.757812 110.640625 -115.34375 C 112.378906 -116.394531 113.769531 -117.472656 114.8125 -118.578125 C 115.863281 -119.679688 117.085938 -120.234375 118.484375 -120.234375 C 119.066406 -120.234375 119.503906 -119.910156 119.796875 -119.265625 C 120.085938 -118.628906 120.234375 -117.847656 120.234375 -116.921875 C 120.234375 -116.335938 120.171875 -115.664062 120.046875 -114.90625 C 119.929688 -114.15625 119.816406 -113.488281 119.703125 -112.90625 C 119.242188 -110.695312 118.78125 -108.75 118.3125 -107.0625 C 117.84375 -105.375 117.460938 -103.800781 117.171875 -102.34375 C 116.878906 -100.882812 116.734375 -99.226562 116.734375 -97.375 L 116.734375 -94.40625 C 116.734375 -92.78125 116.5 -91.382812 116.03125 -90.21875 C 115.570312 -89.050781 114.820312 -88.46875 113.78125 -88.46875 C 112.84375 -88.46875 112.050781 -89.019531 111.40625 -90.125 C 110.769531 -91.226562 110.101562 -92.945312 109.40625 -95.28125 C 108.363281 -99 106.617188 -101.757812 104.171875 -103.5625 C 101.734375 -105.363281 97.894531 -106.265625 92.65625 -106.265625 L 80.796875 -106.265625 C 78.585938 -106.265625 76.867188 -105.859375 75.640625 -105.046875 C 74.421875 -104.234375 73.550781 -102.457031 73.03125 -99.71875 C 72.507812 -96.988281 72.25 -92.773438 72.25 -87.078125 L 72.25 -17.453125 C 72.25 -13.722656 73.296875 -11.015625 75.390625 -9.328125 C 77.484375 -7.648438 80.796875 -6.226562 85.328125 -5.0625 C 86.722656 -4.707031 87.828125 -4.296875 88.640625 -3.828125 C 89.460938 -3.367188 89.875 -2.675781 89.875 -1.75 C 89.875 -0.9375 89.492188 -0.351562 88.734375 0 C 87.972656 0.351562 87.015625 0.53125 85.859375 0.53125 C 83.066406 0.53125 80.273438 0.46875 77.484375 0.34375 C 74.691406 0.226562 71.925781 0.113281 69.1875 0 C 66.457031 -0.113281 63.8125 -0.171875 61.25 -0.171875 C 58.6875 -0.171875 56.035156 -0.113281 53.296875 0 C 50.566406 0.113281 47.773438 0.257812 44.921875 0.4375 C 42.078125 0.613281 39.257812 0.703125 36.46875 0.703125 Z M 36.46875 0.703125 "/></g></g></g><g fill="#000000" fill-opacity="1"><g transform="translate(671.379176, 587.99999)"><g><path d="M 7.671875 0.53125 C 6.742188 0.53125 5.929688 0.328125 5.234375 -0.078125 C 4.535156 -0.492188 4.1875 -1.050781 4.1875 -1.75 C 4.1875 -2.675781 4.5625 -3.367188 5.3125 -3.828125 C 6.070312 -4.296875 7.035156 -4.707031 8.203125 -5.0625 C 10.640625 -5.757812 12.351562 -6.601562 13.34375 -7.59375 C 14.332031 -8.582031 14.828125 -9.945312 14.828125 -11.6875 L 14.828125 -50.953125 C 14.828125 -53.628906 14.445312 -55.867188 13.6875 -57.671875 C 12.9375 -59.472656 11.34375 -60.664062 8.90625 -61.25 C 8.4375 -61.476562 7.96875 -61.796875 7.5 -62.203125 C 7.039062 -62.609375 6.8125 -63.222656 6.8125 -64.046875 C 6.8125 -65.554688 7.445312 -66.484375 8.71875 -66.828125 C 12.207031 -67.765625 15.988281 -69.015625 20.0625 -70.578125 C 24.132812 -72.148438 27.566406 -73.691406 30.359375 -75.203125 C 30.941406 -75.554688 31.582031 -75.90625 32.28125 -76.25 C 32.976562 -76.601562 33.503906 -76.78125 33.859375 -76.78125 C 34.785156 -76.78125 35.25 -76.195312 35.25 -75.03125 C 35.25 -74.570312 35.21875 -73.523438 35.15625 -71.890625 C 35.101562 -70.265625 35.046875 -68.488281 34.984375 -66.5625 C 34.929688 -64.644531 34.84375 -62.929688 34.71875 -61.421875 C 34.71875 -60.722656 34.894531 -60.375 35.25 -60.375 C 37.113281 -62.820312 39.207031 -65.09375 41.53125 -67.1875 C 43.851562 -69.28125 46.320312 -71.023438 48.9375 -72.421875 C 51.5625 -73.816406 54.210938 -74.515625 56.890625 -74.515625 C 60.265625 -74.515625 62.796875 -73.816406 64.484375 -72.421875 C 66.171875 -71.023438 67.015625 -69.28125 67.015625 -67.1875 C 67.015625 -65.550781 66.578125 -63.800781 65.703125 -61.9375 C 64.828125 -60.082031 63.71875 -58.484375 62.375 -57.140625 C 61.039062 -55.804688 59.5625 -55.140625 57.9375 -55.140625 C 57 -55.140625 56.003906 -55.34375 54.953125 -55.75 C 53.910156 -56.15625 52.867188 -56.648438 51.828125 -57.234375 C 50.773438 -57.703125 49.695312 -58.164062 48.59375 -58.625 C 47.488281 -59.09375 46.472656 -59.328125 45.546875 -59.328125 C 42.640625 -59.328125 40.019531 -58.25 37.6875 -56.09375 C 35.363281 -53.945312 34.203125 -49.734375 34.203125 -43.453125 L 34.203125 -12.734375 C 34.203125 -10.640625 34.957031 -9.039062 36.46875 -7.9375 C 37.976562 -6.832031 40.304688 -5.816406 43.453125 -4.890625 C 44.734375 -4.535156 45.691406 -4.15625 46.328125 -3.75 C 46.972656 -3.34375 47.296875 -2.675781 47.296875 -1.75 C 47.296875 -0.226562 46.25 0.53125 44.15625 0.53125 C 40.65625 0.53125 37.363281 0.382812 34.28125 0.09375 C 31.207031 -0.195312 28.15625 -0.34375 25.125 -0.34375 C 23.144531 -0.34375 21.253906 -0.285156 19.453125 -0.171875 C 17.648438 -0.0546875 15.816406 0.0859375 13.953125 0.265625 C 12.097656 0.441406 10.003906 0.53125 7.671875 0.53125 Z M 7.671875 0.53125 "/></g></g></g><g fill="#000000" fill-opacity="1"><g transform="translate(739.082134, 587.99999)"><g><path d="M 6.984375 0.53125 C 6.046875 0.53125 5.285156 0.328125 4.703125 -0.078125 C 4.128906 -0.492188 3.84375 -1.050781 3.84375 -1.75 C 3.84375 -2.675781 4.191406 -3.367188 4.890625 -3.828125 C 5.585938 -4.296875 6.398438 -4.648438 7.328125 -4.890625 C 10.117188 -5.585938 12.125 -6.34375 13.34375 -7.15625 C 14.570312 -7.96875 15.1875 -9.363281 15.1875 -11.34375 L 15.1875 -49.203125 C 15.1875 -52.929688 14.601562 -55.722656 13.4375 -57.578125 C 12.269531 -59.441406 10.289062 -60.609375 7.5 -61.078125 C 6.914062 -61.191406 6.445312 -61.507812 6.09375 -62.03125 C 5.75 -62.550781 5.578125 -63.160156 5.578125 -63.859375 C 5.578125 -65.492188 6.21875 -66.367188 7.5 -66.484375 C 13.082031 -67.648438 17.9375 -69.25 22.0625 -71.28125 C 26.195312 -73.320312 29.367188 -74.921875 31.578125 -76.078125 C 33.210938 -76.890625 34.257812 -77.296875 34.71875 -77.296875 C 36 -77.296875 36.640625 -76.71875 36.640625 -75.5625 C 36.523438 -73.925781 36.289062 -71.679688 35.9375 -68.828125 C 35.59375 -65.984375 35.273438 -62.960938 34.984375 -59.765625 C 34.691406 -56.566406 34.546875 -53.570312 34.546875 -50.78125 L 34.546875 -11.515625 C 34.546875 -9.773438 35.1875 -8.4375 36.46875 -7.5 C 37.75 -6.570312 39.785156 -5.703125 42.578125 -4.890625 C 43.503906 -4.535156 44.316406 -4.15625 45.015625 -3.75 C 45.710938 -3.34375 46.0625 -2.675781 46.0625 -1.75 C 46.0625 -0.351562 45.070312 0.34375 43.09375 0.34375 C 40.882812 0.34375 38.757812 0.285156 36.71875 0.171875 C 34.6875 0.0546875 32.710938 -0.0546875 30.796875 -0.171875 C 28.878906 -0.285156 26.875 -0.34375 24.78125 -0.34375 C 22.800781 -0.34375 20.878906 -0.285156 19.015625 -0.171875 C 17.160156 -0.0546875 15.269531 0.0859375 13.34375 0.265625 C 11.425781 0.441406 9.304688 0.53125 6.984375 0.53125 Z M 24.4375 -87.421875 C 21.0625 -87.421875 18.207031 -88.582031 15.875 -90.90625 C 13.550781 -93.238281 12.390625 -96.035156 12.390625 -99.296875 C 12.390625 -102.898438 13.550781 -105.863281 15.875 -108.1875 C 18.207031 -110.519531 21.0625 -111.6875 24.4375 -111.6875 C 27.925781 -111.6875 30.832031 -110.519531 33.15625 -108.1875 C 35.488281 -105.863281 36.65625 -102.898438 36.65625 -99.296875 C 36.65625 -96.035156 35.488281 -93.238281 33.15625 -90.90625 C 30.832031 -88.582031 27.925781 -87.421875 24.4375 -87.421875 Z M 24.4375 -87.421875 "/></g></g></g><g fill="#000000" fill-opacity="1"><g transform="translate(787.765446, 587.99999)"><g><path d="M 61.59375 3.484375 C 60.664062 3.484375 60.203125 2.960938 60.203125 1.921875 C 60.203125 0.640625 60.347656 -1.160156 60.640625 -3.484375 C 60.929688 -5.816406 61.078125 -7.679688 61.078125 -9.078125 C 61.078125 -9.421875 61.046875 -9.738281 60.984375 -10.03125 C 60.929688 -10.320312 60.90625 -10.523438 60.90625 -10.640625 C 57.289062 -6.691406 53.066406 -3.492188 48.234375 -1.046875 C 43.410156 1.398438 38.328125 2.625 32.984375 2.625 C 29.253906 2.625 25.90625 1.632812 22.9375 -0.34375 C 19.976562 -2.320312 17.65625 -5.054688 15.96875 -8.546875 C 14.28125 -12.035156 13.4375 -16.109375 13.4375 -20.765625 L 13.4375 -54.265625 C 13.4375 -56.941406 12.910156 -59.066406 11.859375 -60.640625 C 10.816406 -62.210938 8.957031 -63.40625 6.28125 -64.21875 C 5.582031 -64.332031 4.972656 -64.617188 4.453125 -65.078125 C 3.929688 -65.546875 3.671875 -66.25 3.671875 -67.1875 C 3.671875 -68.113281 3.929688 -68.804688 4.453125 -69.265625 C 4.972656 -69.734375 5.582031 -70.03125 6.28125 -70.15625 C 10.9375 -70.382812 14.953125 -70.816406 18.328125 -71.453125 C 21.703125 -72.097656 25.304688 -72.882812 29.140625 -73.8125 C 29.609375 -74.039062 30.070312 -74.210938 30.53125 -74.328125 C 31 -74.453125 31.46875 -74.515625 31.9375 -74.515625 C 33.445312 -74.515625 34.144531 -73.695312 34.03125 -72.0625 C 33.675781 -69.394531 33.382812 -67.15625 33.15625 -65.34375 C 32.925781 -63.539062 32.8125 -61.300781 32.8125 -58.625 L 32.8125 -24.953125 C 32.8125 -22.160156 33.332031 -19.660156 34.375 -17.453125 C 35.425781 -15.242188 36.878906 -13.5 38.734375 -12.21875 C 40.597656 -10.9375 42.632812 -10.238281 44.84375 -10.125 C 47.050781 -10.125 49.113281 -10.351562 51.03125 -10.8125 C 52.957031 -11.28125 54.851562 -12.328125 56.71875 -13.953125 C 57.644531 -14.648438 58.6875 -15.957031 59.84375 -17.875 C 61.007812 -19.800781 61.59375 -22.335938 61.59375 -25.484375 L 61.59375 -54.796875 C 61.59375 -57.003906 61.097656 -58.773438 60.109375 -60.109375 C 59.117188 -61.453125 57.835938 -62.472656 56.265625 -63.171875 C 54.703125 -63.867188 53.109375 -64.21875 51.484375 -64.21875 C 50.203125 -64.332031 49.210938 -64.617188 48.515625 -65.078125 C 47.816406 -65.546875 47.46875 -66.476562 47.46875 -67.875 C 47.46875 -69.039062 47.875 -69.851562 48.6875 -70.3125 C 49.5 -70.78125 50.429688 -71.015625 51.484375 -71.015625 C 56.597656 -71.367188 60.722656 -71.660156 63.859375 -71.890625 C 67.003906 -72.128906 69.648438 -72.421875 71.796875 -72.765625 C 73.953125 -73.117188 76.078125 -73.582031 78.171875 -74.15625 C 78.523438 -74.28125 78.90625 -74.367188 79.3125 -74.421875 C 79.71875 -74.484375 80.035156 -74.515625 80.265625 -74.515625 C 81.898438 -74.515625 82.71875 -73.875 82.71875 -72.59375 C 82.71875 -72.238281 82.6875 -71.859375 82.625 -71.453125 C 82.5625 -71.046875 82.414062 -70.613281 82.1875 -70.15625 C 82.070312 -69.800781 81.925781 -68.804688 81.75 -67.171875 C 81.570312 -65.546875 81.394531 -63.859375 81.21875 -62.109375 C 81.050781 -60.367188 80.96875 -59.035156 80.96875 -58.109375 L 80.96875 -17.625 C 80.96875 -14.832031 81.285156 -12.910156 81.921875 -11.859375 C 82.566406 -10.816406 83.296875 -10.296875 84.109375 -10.296875 C 84.804688 -10.296875 85.820312 -10.320312 87.15625 -10.375 C 88.5 -10.4375 89.460938 -10.46875 90.046875 -10.46875 C 90.972656 -10.46875 91.726562 -10.234375 92.3125 -9.765625 C 92.894531 -9.304688 93.1875 -8.550781 93.1875 -7.5 C 93.1875 -6.457031 92.984375 -5.671875 92.578125 -5.140625 C 92.171875 -4.617188 91.441406 -4.300781 90.390625 -4.1875 C 85.148438 -3.71875 80.492188 -2.8125 76.421875 -1.46875 C 72.359375 -0.132812 68.8125 1.164062 65.78125 2.4375 C 65.082031 2.675781 64.351562 2.910156 63.59375 3.140625 C 62.84375 3.367188 62.175781 3.484375 61.59375 3.484375 Z M 61.59375 3.484375 "/></g></g></g><g fill="#000000" fill-opacity="1"><g transform="translate(882.514694, 587.99999)"><g><path d="M 7.328125 0.53125 C 6.515625 0.53125 5.726562 0.351562 4.96875 0 C 4.21875 -0.351562 3.84375 -0.9375 3.84375 -1.75 C 3.84375 -2.675781 4.25 -3.367188 5.0625 -3.828125 C 5.875 -4.296875 6.804688 -4.707031 7.859375 -5.0625 C 9.484375 -5.644531 11.050781 -6.3125 12.5625 -7.0625 C 14.070312 -7.820312 14.828125 -9.363281 14.828125 -11.6875 L 14.828125 -50.78125 C 14.828125 -53.457031 14.476562 -55.8125 13.78125 -57.84375 C 13.082031 -59.882812 11.457031 -61.078125 8.90625 -61.421875 C 8.4375 -61.535156 8.023438 -61.796875 7.671875 -62.203125 C 7.328125 -62.609375 7.15625 -63.335938 7.15625 -64.390625 C 7.15625 -65.785156 7.675781 -66.660156 8.71875 -67.015625 C 11.75 -67.710938 14.628906 -68.523438 17.359375 -69.453125 C 20.097656 -70.378906 22.71875 -71.425781 25.21875 -72.59375 C 27.71875 -73.757812 30.015625 -74.921875 32.109375 -76.078125 C 32.453125 -76.316406 32.796875 -76.550781 33.140625 -76.78125 C 33.492188 -77.007812 33.847656 -77.125 34.203125 -77.125 C 35.128906 -77.125 35.59375 -76.546875 35.59375 -75.390625 C 35.59375 -74.453125 35.445312 -72.847656 35.15625 -70.578125 C 34.863281 -68.316406 34.71875 -66.367188 34.71875 -64.734375 C 34.71875 -63.578125 34.835938 -62.878906 35.078125 -62.640625 L 35.421875 -62.640625 C 38.679688 -65.785156 42.429688 -68.519531 46.671875 -70.84375 C 50.921875 -73.175781 55.953125 -74.34375 61.765625 -74.34375 C 65.492188 -74.34375 68.835938 -73.207031 71.796875 -70.9375 C 74.765625 -68.664062 77.066406 -65.492188 78.703125 -61.421875 L 79.390625 -61.421875 C 82.878906 -65.378906 86.894531 -68.519531 91.4375 -70.84375 C 95.976562 -73.175781 100.976562 -74.34375 106.4375 -74.34375 C 110.164062 -74.34375 113.425781 -73.265625 116.21875 -71.109375 C 119.007812 -68.953125 121.21875 -66.015625 122.84375 -62.296875 C 124.476562 -58.578125 125.296875 -54.332031 125.296875 -49.5625 L 125.296875 -11.515625 C 125.296875 -9.191406 125.992188 -7.679688 127.390625 -6.984375 C 128.785156 -6.285156 130.351562 -5.644531 132.09375 -5.0625 C 133.144531 -4.707031 134.046875 -4.296875 134.796875 -3.828125 C 135.554688 -3.367188 135.9375 -2.675781 135.9375 -1.75 C 135.9375 -1.050781 135.644531 -0.492188 135.0625 -0.078125 C 134.476562 0.328125 133.664062 0.53125 132.625 0.53125 C 130.289062 0.53125 128.222656 0.441406 126.421875 0.265625 C 124.617188 0.0859375 122.898438 -0.0546875 121.265625 -0.171875 C 119.640625 -0.285156 117.78125 -0.34375 115.6875 -0.34375 C 113.71875 -0.34375 111.945312 -0.285156 110.375 -0.171875 C 108.800781 -0.0546875 107.195312 0.0859375 105.5625 0.265625 C 103.9375 0.441406 101.960938 0.53125 99.640625 0.53125 C 98.710938 0.53125 97.957031 0.328125 97.375 -0.078125 C 96.789062 -0.492188 96.5 -1.050781 96.5 -1.75 C 96.5 -2.675781 96.847656 -3.367188 97.546875 -3.828125 C 98.242188 -4.296875 99.113281 -4.707031 100.15625 -5.0625 C 101.789062 -5.53125 103.128906 -6.140625 104.171875 -6.890625 C 105.222656 -7.648438 105.75 -9.019531 105.75 -11 L 105.75 -46.9375 C 105.75 -49.84375 105.28125 -52.398438 104.34375 -54.609375 C 103.414062 -56.828125 102.109375 -58.601562 100.421875 -59.9375 C 98.734375 -61.28125 96.84375 -61.953125 94.75 -61.953125 C 92.769531 -61.953125 90.757812 -61.628906 88.71875 -60.984375 C 86.6875 -60.347656 84.742188 -59.273438 82.890625 -57.765625 C 80.679688 -55.898438 79.578125 -52.875 79.578125 -48.6875 L 79.578125 -11.515625 C 79.578125 -9.191406 80.1875 -7.648438 81.40625 -6.890625 C 82.625 -6.140625 84.109375 -5.53125 85.859375 -5.0625 C 86.785156 -4.707031 87.625 -4.296875 88.375 -3.828125 C 89.132812 -3.367188 89.515625 -2.675781 89.515625 -1.75 C 89.515625 -1.050781 89.191406 -0.492188 88.546875 -0.078125 C 87.910156 0.328125 87.1875 0.53125 86.375 0.53125 C 84.050781 0.53125 82.046875 0.441406 80.359375 0.265625 C 78.671875 0.0859375 77.070312 -0.0546875 75.5625 -0.171875 C 74.050781 -0.285156 72.25 -0.34375 70.15625 -0.34375 C 68.175781 -0.34375 66.398438 -0.285156 64.828125 -0.171875 C 63.253906 -0.0546875 61.625 0.0859375 59.9375 0.265625 C 58.25 0.441406 56.242188 0.53125 53.921875 0.53125 C 53.109375 0.53125 52.378906 0.328125 51.734375 -0.078125 C 51.097656 -0.492188 50.78125 -1.050781 50.78125 -1.75 C 50.78125 -2.675781 51.15625 -3.367188 51.90625 -3.828125 C 52.664062 -4.296875 53.507812 -4.707031 54.4375 -5.0625 C 56.070312 -5.53125 57.441406 -6.140625 58.546875 -6.890625 C 59.648438 -7.648438 60.203125 -9.019531 60.203125 -11 L 60.203125 -46.9375 C 60.203125 -49.84375 59.734375 -52.398438 58.796875 -54.609375 C 57.867188 -56.828125 56.5625 -58.601562 54.875 -59.9375 C 53.1875 -61.28125 51.296875 -61.953125 49.203125 -61.953125 C 47.234375 -61.953125 45.257812 -61.628906 43.28125 -60.984375 C 41.300781 -60.347656 39.265625 -59.273438 37.171875 -57.765625 C 35.191406 -56.242188 34.203125 -53.332031 34.203125 -49.03125 L 34.203125 -11.515625 C 34.203125 -9.421875 34.695312 -7.96875 35.6875 -7.15625 C 36.675781 -6.34375 38.039062 -5.644531 39.78125 -5.0625 C 40.71875 -4.707031 41.5625 -4.296875 42.3125 -3.828125 C 43.070312 -3.367188 43.453125 -2.675781 43.453125 -1.75 C 43.453125 -1.050781 43.160156 -0.492188 42.578125 -0.078125 C 41.992188 0.328125 41.238281 0.53125 40.3125 0.53125 C 37.976562 0.53125 36 0.441406 34.375 0.265625 C 32.75 0.0859375 31.175781 -0.0546875 29.65625 -0.171875 C 28.144531 -0.285156 26.34375 -0.34375 24.25 -0.34375 C 22.269531 -0.34375 20.4375 -0.285156 18.75 -0.171875 C 17.070312 -0.0546875 15.328125 0.0859375 13.515625 0.265625 C 11.710938 0.441406 9.648438 0.53125 7.328125 0.53125 Z M 7.328125 0.53125 "/></g></g></g><g fill="#000000" fill-opacity="1"><g transform="translate(1021.584937, 587.99999)"><g><path d="M 6.453125 47.109375 C 5.753906 47.109375 5 46.929688 4.1875 46.578125 C 3.375 46.234375 2.96875 45.65625 2.96875 44.84375 C 2.96875 43.914062 3.375 43.21875 4.1875 42.75 C 5 42.28125 5.929688 41.875 6.984375 41.53125 C 9.191406 40.832031 10.90625 40.046875 12.125 39.171875 C 13.34375 38.296875 13.953125 36.875 13.953125 34.90625 L 13.953125 -50.4375 C 13.953125 -51.59375 13.660156 -52.957031 13.078125 -54.53125 C 12.503906 -56.101562 11.664062 -57.554688 10.5625 -58.890625 C 9.457031 -60.234375 8.03125 -61.019531 6.28125 -61.25 C 5.695312 -61.476562 5.257812 -61.796875 4.96875 -62.203125 C 4.675781 -62.609375 4.53125 -63.28125 4.53125 -64.21875 C 4.53125 -65.03125 4.675781 -65.640625 4.96875 -66.046875 C 5.257812 -66.453125 5.640625 -66.710938 6.109375 -66.828125 C 10.296875 -67.765625 14.484375 -68.957031 18.671875 -70.40625 C 22.859375 -71.863281 26.523438 -73.289062 29.671875 -74.6875 C 30.015625 -74.800781 30.359375 -75.003906 30.703125 -75.296875 C 31.054688 -75.585938 31.410156 -75.734375 31.765625 -75.734375 C 32.335938 -75.734375 32.710938 -75.53125 32.890625 -75.125 C 33.066406 -74.71875 33.15625 -74.222656 33.15625 -73.640625 C 33.15625 -72.710938 33.007812 -71.171875 32.71875 -69.015625 C 32.425781 -66.859375 32.28125 -65.023438 32.28125 -63.515625 C 32.28125 -62.347656 32.394531 -61.707031 32.625 -61.59375 C 33.789062 -62.757812 35.859375 -64.300781 38.828125 -66.21875 C 41.796875 -68.144531 45.226562 -69.863281 49.125 -71.375 C 53.019531 -72.882812 56.769531 -73.640625 60.375 -73.640625 C 66.539062 -73.640625 71.804688 -71.976562 76.171875 -68.65625 C 80.535156 -65.34375 83.878906 -61.097656 86.203125 -55.921875 C 88.523438 -50.742188 89.6875 -45.363281 89.6875 -39.78125 C 89.6875 -34.4375 88.664062 -29.234375 86.625 -24.171875 C 84.59375 -19.109375 81.71875 -14.539062 78 -10.46875 C 74.28125 -6.394531 70.003906 -3.132812 65.171875 -0.6875 C 60.347656 1.75 55.144531 2.96875 49.5625 2.96875 C 48.164062 2.96875 46.503906 2.765625 44.578125 2.359375 C 42.660156 1.953125 40.742188 1.425781 38.828125 0.78125 C 36.910156 0.144531 35.253906 -0.578125 33.859375 -1.390625 C 33.734375 -1.390625 33.613281 -1.066406 33.5 -0.421875 C 33.382812 0.210938 33.296875 0.9375 33.234375 1.75 C 33.179688 2.5625 33.15625 3.203125 33.15625 3.671875 L 33.15625 33.859375 C 33.15625 35.367188 33.617188 36.617188 34.546875 37.609375 C 35.484375 38.597656 36.648438 39.378906 38.046875 39.953125 C 39.441406 40.535156 41.007812 41.0625 42.75 41.53125 C 43.914062 41.875 44.847656 42.28125 45.546875 42.75 C 46.242188 43.21875 46.59375 43.914062 46.59375 44.84375 C 46.59375 45.539062 46.242188 46.09375 45.546875 46.5 C 44.847656 46.90625 44.148438 47.109375 43.453125 47.109375 C 39.960938 47.109375 36.554688 46.960938 33.234375 46.671875 C 29.921875 46.390625 26.753906 46.25 23.734375 46.25 C 21.753906 46.25 19.890625 46.304688 18.140625 46.421875 C 16.398438 46.535156 14.597656 46.675781 12.734375 46.84375 C 10.878906 47.019531 8.785156 47.109375 6.453125 47.109375 Z M 50.078125 -4.359375 C 51.472656 -4.359375 53.21875 -4.851562 55.3125 -5.84375 C 57.40625 -6.832031 59.46875 -8.429688 61.5 -10.640625 C 63.539062 -12.847656 65.226562 -15.875 66.5625 -19.71875 C 67.90625 -23.5625 68.578125 -28.273438 68.578125 -33.859375 C 68.578125 -40.253906 67.878906 -45.398438 66.484375 -49.296875 C 65.085938 -53.191406 63.34375 -56.128906 61.25 -58.109375 C 59.15625 -60.085938 57.03125 -61.394531 54.875 -62.03125 C 52.726562 -62.675781 50.835938 -63 49.203125 -63 C 46.878906 -63 44.492188 -62.503906 42.046875 -61.515625 C 39.609375 -60.523438 37.570312 -59.359375 35.9375 -58.015625 C 34.3125 -56.679688 33.5 -55.550781 33.5 -54.625 C 33.5 -52.988281 33.5 -50.863281 33.5 -48.25 C 33.5 -45.632812 33.46875 -42.84375 33.40625 -39.875 C 33.351562 -36.90625 33.296875 -34.195312 33.234375 -31.75 C 33.179688 -29.3125 33.15625 -27.570312 33.15625 -26.53125 C 33.15625 -23.15625 33.910156 -19.75 35.421875 -16.3125 C 36.929688 -12.882812 38.96875 -10.035156 41.53125 -7.765625 C 44.09375 -5.492188 46.941406 -4.359375 50.078125 -4.359375 Z M 50.078125 -4.359375 "/></g></g></g><g fill="#000000" fill-opacity="1"><g transform="translate(1115.810731, 587.99999)"><g><path d="M 6.453125 0.53125 C 4.128906 0.53125 2.96875 -0.226562 2.96875 -1.75 C 2.96875 -3.03125 4.304688 -4.132812 6.984375 -5.0625 C 8.722656 -5.644531 10.316406 -6.3125 11.765625 -7.0625 C 13.222656 -7.820312 13.953125 -9.421875 13.953125 -11.859375 L 13.953125 -96.84375 C 13.953125 -99.988281 13.515625 -102.722656 12.640625 -105.046875 C 11.773438 -107.367188 9.832031 -108.820312 6.8125 -109.40625 C 5.644531 -109.644531 5.0625 -110.519531 5.0625 -112.03125 C 5.0625 -113.3125 5.582031 -114.125 6.625 -114.46875 C 8.957031 -115.050781 11.664062 -115.835938 14.75 -116.828125 C 17.832031 -117.816406 20.851562 -118.863281 23.8125 -119.96875 C 26.78125 -121.070312 29.195312 -121.914062 31.0625 -122.5 C 31.875 -122.84375 32.457031 -123.015625 32.8125 -123.015625 C 33.507812 -123.015625 33.972656 -122.835938 34.203125 -122.484375 C 34.429688 -122.140625 34.546875 -121.738281 34.546875 -121.28125 C 34.546875 -120.582031 34.429688 -119.648438 34.203125 -118.484375 C 33.972656 -117.316406 33.769531 -115.71875 33.59375 -113.6875 C 33.414062 -111.65625 33.328125 -108.890625 33.328125 -105.390625 L 33.328125 -68.234375 C 33.328125 -66.835938 33.382812 -65.703125 33.5 -64.828125 C 33.613281 -63.953125 33.90625 -63.28125 34.375 -62.8125 C 36.125 -64.207031 38.273438 -65.804688 40.828125 -67.609375 C 43.390625 -69.421875 46.296875 -70.992188 49.546875 -72.328125 C 52.804688 -73.671875 56.359375 -74.34375 60.203125 -74.34375 C 66.253906 -74.34375 71.285156 -72.128906 75.296875 -67.703125 C 79.304688 -63.285156 81.3125 -57.351562 81.3125 -49.90625 L 81.3125 -12.390625 C 81.3125 -9.941406 82.007812 -8.253906 83.40625 -7.328125 C 84.800781 -6.398438 86.316406 -5.644531 87.953125 -5.0625 C 89.234375 -4.59375 90.191406 -4.125 90.828125 -3.65625 C 91.460938 -3.195312 91.78125 -2.5625 91.78125 -1.75 C 91.78125 -0.226562 90.5625 0.53125 88.125 0.53125 C 85.445312 0.53125 83.320312 0.441406 81.75 0.265625 C 80.175781 0.0859375 78.691406 -0.0546875 77.296875 -0.171875 C 75.898438 -0.285156 73.984375 -0.34375 71.546875 -0.34375 C 69.222656 -0.34375 67.390625 -0.285156 66.046875 -0.171875 C 64.710938 -0.0546875 63.347656 0.0859375 61.953125 0.265625 C 60.554688 0.441406 58.519531 0.53125 55.84375 0.53125 C 53.28125 0.53125 52 -0.285156 52 -1.921875 C 52 -2.734375 52.347656 -3.367188 53.046875 -3.828125 C 53.742188 -4.296875 54.617188 -4.707031 55.671875 -5.0625 C 57.296875 -5.53125 58.75 -6.285156 60.03125 -7.328125 C 61.3125 -8.378906 61.953125 -10.125 61.953125 -12.5625 L 61.953125 -47.296875 C 61.953125 -49.960938 61.3125 -52.375 60.03125 -54.53125 C 58.75 -56.6875 57.144531 -58.398438 55.21875 -59.671875 C 53.300781 -60.953125 51.238281 -61.59375 49.03125 -61.59375 C 47.175781 -61.59375 45.082031 -61.300781 42.75 -60.71875 C 40.425781 -60.144531 38.332031 -59.160156 36.46875 -57.765625 C 35.1875 -56.828125 34.34375 -55.804688 33.9375 -54.703125 C 33.53125 -53.597656 33.328125 -51.828125 33.328125 -49.390625 L 33.328125 -12.046875 C 33.441406 -9.710938 34.109375 -8.109375 35.328125 -7.234375 C 36.554688 -6.367188 37.925781 -5.644531 39.4375 -5.0625 C 40.601562 -4.707031 41.503906 -4.296875 42.140625 -3.828125 C 42.773438 -3.367188 43.09375 -2.734375 43.09375 -1.921875 C 43.09375 -0.285156 42.046875 0.53125 39.953125 0.53125 C 37.628906 0.53125 35.59375 0.441406 33.84375 0.265625 C 32.101562 0.0859375 30.445312 -0.0546875 28.875 -0.171875 C 27.3125 -0.285156 25.484375 -0.34375 23.390625 -0.34375 C 21.410156 -0.34375 19.578125 -0.285156 17.890625 -0.171875 C 16.203125 -0.0546875 14.457031 0.0859375 12.65625 0.265625 C 10.851562 0.441406 8.785156 0.53125 6.453125 0.53125 Z M 6.453125 0.53125 "/></g></g></g></svg>