<svg xmlns="http://www.w3.org/2000/svg" xmlns:xlink="http://www.w3.org/1999/xlink" width="1920" zoomAndPan="magnify" viewBox="0 0 1440 809.999993" height="1080" preserveAspectRatio="xMidYMid meet" version="1.0"><defs><g/><clipPath id="3158614fae"><path d="M 38.25 0 L 1401.75 0 C 1411.894531 0 1421.625 4.03125 1428.796875 11.203125 C 1435.96875 18.375 1440 28.105469 1440 38.25 L 1440 771.75 C 1440 781.894531 1435.96875 791.625 1428.796875 798.796875 C 1421.625 805.96875 1411.894531 810 1401.75 810 L 38.25 810 C 28.105469 810 18.375 805.96875 11.203125 798.796875 C 4.03125 791.625 0 781.894531 0 771.75 L 0 38.25 C 0 28.105469 4.03125 18.375 11.203125 11.203125 C 18.375 4.03125 28.105469 0 38.25 0 Z M 38.25 0 " clip-rule="nonzero"/></clipPath><clipPath id="da126532f9"><path d="M 81 217.507812 L 455.984375 217.507812 L 455.984375 592.492188 L 81 592.492188 Z M 81 217.507812 " clip-rule="nonzero"/></clipPath><clipPath id="77b20b1da8"><path d="M 268.492188 217.507812 C 164.941406 217.507812 81 301.449219 81 405 C 81 508.550781 164.941406 592.492188 268.492188 592.492188 C 372.042969 592.492188 455.984375 508.550781 455.984375 405 C 455.984375 301.449219 372.042969 217.507812 268.492188 217.507812 Z M 268.492188 217.507812 " clip-rule="nonzero"/></clipPath><clipPath id="5bacbf2740"><path d="M 81 217.507812 L 455.976562 217.507812 L 455.976562 592.484375 L 81 592.484375 Z M 81 217.507812 " clip-rule="nonzero"/></clipPath><clipPath id="fae2ae4ab0"><path d="M 268.488281 217.507812 C 164.941406 217.507812 81 301.449219 81 404.996094 C 81 508.542969 164.941406 592.484375 268.488281 592.484375 C 372.035156 592.484375 455.976562 508.542969 455.976562 404.996094 C 455.976562 301.449219 372.035156 217.507812 268.488281 217.507812 Z M 268.488281 217.507812 " clip-rule="nonzero"/></clipPath></defs><g clip-path="url(#3158614fae)"><path fill="#ffffff" d="M 0 0 L 1439.648438 0 L 1439.648438 810 L 0 810 Z M 0 0 " fill-opacity="1" fill-rule="nonzero"/><path stroke-linecap="butt" transform="matrix(0.75, 0, 0, 0.75, 0.0000126595, 0.00002)" fill="none" stroke-linejoin="miter" d="M 50.999986 -0.0000266667 L 1869.000077 -0.0000266667 C 1882.526119 -0.0000266667 1895.500078 5.374974 1905.062579 14.937474 C 1914.625079 24.499975 1920.00008 37.473934 1920.00008 50.999976 L 1920.00008 1029.000025 C 1920.00008 1042.526067 1914.625079 1055.500026 1905.062579 1065.062527 C 1895.500078 1074.625027 1882.526119 1080.000028 1869.000077 1080.000028 L 50.999986 1080.000028 C 37.473943 1080.000028 24.499984 1074.625027 14.937484 1065.062527 C 5.374983 1055.500026 -0.0000168794 1042.526067 -0.0000168794 1029.000025 L -0.0000168794 50.999976 C -0.0000168794 37.473934 5.374983 24.499975 14.937484 14.937474 C 24.499984 5.374974 37.473943 -0.0000266667 50.999986 -0.0000266667 Z M 50.999986 -0.0000266667 " stroke="#000000" stroke-width="40" stroke-opacity="1" stroke-miterlimit="4"/></g><g clip-path="url(#da126532f9)"><g clip-path="url(#77b20b1da8)"><path fill="#edf0da" d="M 81 217.507812 L 455.984375 217.507812 L 455.984375 592.492188 L 81 592.492188 Z M 81 217.507812 " fill-opacity="1" fill-rule="nonzero"/></g></g><g clip-path="url(#5bacbf2740)"><g clip-path="url(#fae2ae4ab0)"><path stroke-linecap="butt" transform="matrix(0.75, 0, 0, 0.75, 81.000002, 217.507274)" fill="none" stroke-linejoin="miter" d="M 249.984401 0.00071819 C 111.921885 0.00071819 -0.00000286296 111.922606 -0.00000286296 249.985122 C -0.00000286296 388.047638 111.921885 499.969525 249.984401 499.969525 C 388.046916 499.969525 499.968804 388.047638 499.968804 249.985122 C 499.968804 111.922606 388.046916 0.00071819 249.984401 0.00071819 Z M 249.984401 0.00071819 " stroke="#000000" stroke-width="44" stroke-opacity="1" stroke-miterlimit="4"/></g></g><g fill="#000000" fill-opacity="1"><g transform="translate(476.99524, 344.250003)"><g><path d="M 37.34375 2.625 C 32.34375 2.625 27.601562 1.984375 23.125 0.703125 C 18.644531 -0.578125 14.539062 -2.5 10.8125 -5.0625 C 10.113281 -5.644531 9.472656 -6.253906 8.890625 -6.890625 C 8.316406 -7.535156 7.851562 -8.265625 7.5 -9.078125 C 6.570312 -11.984375 5.929688 -15.554688 5.578125 -19.796875 C 5.234375 -24.046875 5.117188 -28.148438 5.234375 -32.109375 C 5.234375 -32.921875 5.550781 -33.5 6.1875 -33.84375 C 6.832031 -34.195312 7.617188 -34.375 8.546875 -34.375 C 9.484375 -34.375 10.210938 -34.226562 10.734375 -33.9375 C 11.253906 -33.644531 11.628906 -33.09375 11.859375 -32.28125 C 14.421875 -23.550781 18.144531 -16.742188 23.03125 -11.859375 C 27.914062 -6.972656 33.441406 -4.53125 39.609375 -4.53125 C 43.453125 -4.53125 46.707031 -5.398438 49.375 -7.140625 C 52.050781 -8.890625 54.085938 -11.160156 55.484375 -13.953125 C 56.878906 -16.742188 57.578125 -19.769531 57.578125 -23.03125 C 57.578125 -27.101562 56.847656 -30.476562 55.390625 -33.15625 C 53.941406 -35.832031 51.765625 -38.242188 48.859375 -40.390625 C 45.953125 -42.546875 42.285156 -44.847656 37.859375 -47.296875 C 33.097656 -50.085938 28.445312 -53.019531 23.90625 -56.09375 C 19.363281 -59.175781 15.640625 -62.84375 12.734375 -67.09375 C 9.828125 -71.34375 8.375 -76.609375 8.375 -82.890625 C 8.375 -89.398438 10.03125 -95.125 13.34375 -100.0625 C 16.664062 -105.007812 21.289062 -108.878906 27.21875 -111.671875 C 33.15625 -114.472656 40.019531 -115.875 47.8125 -115.875 C 52.113281 -115.875 56.125 -115.40625 59.84375 -114.46875 C 63.570312 -113.539062 66.539062 -112.613281 68.75 -111.6875 C 70.03125 -111.21875 70.988281 -110.632812 71.625 -109.9375 C 72.269531 -109.238281 72.765625 -108.132812 73.109375 -106.625 C 73.804688 -104.175781 74.414062 -101.265625 74.9375 -97.890625 C 75.46875 -94.515625 75.734375 -90.96875 75.734375 -87.25 C 75.734375 -85.851562 74.6875 -85.15625 72.59375 -85.15625 C 71.664062 -85.15625 70.734375 -85.382812 69.796875 -85.84375 C 68.867188 -86.3125 68.289062 -86.957031 68.0625 -87.78125 C 65.957031 -94.519531 63.070312 -99.632812 59.40625 -103.125 C 55.75 -106.613281 51.242188 -108.359375 45.890625 -108.359375 C 42.285156 -108.359375 39.203125 -107.75 36.640625 -106.53125 C 34.085938 -105.3125 32.050781 -103.453125 30.53125 -100.953125 C 29.019531 -98.453125 28.265625 -95.222656 28.265625 -91.265625 C 28.265625 -88.234375 29.28125 -85.4375 31.3125 -82.875 C 33.351562 -80.320312 36.207031 -77.820312 39.875 -75.375 C 43.539062 -72.9375 47.640625 -70.265625 52.171875 -67.359375 C 57.753906 -64.097656 62.4375 -60.8125 66.21875 -57.5 C 70 -54.1875 72.878906 -50.519531 74.859375 -46.5 C 76.835938 -42.488281 77.828125 -37.75 77.828125 -32.28125 C 77.828125 -24.601562 76.140625 -18.175781 72.765625 -13 C 69.390625 -7.820312 64.675781 -3.921875 58.625 -1.296875 C 52.582031 1.316406 45.488281 2.625 37.34375 2.625 Z M 37.34375 2.625 "/></g></g></g><g fill="#000000" fill-opacity="1"><g transform="translate(561.449451, 344.250003)"><g><path d="M 6.984375 0.53125 C 6.046875 0.53125 5.285156 0.328125 4.703125 -0.078125 C 4.128906 -0.492188 3.84375 -1.050781 3.84375 -1.75 C 3.84375 -2.675781 4.191406 -3.367188 4.890625 -3.828125 C 5.585938 -4.296875 6.398438 -4.648438 7.328125 -4.890625 C 10.117188 -5.585938 12.125 -6.34375 13.34375 -7.15625 C 14.570312 -7.96875 15.1875 -9.363281 15.1875 -11.34375 L 15.1875 -49.203125 C 15.1875 -52.929688 14.601562 -55.722656 13.4375 -57.578125 C 12.269531 -59.441406 10.289062 -60.609375 7.5 -61.078125 C 6.914062 -61.191406 6.445312 -61.507812 6.09375 -62.03125 C 5.75 -62.550781 5.578125 -63.160156 5.578125 -63.859375 C 5.578125 -65.492188 6.21875 -66.367188 7.5 -66.484375 C 13.082031 -67.648438 17.9375 -69.25 22.0625 -71.28125 C 26.195312 -73.320312 29.367188 -74.921875 31.578125 -76.078125 C 33.210938 -76.890625 34.257812 -77.296875 34.71875 -77.296875 C 36 -77.296875 36.640625 -76.71875 36.640625 -75.5625 C 36.523438 -73.925781 36.289062 -71.679688 35.9375 -68.828125 C 35.59375 -65.984375 35.273438 -62.960938 34.984375 -59.765625 C 34.691406 -56.566406 34.546875 -53.570312 34.546875 -50.78125 L 34.546875 -11.515625 C 34.546875 -9.773438 35.1875 -8.4375 36.46875 -7.5 C 37.75 -6.570312 39.785156 -5.703125 42.578125 -4.890625 C 43.503906 -4.535156 44.316406 -4.15625 45.015625 -3.75 C 45.710938 -3.34375 46.0625 -2.675781 46.0625 -1.75 C 46.0625 -0.351562 45.070312 0.34375 43.09375 0.34375 C 40.882812 0.34375 38.757812 0.285156 36.71875 0.171875 C 34.6875 0.0546875 32.710938 -0.0546875 30.796875 -0.171875 C 28.878906 -0.285156 26.875 -0.34375 24.78125 -0.34375 C 22.800781 -0.34375 20.878906 -0.285156 19.015625 -0.171875 C 17.160156 -0.0546875 15.269531 0.0859375 13.34375 0.265625 C 11.425781 0.441406 9.304688 0.53125 6.984375 0.53125 Z M 24.4375 -87.421875 C 21.0625 -87.421875 18.207031 -88.582031 15.875 -90.90625 C 13.550781 -93.238281 12.390625 -96.035156 12.390625 -99.296875 C 12.390625 -102.898438 13.550781 -105.863281 15.875 -108.1875 C 18.207031 -110.519531 21.0625 -111.6875 24.4375 -111.6875 C 27.925781 -111.6875 30.832031 -110.519531 33.15625 -108.1875 C 35.488281 -105.863281 36.65625 -102.898438 36.65625 -99.296875 C 36.65625 -96.035156 35.488281 -93.238281 33.15625 -90.90625 C 30.832031 -88.582031 27.925781 -87.421875 24.4375 -87.421875 Z M 24.4375 -87.421875 "/></g></g></g><g fill="#000000" fill-opacity="1"><g transform="translate(610.132764, 344.250003)"><g><path d="M 7.328125 0.53125 C 6.398438 0.53125 5.585938 0.328125 4.890625 -0.078125 C 4.191406 -0.492188 3.84375 -1.050781 3.84375 -1.75 C 3.84375 -2.675781 4.21875 -3.367188 4.96875 -3.828125 C 5.726562 -4.296875 6.691406 -4.707031 7.859375 -5.0625 C 9.597656 -5.53125 11.191406 -6.171875 12.640625 -6.984375 C 14.097656 -7.796875 14.828125 -9.363281 14.828125 -11.6875 L 14.828125 -50.78125 C 14.828125 -53.457031 14.445312 -55.753906 13.6875 -57.671875 C 12.9375 -59.585938 11.34375 -60.835938 8.90625 -61.421875 C 8.4375 -61.648438 8.023438 -61.96875 7.671875 -62.375 C 7.328125 -62.789062 7.15625 -63.460938 7.15625 -64.390625 C 7.15625 -65.898438 7.675781 -66.773438 8.71875 -67.015625 C 12.789062 -67.941406 16.832031 -69.1875 20.84375 -70.75 C 24.863281 -72.320312 28.382812 -73.984375 31.40625 -75.734375 C 31.875 -75.960938 32.335938 -76.25 32.796875 -76.59375 C 33.265625 -76.945312 33.734375 -77.125 34.203125 -77.125 C 34.785156 -77.125 35.160156 -76.921875 35.328125 -76.515625 C 35.503906 -76.109375 35.59375 -75.671875 35.59375 -75.203125 C 35.59375 -74.390625 35.445312 -72.878906 35.15625 -70.671875 C 34.863281 -68.460938 34.71875 -66.539062 34.71875 -64.90625 C 34.71875 -64.445312 34.75 -63.953125 34.8125 -63.421875 C 34.875 -62.898438 34.960938 -62.582031 35.078125 -62.46875 C 39.023438 -66.195312 43.125 -69.109375 47.375 -71.203125 C 51.625 -73.296875 56.421875 -74.34375 61.765625 -74.34375 C 67.703125 -74.34375 72.675781 -72.070312 76.6875 -67.53125 C 80.707031 -62.988281 82.71875 -57 82.71875 -49.5625 L 82.71875 -11.515625 C 82.71875 -9.191406 83.414062 -7.679688 84.8125 -6.984375 C 86.207031 -6.285156 87.773438 -5.644531 89.515625 -5.0625 C 90.453125 -4.707031 91.328125 -4.269531 92.140625 -3.75 C 92.953125 -3.226562 93.359375 -2.503906 93.359375 -1.578125 C 93.359375 -0.878906 92.976562 -0.351562 92.21875 0 C 91.46875 0.351562 90.742188 0.53125 90.046875 0.53125 C 87.710938 0.53125 85.671875 0.441406 83.921875 0.265625 C 82.179688 0.0859375 80.46875 -0.0546875 78.78125 -0.171875 C 77.09375 -0.285156 75.203125 -0.34375 73.109375 -0.34375 C 71.140625 -0.34375 69.28125 -0.285156 67.53125 -0.171875 C 65.78125 -0.0546875 64.003906 0.0859375 62.203125 0.265625 C 60.398438 0.441406 58.335938 0.53125 56.015625 0.53125 C 55.429688 0.53125 54.789062 0.351562 54.09375 0 C 53.394531 -0.351562 53.046875 -0.878906 53.046875 -1.578125 C 53.046875 -2.503906 53.394531 -3.226562 54.09375 -3.75 C 54.789062 -4.269531 55.601562 -4.707031 56.53125 -5.0625 C 58.28125 -5.644531 59.820312 -6.285156 61.15625 -6.984375 C 62.5 -7.679688 63.171875 -9.191406 63.171875 -11.515625 L 63.171875 -46.9375 C 63.171875 -51.59375 62.035156 -55.257812 59.765625 -57.9375 C 57.492188 -60.613281 54.441406 -61.953125 50.609375 -61.953125 C 47.460938 -61.953125 44.722656 -61.484375 42.390625 -60.546875 C 40.066406 -59.617188 37.800781 -58.28125 35.59375 -56.53125 C 35.132812 -56.1875 34.785156 -55.691406 34.546875 -55.046875 C 34.316406 -54.410156 34.203125 -53.742188 34.203125 -53.046875 L 34.203125 -11.515625 C 34.203125 -9.191406 34.867188 -7.648438 36.203125 -6.890625 C 37.546875 -6.140625 39.085938 -5.53125 40.828125 -5.0625 C 43.273438 -4.25 44.5 -3.144531 44.5 -1.75 C 44.5 -1.050781 44.207031 -0.492188 43.625 -0.078125 C 43.039062 0.328125 42.285156 0.53125 41.359375 0.53125 C 39.023438 0.53125 36.984375 0.441406 35.234375 0.265625 C 33.492188 0.0859375 31.8125 -0.0546875 30.1875 -0.171875 C 28.5625 -0.285156 26.703125 -0.34375 24.609375 -0.34375 C 22.628906 -0.34375 20.765625 -0.285156 19.015625 -0.171875 C 17.273438 -0.0546875 15.472656 0.0859375 13.609375 0.265625 C 11.742188 0.441406 9.648438 0.53125 7.328125 0.53125 Z M 7.328125 0.53125 "/></g></g></g><g fill="#000000" fill-opacity="1"><g transform="translate(706.626927, 344.250003)"><g><path d="M 37 2.4375 C 30.945312 2.4375 25.476562 0.867188 20.59375 -2.265625 C 15.707031 -5.410156 11.835938 -9.742188 8.984375 -15.265625 C 6.140625 -20.796875 4.71875 -26.992188 4.71875 -33.859375 C 4.71875 -41.421875 6.460938 -48.253906 9.953125 -54.359375 C 13.441406 -60.460938 18.0625 -65.316406 23.8125 -68.921875 C 29.570312 -72.535156 36 -74.34375 43.09375 -74.34375 C 51.9375 -74.34375 59.382812 -71.550781 65.4375 -65.96875 C 66.601562 -64.914062 67.1875 -63.863281 67.1875 -62.8125 C 67.1875 -62 66.71875 -60.953125 65.78125 -59.671875 C 64.851562 -58.398438 63.75 -57.296875 62.46875 -56.359375 C 61.1875 -55.429688 60.082031 -54.96875 59.15625 -54.96875 C 58.226562 -54.96875 57.351562 -55.257812 56.53125 -55.84375 C 55.71875 -56.425781 54.90625 -57.066406 54.09375 -57.765625 C 51.1875 -60.085938 48.160156 -62.0625 45.015625 -63.6875 C 41.878906 -65.320312 39.207031 -66.140625 37 -66.140625 C 32.226562 -66.140625 28.503906 -64.046875 25.828125 -59.859375 C 23.148438 -55.671875 21.8125 -49.382812 21.8125 -41 C 21.8125 -35.300781 22.800781 -30.359375 24.78125 -26.171875 C 26.757812 -21.984375 29.550781 -18.722656 33.15625 -16.390625 C 36.757812 -14.066406 40.945312 -12.90625 45.71875 -12.90625 C 49.207031 -12.90625 52.203125 -13.457031 54.703125 -14.5625 C 57.203125 -15.675781 59.847656 -17.453125 62.640625 -19.890625 C 63.109375 -20.242188 63.546875 -20.5625 63.953125 -20.84375 C 64.359375 -21.132812 64.796875 -21.28125 65.265625 -21.28125 C 66.546875 -21.28125 67.1875 -20.351562 67.1875 -18.5 C 67.1875 -18.03125 67.066406 -17.359375 66.828125 -16.484375 C 66.597656 -15.617188 66.132812 -14.660156 65.4375 -13.609375 C 64.15625 -11.285156 62.085938 -8.84375 59.234375 -6.28125 C 56.390625 -3.71875 53.101562 -1.625 49.375 0 C 45.65625 1.625 41.53125 2.4375 37 2.4375 Z M 37 2.4375 "/></g></g></g><g fill="#000000" fill-opacity="1"><g transform="translate(778.168702, 344.250003)"><g><path d="M 37 2.4375 C 30.59375 2.4375 24.945312 0.8125 20.0625 -2.4375 C 15.175781 -5.695312 11.335938 -10.207031 8.546875 -15.96875 C 5.753906 -21.726562 4.359375 -28.269531 4.359375 -35.59375 C 4.359375 -42.695312 6.015625 -49.179688 9.328125 -55.046875 C 12.648438 -60.921875 17.101562 -65.601562 22.6875 -69.09375 C 28.269531 -72.59375 34.375 -74.34375 41 -74.34375 C 45.894531 -74.34375 50.257812 -73.320312 54.09375 -71.28125 C 57.9375 -69.25 60.988281 -66.457031 63.25 -62.90625 C 65.519531 -59.351562 66.65625 -55.367188 66.65625 -50.953125 C 66.65625 -46.765625 64.851562 -44.671875 61.25 -44.671875 L 25.828125 -44.671875 C 24.203125 -44.671875 23.007812 -44.234375 22.25 -43.359375 C 21.488281 -42.484375 21.109375 -40.882812 21.109375 -38.5625 C 21.109375 -33.675781 22.1875 -29.253906 24.34375 -25.296875 C 26.5 -21.347656 29.378906 -18.207031 32.984375 -15.875 C 36.585938 -13.550781 40.71875 -12.390625 45.375 -12.390625 C 48.75 -12.390625 51.859375 -13.054688 54.703125 -14.390625 C 57.554688 -15.734375 60.257812 -17.566406 62.8125 -19.890625 C 63.28125 -20.242188 63.6875 -20.5625 64.03125 -20.84375 C 64.382812 -21.132812 64.738281 -21.28125 65.09375 -21.28125 C 66.25 -21.28125 66.828125 -20.582031 66.828125 -19.1875 C 66.828125 -17.5625 66.128906 -15.585938 64.734375 -13.265625 C 63.335938 -10.585938 61.332031 -8.023438 58.71875 -5.578125 C 56.101562 -3.140625 52.929688 -1.195312 49.203125 0.25 C 45.484375 1.707031 41.414062 2.4375 37 2.4375 Z M 25.828125 -51.484375 L 38.21875 -51.484375 C 41.238281 -51.484375 43.503906 -51.539062 45.015625 -51.65625 C 46.535156 -51.769531 47.992188 -52 49.390625 -52.34375 C 49.960938 -52.46875 50.363281 -52.960938 50.59375 -53.828125 C 50.832031 -54.703125 50.953125 -55.722656 50.953125 -56.890625 C 50.953125 -60.023438 49.757812 -62.671875 47.375 -64.828125 C 44.988281 -66.984375 42.050781 -68.0625 38.5625 -68.0625 C 36.125 -68.0625 33.738281 -67.332031 31.40625 -65.875 C 29.082031 -64.414062 27.164062 -62.582031 25.65625 -60.375 C 24.144531 -58.164062 23.445312 -55.898438 23.5625 -53.578125 C 23.5625 -52.179688 24.316406 -51.484375 25.828125 -51.484375 Z M 25.828125 -51.484375 "/></g></g></g><g fill="#000000" fill-opacity="1"><g transform="translate(849.361523, 344.250003)"><g><path d="M 7.671875 0.53125 C 6.742188 0.53125 5.929688 0.328125 5.234375 -0.078125 C 4.535156 -0.492188 4.1875 -1.050781 4.1875 -1.75 C 4.1875 -2.675781 4.5625 -3.367188 5.3125 -3.828125 C 6.070312 -4.296875 7.035156 -4.707031 8.203125 -5.0625 C 10.640625 -5.757812 12.351562 -6.601562 13.34375 -7.59375 C 14.332031 -8.582031 14.828125 -9.945312 14.828125 -11.6875 L 14.828125 -50.953125 C 14.828125 -53.628906 14.445312 -55.867188 13.6875 -57.671875 C 12.9375 -59.472656 11.34375 -60.664062 8.90625 -61.25 C 8.4375 -61.476562 7.96875 -61.796875 7.5 -62.203125 C 7.039062 -62.609375 6.8125 -63.222656 6.8125 -64.046875 C 6.8125 -65.554688 7.445312 -66.484375 8.71875 -66.828125 C 12.207031 -67.765625 15.988281 -69.015625 20.0625 -70.578125 C 24.132812 -72.148438 27.566406 -73.691406 30.359375 -75.203125 C 30.941406 -75.554688 31.582031 -75.90625 32.28125 -76.25 C 32.976562 -76.601562 33.503906 -76.78125 33.859375 -76.78125 C 34.785156 -76.78125 35.25 -76.195312 35.25 -75.03125 C 35.25 -74.570312 35.21875 -73.523438 35.15625 -71.890625 C 35.101562 -70.265625 35.046875 -68.488281 34.984375 -66.5625 C 34.929688 -64.644531 34.84375 -62.929688 34.71875 -61.421875 C 34.71875 -60.722656 34.894531 -60.375 35.25 -60.375 C 37.113281 -62.820312 39.207031 -65.09375 41.53125 -67.1875 C 43.851562 -69.28125 46.320312 -71.023438 48.9375 -72.421875 C 51.5625 -73.816406 54.210938 -74.515625 56.890625 -74.515625 C 60.265625 -74.515625 62.796875 -73.816406 64.484375 -72.421875 C 66.171875 -71.023438 67.015625 -69.28125 67.015625 -67.1875 C 67.015625 -65.550781 66.578125 -63.800781 65.703125 -61.9375 C 64.828125 -60.082031 63.71875 -58.484375 62.375 -57.140625 C 61.039062 -55.804688 59.5625 -55.140625 57.9375 -55.140625 C 57 -55.140625 56.003906 -55.34375 54.953125 -55.75 C 53.910156 -56.15625 52.867188 -56.648438 51.828125 -57.234375 C 50.773438 -57.703125 49.695312 -58.164062 48.59375 -58.625 C 47.488281 -59.09375 46.472656 -59.328125 45.546875 -59.328125 C 42.640625 -59.328125 40.019531 -58.25 37.6875 -56.09375 C 35.363281 -53.945312 34.203125 -49.734375 34.203125 -43.453125 L 34.203125 -12.734375 C 34.203125 -10.640625 34.957031 -9.039062 36.46875 -7.9375 C 37.976562 -6.832031 40.304688 -5.816406 43.453125 -4.890625 C 44.734375 -4.535156 45.691406 -4.15625 46.328125 -3.75 C 46.972656 -3.34375 47.296875 -2.675781 47.296875 -1.75 C 47.296875 -0.226562 46.25 0.53125 44.15625 0.53125 C 40.65625 0.53125 37.363281 0.382812 34.28125 0.09375 C 31.207031 -0.195312 28.15625 -0.34375 25.125 -0.34375 C 23.144531 -0.34375 21.253906 -0.285156 19.453125 -0.171875 C 17.648438 -0.0546875 15.816406 0.0859375 13.953125 0.265625 C 12.097656 0.441406 10.003906 0.53125 7.671875 0.53125 Z M 7.671875 0.53125 "/></g></g></g><g fill="#000000" fill-opacity="1"><g transform="translate(917.064493, 344.250003)"><g><path d="M 6.984375 0.53125 C 6.046875 0.53125 5.285156 0.328125 4.703125 -0.078125 C 4.128906 -0.492188 3.84375 -1.050781 3.84375 -1.75 C 3.84375 -2.675781 4.191406 -3.367188 4.890625 -3.828125 C 5.585938 -4.296875 6.398438 -4.648438 7.328125 -4.890625 C 10.117188 -5.585938 12.125 -6.34375 13.34375 -7.15625 C 14.570312 -7.96875 15.1875 -9.363281 15.1875 -11.34375 L 15.1875 -49.203125 C 15.1875 -52.929688 14.601562 -55.722656 13.4375 -57.578125 C 12.269531 -59.441406 10.289062 -60.609375 7.5 -61.078125 C 6.914062 -61.191406 6.445312 -61.507812 6.09375 -62.03125 C 5.75 -62.550781 5.578125 -63.160156 5.578125 -63.859375 C 5.578125 -65.492188 6.21875 -66.367188 7.5 -66.484375 C 13.082031 -67.648438 17.9375 -69.25 22.0625 -71.28125 C 26.195312 -73.320312 29.367188 -74.921875 31.578125 -76.078125 C 33.210938 -76.890625 34.257812 -77.296875 34.71875 -77.296875 C 36 -77.296875 36.640625 -76.71875 36.640625 -75.5625 C 36.523438 -73.925781 36.289062 -71.679688 35.9375 -68.828125 C 35.59375 -65.984375 35.273438 -62.960938 34.984375 -59.765625 C 34.691406 -56.566406 34.546875 -53.570312 34.546875 -50.78125 L 34.546875 -11.515625 C 34.546875 -9.773438 35.1875 -8.4375 36.46875 -7.5 C 37.75 -6.570312 39.785156 -5.703125 42.578125 -4.890625 C 43.503906 -4.535156 44.316406 -4.15625 45.015625 -3.75 C 45.710938 -3.34375 46.0625 -2.675781 46.0625 -1.75 C 46.0625 -0.351562 45.070312 0.34375 43.09375 0.34375 C 40.882812 0.34375 38.757812 0.285156 36.71875 0.171875 C 34.6875 0.0546875 32.710938 -0.0546875 30.796875 -0.171875 C 28.878906 -0.285156 26.875 -0.34375 24.78125 -0.34375 C 22.800781 -0.34375 20.878906 -0.285156 19.015625 -0.171875 C 17.160156 -0.0546875 15.269531 0.0859375 13.34375 0.265625 C 11.425781 0.441406 9.304688 0.53125 6.984375 0.53125 Z M 24.4375 -87.421875 C 21.0625 -87.421875 18.207031 -88.582031 15.875 -90.90625 C 13.550781 -93.238281 12.390625 -96.035156 12.390625 -99.296875 C 12.390625 -102.898438 13.550781 -105.863281 15.875 -108.1875 C 18.207031 -110.519531 21.0625 -111.6875 24.4375 -111.6875 C 27.925781 -111.6875 30.832031 -110.519531 33.15625 -108.1875 C 35.488281 -105.863281 36.65625 -102.898438 36.65625 -99.296875 C 36.65625 -96.035156 35.488281 -93.238281 33.15625 -90.90625 C 30.832031 -88.582031 27.925781 -87.421875 24.4375 -87.421875 Z M 24.4375 -87.421875 "/></g></g></g><g fill="#000000" fill-opacity="1"><g transform="translate(965.747794, 344.250003)"><g><path d="M 36.46875 2.4375 C 29.488281 2.4375 24.195312 0.578125 20.59375 -3.140625 C 16.988281 -6.859375 15.1875 -12.269531 15.1875 -19.375 L 15.1875 -59.671875 C 15.1875 -60.609375 14.804688 -61.304688 14.046875 -61.765625 C 13.285156 -62.234375 11.800781 -62.523438 9.59375 -62.640625 L 7.671875 -62.640625 C 6.972656 -62.640625 6.390625 -63.191406 5.921875 -64.296875 C 5.460938 -65.410156 5.234375 -66.488281 5.234375 -67.53125 C 5.234375 -67.757812 5.320312 -68.078125 5.5 -68.484375 C 5.675781 -68.898438 5.9375 -69.164062 6.28125 -69.28125 C 8.957031 -70.4375 11.691406 -72.03125 14.484375 -74.0625 C 17.273438 -76.101562 19.890625 -78.195312 22.328125 -80.34375 C 24.773438 -82.5 26.8125 -84.335938 28.4375 -85.859375 C 29.257812 -86.429688 29.929688 -86.953125 30.453125 -87.421875 C 30.972656 -87.890625 31.582031 -88.125 32.28125 -88.125 C 33.207031 -88.125 33.929688 -87.921875 34.453125 -87.515625 C 34.984375 -87.109375 35.132812 -86.320312 34.90625 -85.15625 L 33.859375 -75.5625 C 33.734375 -74.164062 34.050781 -73.234375 34.8125 -72.765625 C 35.570312 -72.296875 36.648438 -72.0625 38.046875 -72.0625 L 58.625 -72.0625 C 58.976562 -72.0625 59.328125 -71.65625 59.671875 -70.84375 C 60.023438 -70.03125 60.203125 -69.21875 60.203125 -68.40625 C 60.203125 -66.894531 60 -65.5 59.59375 -64.21875 C 59.1875 -62.9375 58.691406 -62.296875 58.109375 -62.296875 L 41.53125 -62.296875 C 38.851562 -62.296875 37.019531 -62.003906 36.03125 -61.421875 C 35.039062 -60.835938 34.546875 -59.617188 34.546875 -57.765625 L 34.546875 -24.25 C 34.546875 -19.132812 35.535156 -15.265625 37.515625 -12.640625 C 39.492188 -10.023438 42.285156 -8.71875 45.890625 -8.71875 C 49.148438 -8.71875 51.625 -9.007812 53.3125 -9.59375 C 55 -10.175781 56.539062 -10.875 57.9375 -11.6875 C 58.28125 -11.925781 58.570312 -12.046875 58.8125 -12.046875 C 59.382812 -12.046875 59.816406 -11.695312 60.109375 -11 C 60.398438 -10.300781 60.546875 -9.539062 60.546875 -8.71875 C 60.546875 -8.144531 59.410156 -6.925781 57.140625 -5.0625 C 54.878906 -3.195312 51.914062 -1.484375 48.25 0.078125 C 44.582031 1.648438 40.65625 2.4375 36.46875 2.4375 Z M 36.46875 2.4375 "/></g></g></g><g fill="#000000" fill-opacity="1"><g transform="translate(1027.692509, 344.250003)"><g><path d="M 13.609375 49.5625 C 10.816406 49.5625 8.195312 48.660156 5.75 46.859375 C 3.3125 45.054688 2.09375 42.695312 2.09375 39.78125 C 2.09375 37.570312 2.644531 35.476562 3.75 33.5 C 4.851562 31.519531 6.507812 30.53125 8.71875 30.53125 C 10.351562 30.53125 12.015625 30.820312 13.703125 31.40625 C 15.390625 31.988281 16.988281 32.222656 18.5 32.109375 C 19.894531 31.992188 20.910156 31.671875 21.546875 31.140625 C 22.191406 30.617188 22.921875 29.660156 23.734375 28.265625 C 24.660156 26.640625 25.675781 24.863281 26.78125 22.9375 C 27.882812 21.019531 29.046875 18.722656 30.265625 16.046875 C 31.492188 13.378906 32.863281 10.179688 34.375 6.453125 C 35.425781 4.015625 35.953125 1.6875 35.953125 -0.53125 C 35.953125 -1.925781 35.773438 -3.257812 35.421875 -4.53125 C 35.078125 -5.8125 34.671875 -6.976562 34.203125 -8.03125 L 13.09375 -57.765625 C 12.15625 -60.085938 11.015625 -62.117188 9.671875 -63.859375 C 8.335938 -65.609375 6.6875 -66.773438 4.71875 -67.359375 C 3.664062 -67.828125 2.816406 -68.289062 2.171875 -68.75 C 1.535156 -69.21875 1.21875 -69.914062 1.21875 -70.84375 C 1.21875 -71.78125 1.679688 -72.332031 2.609375 -72.5 C 3.546875 -72.675781 4.363281 -72.765625 5.0625 -72.765625 C 7.738281 -72.765625 9.890625 -72.707031 11.515625 -72.59375 C 13.140625 -72.476562 14.648438 -72.359375 16.046875 -72.234375 C 17.441406 -72.117188 18.957031 -72.0625 20.59375 -72.0625 C 23.03125 -72.0625 25.003906 -72.117188 26.515625 -72.234375 C 28.035156 -72.359375 29.640625 -72.476562 31.328125 -72.59375 C 33.015625 -72.707031 35.132812 -72.765625 37.6875 -72.765625 C 38.5 -72.765625 39.367188 -72.617188 40.296875 -72.328125 C 41.234375 -72.035156 41.703125 -71.425781 41.703125 -70.5 C 41.703125 -69.570312 41.175781 -68.84375 40.125 -68.3125 C 39.082031 -67.789062 38.097656 -67.359375 37.171875 -67.015625 C 36.003906 -66.660156 35.070312 -65.988281 34.375 -65 C 33.675781 -64.007812 33.328125 -62.582031 33.328125 -60.71875 C 33.328125 -59.90625 33.5 -58.890625 33.84375 -57.671875 C 34.195312 -56.453125 34.609375 -55.144531 35.078125 -53.75 L 47.109375 -24.609375 C 47.234375 -24.140625 47.46875 -23.90625 47.8125 -23.90625 C 47.925781 -23.90625 48.101562 -24.140625 48.34375 -24.609375 L 58.28125 -53.046875 C 58.632812 -53.859375 58.953125 -54.929688 59.234375 -56.265625 C 59.523438 -57.609375 59.671875 -58.742188 59.671875 -59.671875 C 59.671875 -61.765625 59.175781 -63.363281 58.1875 -64.46875 C 57.207031 -65.582031 56.132812 -66.367188 54.96875 -66.828125 C 54.039062 -67.296875 53.050781 -67.789062 52 -68.3125 C 50.957031 -68.84375 50.4375 -69.570312 50.4375 -70.5 C 50.4375 -71.425781 50.925781 -72.035156 51.90625 -72.328125 C 52.894531 -72.617188 53.738281 -72.765625 54.4375 -72.765625 C 57 -72.765625 59.148438 -72.644531 60.890625 -72.40625 C 62.640625 -72.175781 64.679688 -72.0625 67.015625 -72.0625 C 68.523438 -72.0625 69.773438 -72.117188 70.765625 -72.234375 C 71.753906 -72.359375 72.828125 -72.476562 73.984375 -72.59375 C 75.148438 -72.707031 76.601562 -72.765625 78.34375 -72.765625 C 79.039062 -72.765625 79.882812 -72.675781 80.875 -72.5 C 81.863281 -72.332031 82.359375 -71.78125 82.359375 -70.84375 C 82.359375 -69.914062 82.035156 -69.21875 81.390625 -68.75 C 80.753906 -68.289062 79.914062 -67.828125 78.875 -67.359375 C 76.894531 -66.773438 74.972656 -65.460938 73.109375 -63.421875 C 71.253906 -61.390625 69.742188 -59.035156 68.578125 -56.359375 L 43.453125 4.359375 C 42.753906 5.992188 41.820312 8.175781 40.65625 10.90625 C 39.488281 13.632812 38.238281 16.628906 36.90625 19.890625 C 35.570312 23.148438 34.144531 26.523438 32.625 30.015625 C 31.113281 33.503906 29.660156 36.9375 28.265625 40.3125 C 26.984375 43.332031 25.035156 45.628906 22.421875 47.203125 C 19.804688 48.773438 16.867188 49.5625 13.609375 49.5625 Z M 13.609375 49.5625 "/></g></g></g><g fill="#000000" fill-opacity="1"><g transform="translate(1109.180344, 344.250003)"><g/></g></g><g fill="#000000" fill-opacity="1"><g transform="translate(1148.441084, 344.250003)"><g><path d="M 36.46875 2.796875 C 31.351562 2.796875 26.4375 1.78125 21.71875 -0.25 C 17.007812 -2.289062 13.203125 -5.171875 10.296875 -8.890625 C 7.390625 -12.617188 5.9375 -17.160156 5.9375 -22.515625 C 5.9375 -30.191406 8.4375 -37.195312 13.4375 -43.53125 C 18.4375 -49.875 25.242188 -55.023438 33.859375 -58.984375 L 37.515625 -60.71875 L 35.59375 -62.640625 C 34.4375 -63.921875 32.925781 -65.519531 31.0625 -67.4375 C 29.195312 -69.363281 27.535156 -71.691406 26.078125 -74.421875 C 24.628906 -77.160156 23.90625 -80.210938 23.90625 -83.578125 C 23.90625 -87.648438 25.210938 -91.253906 27.828125 -94.390625 C 30.453125 -97.535156 33.972656 -100.039062 38.390625 -101.90625 C 42.804688 -103.769531 47.75 -104.703125 53.21875 -104.703125 C 58.457031 -104.703125 62.96875 -103.738281 66.75 -101.8125 C 70.53125 -99.894531 73.46875 -97.453125 75.5625 -94.484375 C 77.65625 -91.523438 78.703125 -88.300781 78.703125 -84.8125 C 78.703125 -79.800781 77.039062 -75.785156 73.71875 -72.765625 C 70.40625 -69.742188 65.898438 -67.1875 60.203125 -65.09375 L 56.890625 -63.6875 L 59.859375 -60.546875 C 63.460938 -56.710938 67.007812 -53.050781 70.5 -49.5625 C 73.988281 -46.070312 77.300781 -42.40625 80.4375 -38.5625 L 83.234375 -35.25 L 85.859375 -37.859375 C 88.410156 -40.304688 90.703125 -42.953125 92.734375 -45.796875 C 94.773438 -48.648438 96.460938 -51.296875 97.796875 -53.734375 C 99.140625 -56.179688 99.8125 -57.929688 99.8125 -58.984375 C 99.8125 -60.378906 99.316406 -61.570312 98.328125 -62.5625 C 97.335938 -63.550781 96.144531 -64.21875 94.75 -64.5625 C 94.050781 -64.914062 93.378906 -65.296875 92.734375 -65.703125 C 92.097656 -66.109375 91.78125 -66.660156 91.78125 -67.359375 C 91.78125 -68.523438 92.300781 -69.191406 93.34375 -69.359375 C 94.394531 -69.535156 95.445312 -69.625 96.5 -69.625 C 97.539062 -69.625 98.960938 -69.535156 100.765625 -69.359375 C 102.578125 -69.191406 104.441406 -69.019531 106.359375 -68.84375 C 108.273438 -68.664062 110.050781 -68.578125 111.6875 -68.578125 C 113.894531 -68.578125 116.273438 -68.835938 118.828125 -69.359375 C 121.390625 -69.890625 123.863281 -70.441406 126.25 -71.015625 C 128.632812 -71.597656 130.703125 -71.890625 132.453125 -71.890625 C 133.023438 -71.890625 133.570312 -71.65625 134.09375 -71.1875 C 134.625 -70.726562 134.890625 -70.265625 134.890625 -69.796875 C 134.890625 -68.984375 134.363281 -68.140625 133.3125 -67.265625 C 132.269531 -66.398438 131.050781 -65.847656 129.65625 -65.609375 C 126.28125 -65.140625 123.367188 -64.117188 120.921875 -62.546875 C 118.484375 -60.984375 116.390625 -59.390625 114.640625 -57.765625 C 113.597656 -56.828125 112.113281 -55.398438 110.1875 -53.484375 C 108.269531 -51.566406 106.148438 -49.472656 103.828125 -47.203125 C 101.503906 -44.929688 99.207031 -42.691406 96.9375 -40.484375 C 94.664062 -38.273438 92.597656 -36.296875 90.734375 -34.546875 C 88.878906 -32.804688 87.484375 -31.53125 86.546875 -30.71875 L 89.6875 -26.703125 C 93.414062 -21.929688 96.992188 -17.972656 100.421875 -14.828125 C 103.859375 -11.691406 107.492188 -10.125 111.328125 -10.125 C 113.421875 -10.125 115.660156 -10.351562 118.046875 -10.8125 C 120.429688 -11.28125 122.726562 -11.976562 124.9375 -12.90625 C 125.519531 -13.144531 126.128906 -13.378906 126.765625 -13.609375 C 127.410156 -13.835938 128.023438 -13.953125 128.609375 -13.953125 C 129.535156 -13.953125 130.203125 -13.804688 130.609375 -13.515625 C 131.015625 -13.234375 131.21875 -12.566406 131.21875 -11.515625 C 131.21875 -10.234375 129.992188 -8.429688 127.546875 -6.109375 C 125.109375 -3.785156 121.882812 -1.75 117.875 0 C 113.863281 1.75 109.472656 2.625 104.703125 2.625 C 100.273438 2.625 96.460938 1.984375 93.265625 0.703125 C 90.066406 -0.578125 87.160156 -2.5 84.546875 -5.0625 C 81.929688 -7.625 79.109375 -10.820312 76.078125 -14.65625 L 73.296875 -18.328125 L 72.421875 -17.28125 C 68.929688 -13.320312 65.320312 -9.828125 61.59375 -6.796875 C 57.875 -3.773438 53.976562 -1.421875 49.90625 0.265625 C 45.832031 1.953125 41.351562 2.796875 36.46875 2.796875 Z M 46.59375 -12.046875 C 50.425781 -12.046875 54.144531 -12.710938 57.75 -14.046875 C 61.363281 -15.378906 64.800781 -17.789062 68.0625 -21.28125 L 69.453125 -22.6875 L 67.015625 -26 C 63.515625 -30.539062 59.757812 -35.078125 55.75 -39.609375 C 51.738281 -44.148438 47.460938 -48.863281 42.921875 -53.75 L 40.828125 -56.1875 L 37.515625 -54.4375 C 34.253906 -53.039062 31.78125 -51.179688 30.09375 -48.859375 C 28.414062 -46.535156 27.253906 -44.035156 26.609375 -41.359375 C 25.972656 -38.679688 25.65625 -35.945312 25.65625 -33.15625 C 25.65625 -26.875 27.570312 -21.785156 31.40625 -17.890625 C 35.25 -13.992188 40.3125 -12.046875 46.59375 -12.046875 Z M 53.75 -67.53125 L 55.671875 -68.921875 C 57.878906 -70.316406 59.503906 -72.523438 60.546875 -75.546875 C 61.597656 -78.578125 62.125 -81.601562 62.125 -84.625 C 62.238281 -88.351562 61.507812 -91.671875 59.9375 -94.578125 C 58.363281 -97.484375 55.832031 -98.9375 52.34375 -98.9375 C 49.789062 -98.9375 47.46875 -98.003906 45.375 -96.140625 C 43.28125 -94.285156 42.234375 -91.90625 42.234375 -89 C 42.234375 -86.207031 42.550781 -83.765625 43.1875 -81.671875 C 43.832031 -79.578125 44.789062 -77.710938 46.0625 -76.078125 C 47.34375 -74.453125 48.800781 -72.707031 50.4375 -70.84375 Z M 53.75 -67.53125 "/></g></g></g><g fill="#000000" fill-opacity="1"><g transform="translate(652.54211, 587.99999)"><g><path d="M 7.328125 0.703125 C 6.285156 0.703125 5.351562 0.492188 4.53125 0.078125 C 3.71875 -0.328125 3.3125 -0.878906 3.3125 -1.578125 C 3.3125 -3.316406 4.765625 -4.476562 7.671875 -5.0625 C 12.097656 -5.988281 15.238281 -7.265625 17.09375 -8.890625 C 18.957031 -10.523438 19.890625 -13.257812 19.890625 -17.09375 L 19.890625 -93.875 C 19.890625 -98.300781 19.160156 -101.5625 17.703125 -103.65625 C 16.253906 -105.75 13.4375 -107.257812 9.25 -108.1875 C 7.625 -108.539062 6.460938 -109.035156 5.765625 -109.671875 C 5.066406 -110.316406 4.71875 -110.988281 4.71875 -111.6875 C 4.71875 -112.5 5.09375 -113.109375 5.84375 -113.515625 C 6.601562 -113.921875 7.625 -114.125 8.90625 -114.125 C 11.695312 -114.125 14.28125 -114.09375 16.65625 -114.03125 C 19.039062 -113.976562 21.335938 -113.890625 23.546875 -113.765625 C 25.765625 -113.648438 28.035156 -113.59375 30.359375 -113.59375 C 32.921875 -113.59375 35.332031 -113.707031 37.59375 -113.9375 C 39.863281 -114.175781 42.191406 -114.410156 44.578125 -114.640625 C 46.960938 -114.878906 49.726562 -115 52.875 -115 C 66.71875 -115 77.769531 -112.085938 86.03125 -106.265625 C 94.289062 -100.453125 98.421875 -92.425781 98.421875 -82.1875 C 98.421875 -74.976562 96.9375 -68.316406 93.96875 -62.203125 C 91 -56.097656 86.460938 -51.179688 80.359375 -47.453125 C 74.253906 -43.734375 66.546875 -41.875 57.234375 -41.875 C 54.328125 -41.875 52.117188 -42.3125 50.609375 -43.1875 C 49.097656 -44.0625 48.34375 -45.019531 48.34375 -46.0625 C 48.34375 -46.757812 48.71875 -47.367188 49.46875 -47.890625 C 50.226562 -48.421875 50.898438 -48.6875 51.484375 -48.6875 C 52.523438 -48.6875 53.539062 -48.597656 54.53125 -48.421875 C 55.519531 -48.242188 57.003906 -48.15625 58.984375 -48.15625 C 64.453125 -48.15625 68.609375 -50.945312 71.453125 -56.53125 C 74.304688 -62.113281 75.734375 -69.5625 75.734375 -78.875 C 75.734375 -89.113281 73.664062 -96.585938 69.53125 -101.296875 C 65.40625 -106.003906 59.851562 -108.359375 52.875 -108.359375 C 49.613281 -108.359375 47.082031 -107.6875 45.28125 -106.34375 C 43.476562 -105.007812 42.578125 -102.890625 42.578125 -99.984375 L 42.40625 -18.140625 C 42.40625 -14.304688 43.363281 -11.425781 45.28125 -9.5 C 47.195312 -7.582031 50.484375 -6.101562 55.140625 -5.0625 C 56.648438 -4.832031 57.753906 -4.453125 58.453125 -3.921875 C 59.148438 -3.398438 59.5 -2.675781 59.5 -1.75 C 59.5 -0.9375 59.175781 -0.351562 58.53125 0 C 57.894531 0.351562 56.941406 0.53125 55.671875 0.53125 C 52.992188 0.53125 50.257812 0.441406 47.46875 0.265625 C 44.675781 0.0859375 41.96875 -0.0546875 39.34375 -0.171875 C 36.726562 -0.285156 34.257812 -0.34375 31.9375 -0.34375 C 29.375 -0.34375 26.722656 -0.285156 23.984375 -0.171875 C 21.253906 -0.0546875 18.492188 0.113281 15.703125 0.34375 C 12.910156 0.582031 10.117188 0.703125 7.328125 0.703125 Z M 7.328125 0.703125 "/></g></g></g><g fill="#000000" fill-opacity="1"><g transform="translate(755.318003, 587.99999)"><g><path d="M 61.59375 3.484375 C 60.664062 3.484375 60.203125 2.960938 60.203125 1.921875 C 60.203125 0.640625 60.347656 -1.160156 60.640625 -3.484375 C 60.929688 -5.816406 61.078125 -7.679688 61.078125 -9.078125 C 61.078125 -9.421875 61.046875 -9.738281 60.984375 -10.03125 C 60.929688 -10.320312 60.90625 -10.523438 60.90625 -10.640625 C 57.289062 -6.691406 53.066406 -3.492188 48.234375 -1.046875 C 43.410156 1.398438 38.328125 2.625 32.984375 2.625 C 29.253906 2.625 25.90625 1.632812 22.9375 -0.34375 C 19.976562 -2.320312 17.65625 -5.054688 15.96875 -8.546875 C 14.28125 -12.035156 13.4375 -16.109375 13.4375 -20.765625 L 13.4375 -54.265625 C 13.4375 -56.941406 12.910156 -59.066406 11.859375 -60.640625 C 10.816406 -62.210938 8.957031 -63.40625 6.28125 -64.21875 C 5.582031 -64.332031 4.972656 -64.617188 4.453125 -65.078125 C 3.929688 -65.546875 3.671875 -66.25 3.671875 -67.1875 C 3.671875 -68.113281 3.929688 -68.804688 4.453125 -69.265625 C 4.972656 -69.734375 5.582031 -70.03125 6.28125 -70.15625 C 10.9375 -70.382812 14.953125 -70.816406 18.328125 -71.453125 C 21.703125 -72.097656 25.304688 -72.882812 29.140625 -73.8125 C 29.609375 -74.039062 30.070312 -74.210938 30.53125 -74.328125 C 31 -74.453125 31.46875 -74.515625 31.9375 -74.515625 C 33.445312 -74.515625 34.144531 -73.695312 34.03125 -72.0625 C 33.675781 -69.394531 33.382812 -67.15625 33.15625 -65.34375 C 32.925781 -63.539062 32.8125 -61.300781 32.8125 -58.625 L 32.8125 -24.953125 C 32.8125 -22.160156 33.332031 -19.660156 34.375 -17.453125 C 35.425781 -15.242188 36.878906 -13.5 38.734375 -12.21875 C 40.597656 -10.9375 42.632812 -10.238281 44.84375 -10.125 C 47.050781 -10.125 49.113281 -10.351562 51.03125 -10.8125 C 52.957031 -11.28125 54.851562 -12.328125 56.71875 -13.953125 C 57.644531 -14.648438 58.6875 -15.957031 59.84375 -17.875 C 61.007812 -19.800781 61.59375 -22.335938 61.59375 -25.484375 L 61.59375 -54.796875 C 61.59375 -57.003906 61.097656 -58.773438 60.109375 -60.109375 C 59.117188 -61.453125 57.835938 -62.472656 56.265625 -63.171875 C 54.703125 -63.867188 53.109375 -64.21875 51.484375 -64.21875 C 50.203125 -64.332031 49.210938 -64.617188 48.515625 -65.078125 C 47.816406 -65.546875 47.46875 -66.476562 47.46875 -67.875 C 47.46875 -69.039062 47.875 -69.851562 48.6875 -70.3125 C 49.5 -70.78125 50.429688 -71.015625 51.484375 -71.015625 C 56.597656 -71.367188 60.722656 -71.660156 63.859375 -71.890625 C 67.003906 -72.128906 69.648438 -72.421875 71.796875 -72.765625 C 73.953125 -73.117188 76.078125 -73.582031 78.171875 -74.15625 C 78.523438 -74.28125 78.90625 -74.367188 79.3125 -74.421875 C 79.71875 -74.484375 80.035156 -74.515625 80.265625 -74.515625 C 81.898438 -74.515625 82.71875 -73.875 82.71875 -72.59375 C 82.71875 -72.238281 82.6875 -71.859375 82.625 -71.453125 C 82.5625 -71.046875 82.414062 -70.613281 82.1875 -70.15625 C 82.070312 -69.800781 81.925781 -68.804688 81.75 -67.171875 C 81.570312 -65.546875 81.394531 -63.859375 81.21875 -62.109375 C 81.050781 -60.367188 80.96875 -59.035156 80.96875 -58.109375 L 80.96875 -17.625 C 80.96875 -14.832031 81.285156 -12.910156 81.921875 -11.859375 C 82.566406 -10.816406 83.296875 -10.296875 84.109375 -10.296875 C 84.804688 -10.296875 85.820312 -10.320312 87.15625 -10.375 C 88.5 -10.4375 89.460938 -10.46875 90.046875 -10.46875 C 90.972656 -10.46875 91.726562 -10.234375 92.3125 -9.765625 C 92.894531 -9.304688 93.1875 -8.550781 93.1875 -7.5 C 93.1875 -6.457031 92.984375 -5.671875 92.578125 -5.140625 C 92.171875 -4.617188 91.441406 -4.300781 90.390625 -4.1875 C 85.148438 -3.71875 80.492188 -2.8125 76.421875 -1.46875 C 72.359375 -0.132812 68.8125 1.164062 65.78125 2.4375 C 65.082031 2.675781 64.351562 2.910156 63.59375 3.140625 C 62.84375 3.367188 62.175781 3.484375 61.59375 3.484375 Z M 61.59375 3.484375 "/></g></g></g><g fill="#000000" fill-opacity="1"><g transform="translate(850.067262, 587.99999)"><g><path d="M 7.671875 0.53125 C 6.742188 0.53125 5.929688 0.328125 5.234375 -0.078125 C 4.535156 -0.492188 4.1875 -1.050781 4.1875 -1.75 C 4.1875 -2.675781 4.5625 -3.367188 5.3125 -3.828125 C 6.070312 -4.296875 7.035156 -4.707031 8.203125 -5.0625 C 10.640625 -5.757812 12.351562 -6.601562 13.34375 -7.59375 C 14.332031 -8.582031 14.828125 -9.945312 14.828125 -11.6875 L 14.828125 -50.953125 C 14.828125 -53.628906 14.445312 -55.867188 13.6875 -57.671875 C 12.9375 -59.472656 11.34375 -60.664062 8.90625 -61.25 C 8.4375 -61.476562 7.96875 -61.796875 7.5 -62.203125 C 7.039062 -62.609375 6.8125 -63.222656 6.8125 -64.046875 C 6.8125 -65.554688 7.445312 -66.484375 8.71875 -66.828125 C 12.207031 -67.765625 15.988281 -69.015625 20.0625 -70.578125 C 24.132812 -72.148438 27.566406 -73.691406 30.359375 -75.203125 C 30.941406 -75.554688 31.582031 -75.90625 32.28125 -76.25 C 32.976562 -76.601562 33.503906 -76.78125 33.859375 -76.78125 C 34.785156 -76.78125 35.25 -76.195312 35.25 -75.03125 C 35.25 -74.570312 35.21875 -73.523438 35.15625 -71.890625 C 35.101562 -70.265625 35.046875 -68.488281 34.984375 -66.5625 C 34.929688 -64.644531 34.84375 -62.929688 34.71875 -61.421875 C 34.71875 -60.722656 34.894531 -60.375 35.25 -60.375 C 37.113281 -62.820312 39.207031 -65.09375 41.53125 -67.1875 C 43.851562 -69.28125 46.320312 -71.023438 48.9375 -72.421875 C 51.5625 -73.816406 54.210938 -74.515625 56.890625 -74.515625 C 60.265625 -74.515625 62.796875 -73.816406 64.484375 -72.421875 C 66.171875 -71.023438 67.015625 -69.28125 67.015625 -67.1875 C 67.015625 -65.550781 66.578125 -63.800781 65.703125 -61.9375 C 64.828125 -60.082031 63.71875 -58.484375 62.375 -57.140625 C 61.039062 -55.804688 59.5625 -55.140625 57.9375 -55.140625 C 57 -55.140625 56.003906 -55.34375 54.953125 -55.75 C 53.910156 -56.15625 52.867188 -56.648438 51.828125 -57.234375 C 50.773438 -57.703125 49.695312 -58.164062 48.59375 -58.625 C 47.488281 -59.09375 46.472656 -59.328125 45.546875 -59.328125 C 42.640625 -59.328125 40.019531 -58.25 37.6875 -56.09375 C 35.363281 -53.945312 34.203125 -49.734375 34.203125 -43.453125 L 34.203125 -12.734375 C 34.203125 -10.640625 34.957031 -9.039062 36.46875 -7.9375 C 37.976562 -6.832031 40.304688 -5.816406 43.453125 -4.890625 C 44.734375 -4.535156 45.691406 -4.15625 46.328125 -3.75 C 46.972656 -3.34375 47.296875 -2.675781 47.296875 -1.75 C 47.296875 -0.226562 46.25 0.53125 44.15625 0.53125 C 40.65625 0.53125 37.363281 0.382812 34.28125 0.09375 C 31.207031 -0.195312 28.15625 -0.34375 25.125 -0.34375 C 23.144531 -0.34375 21.253906 -0.285156 19.453125 -0.171875 C 17.648438 -0.0546875 15.816406 0.0859375 13.953125 0.265625 C 12.097656 0.441406 10.003906 0.53125 7.671875 0.53125 Z M 7.671875 0.53125 "/></g></g></g><g fill="#000000" fill-opacity="1"><g transform="translate(917.770231, 587.99999)"><g><path d="M 6.984375 0.53125 C 6.046875 0.53125 5.285156 0.328125 4.703125 -0.078125 C 4.128906 -0.492188 3.84375 -1.050781 3.84375 -1.75 C 3.84375 -2.675781 4.191406 -3.367188 4.890625 -3.828125 C 5.585938 -4.296875 6.398438 -4.648438 7.328125 -4.890625 C 10.117188 -5.585938 12.125 -6.34375 13.34375 -7.15625 C 14.570312 -7.96875 15.1875 -9.363281 15.1875 -11.34375 L 15.1875 -49.203125 C 15.1875 -52.929688 14.601562 -55.722656 13.4375 -57.578125 C 12.269531 -59.441406 10.289062 -60.609375 7.5 -61.078125 C 6.914062 -61.191406 6.445312 -61.507812 6.09375 -62.03125 C 5.75 -62.550781 5.578125 -63.160156 5.578125 -63.859375 C 5.578125 -65.492188 6.21875 -66.367188 7.5 -66.484375 C 13.082031 -67.648438 17.9375 -69.25 22.0625 -71.28125 C 26.195312 -73.320312 29.367188 -74.921875 31.578125 -76.078125 C 33.210938 -76.890625 34.257812 -77.296875 34.71875 -77.296875 C 36 -77.296875 36.640625 -76.71875 36.640625 -75.5625 C 36.523438 -73.925781 36.289062 -71.679688 35.9375 -68.828125 C 35.59375 -65.984375 35.273438 -62.960938 34.984375 -59.765625 C 34.691406 -56.566406 34.546875 -53.570312 34.546875 -50.78125 L 34.546875 -11.515625 C 34.546875 -9.773438 35.1875 -8.4375 36.46875 -7.5 C 37.75 -6.570312 39.785156 -5.703125 42.578125 -4.890625 C 43.503906 -4.535156 44.316406 -4.15625 45.015625 -3.75 C 45.710938 -3.34375 46.0625 -2.675781 46.0625 -1.75 C 46.0625 -0.351562 45.070312 0.34375 43.09375 0.34375 C 40.882812 0.34375 38.757812 0.285156 36.71875 0.171875 C 34.6875 0.0546875 32.710938 -0.0546875 30.796875 -0.171875 C 28.878906 -0.285156 26.875 -0.34375 24.78125 -0.34375 C 22.800781 -0.34375 20.878906 -0.285156 19.015625 -0.171875 C 17.160156 -0.0546875 15.269531 0.0859375 13.34375 0.265625 C 11.425781 0.441406 9.304688 0.53125 6.984375 0.53125 Z M 24.4375 -87.421875 C 21.0625 -87.421875 18.207031 -88.582031 15.875 -90.90625 C 13.550781 -93.238281 12.390625 -96.035156 12.390625 -99.296875 C 12.390625 -102.898438 13.550781 -105.863281 15.875 -108.1875 C 18.207031 -110.519531 21.0625 -111.6875 24.4375 -111.6875 C 27.925781 -111.6875 30.832031 -110.519531 33.15625 -108.1875 C 35.488281 -105.863281 36.65625 -102.898438 36.65625 -99.296875 C 36.65625 -96.035156 35.488281 -93.238281 33.15625 -90.90625 C 30.832031 -88.582031 27.925781 -87.421875 24.4375 -87.421875 Z M 24.4375 -87.421875 "/></g></g></g><g fill="#000000" fill-opacity="1"><g transform="translate(966.453533, 587.99999)"><g><path d="M 36.46875 2.4375 C 29.488281 2.4375 24.195312 0.578125 20.59375 -3.140625 C 16.988281 -6.859375 15.1875 -12.269531 15.1875 -19.375 L 15.1875 -59.671875 C 15.1875 -60.609375 14.804688 -61.304688 14.046875 -61.765625 C 13.285156 -62.234375 11.800781 -62.523438 9.59375 -62.640625 L 7.671875 -62.640625 C 6.972656 -62.640625 6.390625 -63.191406 5.921875 -64.296875 C 5.460938 -65.410156 5.234375 -66.488281 5.234375 -67.53125 C 5.234375 -67.757812 5.320312 -68.078125 5.5 -68.484375 C 5.675781 -68.898438 5.9375 -69.164062 6.28125 -69.28125 C 8.957031 -70.4375 11.691406 -72.03125 14.484375 -74.0625 C 17.273438 -76.101562 19.890625 -78.195312 22.328125 -80.34375 C 24.773438 -82.5 26.8125 -84.335938 28.4375 -85.859375 C 29.257812 -86.429688 29.929688 -86.953125 30.453125 -87.421875 C 30.972656 -87.890625 31.582031 -88.125 32.28125 -88.125 C 33.207031 -88.125 33.929688 -87.921875 34.453125 -87.515625 C 34.984375 -87.109375 35.132812 -86.320312 34.90625 -85.15625 L 33.859375 -75.5625 C 33.734375 -74.164062 34.050781 -73.234375 34.8125 -72.765625 C 35.570312 -72.296875 36.648438 -72.0625 38.046875 -72.0625 L 58.625 -72.0625 C 58.976562 -72.0625 59.328125 -71.65625 59.671875 -70.84375 C 60.023438 -70.03125 60.203125 -69.21875 60.203125 -68.40625 C 60.203125 -66.894531 60 -65.5 59.59375 -64.21875 C 59.1875 -62.9375 58.691406 -62.296875 58.109375 -62.296875 L 41.53125 -62.296875 C 38.851562 -62.296875 37.019531 -62.003906 36.03125 -61.421875 C 35.039062 -60.835938 34.546875 -59.617188 34.546875 -57.765625 L 34.546875 -24.25 C 34.546875 -19.132812 35.535156 -15.265625 37.515625 -12.640625 C 39.492188 -10.023438 42.285156 -8.71875 45.890625 -8.71875 C 49.148438 -8.71875 51.625 -9.007812 53.3125 -9.59375 C 55 -10.175781 56.539062 -10.875 57.9375 -11.6875 C 58.28125 -11.925781 58.570312 -12.046875 58.8125 -12.046875 C 59.382812 -12.046875 59.816406 -11.695312 60.109375 -11 C 60.398438 -10.300781 60.546875 -9.539062 60.546875 -8.71875 C 60.546875 -8.144531 59.410156 -6.925781 57.140625 -5.0625 C 54.878906 -3.195312 51.914062 -1.484375 48.25 0.078125 C 44.582031 1.648438 40.65625 2.4375 36.46875 2.4375 Z M 36.46875 2.4375 "/></g></g></g><g fill="#000000" fill-opacity="1"><g transform="translate(1028.398247, 587.99999)"><g><path d="M 13.609375 49.5625 C 10.816406 49.5625 8.195312 48.660156 5.75 46.859375 C 3.3125 45.054688 2.09375 42.695312 2.09375 39.78125 C 2.09375 37.570312 2.644531 35.476562 3.75 33.5 C 4.851562 31.519531 6.507812 30.53125 8.71875 30.53125 C 10.351562 30.53125 12.015625 30.820312 13.703125 31.40625 C 15.390625 31.988281 16.988281 32.222656 18.5 32.109375 C 19.894531 31.992188 20.910156 31.671875 21.546875 31.140625 C 22.191406 30.617188 22.921875 29.660156 23.734375 28.265625 C 24.660156 26.640625 25.675781 24.863281 26.78125 22.9375 C 27.882812 21.019531 29.046875 18.722656 30.265625 16.046875 C 31.492188 13.378906 32.863281 10.179688 34.375 6.453125 C 35.425781 4.015625 35.953125 1.6875 35.953125 -0.53125 C 35.953125 -1.925781 35.773438 -3.257812 35.421875 -4.53125 C 35.078125 -5.8125 34.671875 -6.976562 34.203125 -8.03125 L 13.09375 -57.765625 C 12.15625 -60.085938 11.015625 -62.117188 9.671875 -63.859375 C 8.335938 -65.609375 6.6875 -66.773438 4.71875 -67.359375 C 3.664062 -67.828125 2.816406 -68.289062 2.171875 -68.75 C 1.535156 -69.21875 1.21875 -69.914062 1.21875 -70.84375 C 1.21875 -71.78125 1.679688 -72.332031 2.609375 -72.5 C 3.546875 -72.675781 4.363281 -72.765625 5.0625 -72.765625 C 7.738281 -72.765625 9.890625 -72.707031 11.515625 -72.59375 C 13.140625 -72.476562 14.648438 -72.359375 16.046875 -72.234375 C 17.441406 -72.117188 18.957031 -72.0625 20.59375 -72.0625 C 23.03125 -72.0625 25.003906 -72.117188 26.515625 -72.234375 C 28.035156 -72.359375 29.640625 -72.476562 31.328125 -72.59375 C 33.015625 -72.707031 35.132812 -72.765625 37.6875 -72.765625 C 38.5 -72.765625 39.367188 -72.617188 40.296875 -72.328125 C 41.234375 -72.035156 41.703125 -71.425781 41.703125 -70.5 C 41.703125 -69.570312 41.175781 -68.84375 40.125 -68.3125 C 39.082031 -67.789062 38.097656 -67.359375 37.171875 -67.015625 C 36.003906 -66.660156 35.070312 -65.988281 34.375 -65 C 33.675781 -64.007812 33.328125 -62.582031 33.328125 -60.71875 C 33.328125 -59.90625 33.5 -58.890625 33.84375 -57.671875 C 34.195312 -56.453125 34.609375 -55.144531 35.078125 -53.75 L 47.109375 -24.609375 C 47.234375 -24.140625 47.46875 -23.90625 47.8125 -23.90625 C 47.925781 -23.90625 48.101562 -24.140625 48.34375 -24.609375 L 58.28125 -53.046875 C 58.632812 -53.859375 58.953125 -54.929688 59.234375 -56.265625 C 59.523438 -57.609375 59.671875 -58.742188 59.671875 -59.671875 C 59.671875 -61.765625 59.175781 -63.363281 58.1875 -64.46875 C 57.207031 -65.582031 56.132812 -66.367188 54.96875 -66.828125 C 54.039062 -67.296875 53.050781 -67.789062 52 -68.3125 C 50.957031 -68.84375 50.4375 -69.570312 50.4375 -70.5 C 50.4375 -71.425781 50.925781 -72.035156 51.90625 -72.328125 C 52.894531 -72.617188 53.738281 -72.765625 54.4375 -72.765625 C 57 -72.765625 59.148438 -72.644531 60.890625 -72.40625 C 62.640625 -72.175781 64.679688 -72.0625 67.015625 -72.0625 C 68.523438 -72.0625 69.773438 -72.117188 70.765625 -72.234375 C 71.753906 -72.359375 72.828125 -72.476562 73.984375 -72.59375 C 75.148438 -72.707031 76.601562 -72.765625 78.34375 -72.765625 C 79.039062 -72.765625 79.882812 -72.675781 80.875 -72.5 C 81.863281 -72.332031 82.359375 -71.78125 82.359375 -70.84375 C 82.359375 -69.914062 82.035156 -69.21875 81.390625 -68.75 C 80.753906 -68.289062 79.914062 -67.828125 78.875 -67.359375 C 76.894531 -66.773438 74.972656 -65.460938 73.109375 -63.421875 C 71.253906 -61.390625 69.742188 -59.035156 68.578125 -56.359375 L 43.453125 4.359375 C 42.753906 5.992188 41.820312 8.175781 40.65625 10.90625 C 39.488281 13.632812 38.238281 16.628906 36.90625 19.890625 C 35.570312 23.148438 34.144531 26.523438 32.625 30.015625 C 31.113281 33.503906 29.660156 36.9375 28.265625 40.3125 C 26.984375 43.332031 25.035156 45.628906 22.421875 47.203125 C 19.804688 48.773438 16.867188 49.5625 13.609375 49.5625 Z M 13.609375 49.5625 "/></g></g></g></svg>