<svg xmlns="http://www.w3.org/2000/svg" xmlns:xlink="http://www.w3.org/1999/xlink" width="1920" zoomAndPan="magnify" viewBox="0 0 1440 809.999993" height="1080" preserveAspectRatio="xMidYMid meet" version="1.0"><defs><g/><clipPath id="5a7c2d6e84"><path d="M 38.25 0 L 1401.75 0 C 1411.894531 0 1421.625 4.03125 1428.796875 11.203125 C 1435.96875 18.375 1440 28.105469 1440 38.25 L 1440 771.75 C 1440 781.894531 1435.96875 791.625 1428.796875 798.796875 C 1421.625 805.96875 1411.894531 810 1401.75 810 L 38.25 810 C 28.105469 810 18.375 805.96875 11.203125 798.796875 C 4.03125 791.625 0 781.894531 0 771.75 L 0 38.25 C 0 28.105469 4.03125 18.375 11.203125 11.203125 C 18.375 4.03125 28.105469 0 38.25 0 Z M 38.25 0 " clip-rule="nonzero"/></clipPath><clipPath id="32804cac09"><path d="M 81 180.007812 L 530.984375 180.007812 L 530.984375 629.992188 L 81 629.992188 Z M 81 180.007812 " clip-rule="nonzero"/></clipPath><clipPath id="6690cc1753"><path d="M 305.992188 180.007812 L 377.585938 333.410156 L 530.984375 405 L 377.585938 476.59375 L 305.992188 629.992188 L 234.402344 476.59375 L 81 405 L 234.402344 333.410156 Z M 305.992188 180.007812 " clip-rule="nonzero"/></clipPath><clipPath id="40c44c6af8"><path d="M 81 180.007812 L 530.976562 180.007812 L 530.976562 629.984375 L 81 629.984375 Z M 81 180.007812 " clip-rule="nonzero"/></clipPath><clipPath id="cffd0f6672"><path d="M 305.988281 180.007812 L 377.578125 333.40625 L 530.976562 404.996094 L 377.578125 476.585938 L 305.988281 629.984375 L 234.398438 476.585938 L 81 404.996094 L 234.398438 333.40625 Z M 305.988281 180.007812 " clip-rule="nonzero"/></clipPath></defs><g clip-path="url(#5a7c2d6e84)"><path fill="#ffffff" d="M 0 0 L 1439.648438 0 L 1439.648438 810 L 0 810 Z M 0 0 " fill-opacity="1" fill-rule="nonzero"/><path stroke-linecap="butt" transform="matrix(0.75, 0, 0, 0.75, 0.0000126595, 0.00002)" fill="none" stroke-linejoin="miter" d="M 50.999986 -0.0000266667 L 1869.000077 -0.0000266667 C 1882.526119 -0.0000266667 1895.500078 5.374974 1905.062579 14.937474 C 1914.625079 24.499975 1920.00008 37.473934 1920.00008 50.999976 L 1920.00008 1029.000025 C 1920.00008 1042.526067 1914.625079 1055.500026 1905.062579 1065.062527 C 1895.500078 1074.625027 1882.526119 1080.000028 1869.000077 1080.000028 L 50.999986 1080.000028 C 37.473943 1080.000028 24.499984 1074.625027 14.937484 1065.062527 C 5.374983 1055.500026 -0.0000168794 1042.526067 -0.0000168794 1029.000025 L -0.0000168794 50.999976 C -0.0000168794 37.473934 5.374983 24.499975 14.937484 14.937474 C 24.499984 5.374974 37.473943 -0.0000266667 50.999986 -0.0000266667 Z M 50.999986 -0.0000266667 " stroke="#000000" stroke-width="40" stroke-opacity="1" stroke-miterlimit="4"/></g><g fill="#000000" fill-opacity="1"><g transform="translate(487.120239, 344.250003)"><g><path d="M 37.34375 2.625 C 32.34375 2.625 27.601562 1.984375 23.125 0.703125 C 18.644531 -0.578125 14.539062 -2.5 10.8125 -5.0625 C 10.113281 -5.644531 9.472656 -6.253906 8.890625 -6.890625 C 8.316406 -7.535156 7.851562 -8.265625 7.5 -9.078125 C 6.570312 -11.984375 5.929688 -15.554688 5.578125 -19.796875 C 5.234375 -24.046875 5.117188 -28.148438 5.234375 -32.109375 C 5.234375 -32.921875 5.550781 -33.5 6.1875 -33.84375 C 6.832031 -34.195312 7.617188 -34.375 8.546875 -34.375 C 9.484375 -34.375 10.210938 -34.226562 10.734375 -33.9375 C 11.253906 -33.644531 11.628906 -33.09375 11.859375 -32.28125 C 14.421875 -23.550781 18.144531 -16.742188 23.03125 -11.859375 C 27.914062 -6.972656 33.441406 -4.53125 39.609375 -4.53125 C 43.453125 -4.53125 46.707031 -5.398438 49.375 -7.140625 C 52.050781 -8.890625 54.085938 -11.160156 55.484375 -13.953125 C 56.878906 -16.742188 57.578125 -19.769531 57.578125 -23.03125 C 57.578125 -27.101562 56.847656 -30.476562 55.390625 -33.15625 C 53.941406 -35.832031 51.765625 -38.242188 48.859375 -40.390625 C 45.953125 -42.546875 42.285156 -44.847656 37.859375 -47.296875 C 33.097656 -50.085938 28.445312 -53.019531 23.90625 -56.09375 C 19.363281 -59.175781 15.640625 -62.84375 12.734375 -67.09375 C 9.828125 -71.34375 8.375 -76.609375 8.375 -82.890625 C 8.375 -89.398438 10.03125 -95.125 13.34375 -100.0625 C 16.664062 -105.007812 21.289062 -108.878906 27.21875 -111.671875 C 33.15625 -114.472656 40.019531 -115.875 47.8125 -115.875 C 52.113281 -115.875 56.125 -115.40625 59.84375 -114.46875 C 63.570312 -113.539062 66.539062 -112.613281 68.75 -111.6875 C 70.03125 -111.21875 70.988281 -110.632812 71.625 -109.9375 C 72.269531 -109.238281 72.765625 -108.132812 73.109375 -106.625 C 73.804688 -104.175781 74.414062 -101.265625 74.9375 -97.890625 C 75.46875 -94.515625 75.734375 -90.96875 75.734375 -87.25 C 75.734375 -85.851562 74.6875 -85.15625 72.59375 -85.15625 C 71.664062 -85.15625 70.734375 -85.382812 69.796875 -85.84375 C 68.867188 -86.3125 68.289062 -86.957031 68.0625 -87.78125 C 65.957031 -94.519531 63.070312 -99.632812 59.40625 -103.125 C 55.75 -106.613281 51.242188 -108.359375 45.890625 -108.359375 C 42.285156 -108.359375 39.203125 -107.75 36.640625 -106.53125 C 34.085938 -105.3125 32.050781 -103.453125 30.53125 -100.953125 C 29.019531 -98.453125 28.265625 -95.222656 28.265625 -91.265625 C 28.265625 -88.234375 29.28125 -85.4375 31.3125 -82.875 C 33.351562 -80.320312 36.207031 -77.820312 39.875 -75.375 C 43.539062 -72.9375 47.640625 -70.265625 52.171875 -67.359375 C 57.753906 -64.097656 62.4375 -60.8125 66.21875 -57.5 C 70 -54.1875 72.878906 -50.519531 74.859375 -46.5 C 76.835938 -42.488281 77.828125 -37.75 77.828125 -32.28125 C 77.828125 -24.601562 76.140625 -18.175781 72.765625 -13 C 69.390625 -7.820312 64.675781 -3.921875 58.625 -1.296875 C 52.582031 1.316406 45.488281 2.625 37.34375 2.625 Z M 37.34375 2.625 "/></g></g></g><g fill="#000000" fill-opacity="1"><g transform="translate(571.574451, 344.250003)"><g><path d="M 21.8125 2.4375 C 19.019531 2.4375 16.375 1.679688 13.875 0.171875 C 11.375 -1.335938 9.363281 -3.3125 7.84375 -5.75 C 6.332031 -8.195312 5.578125 -10.703125 5.578125 -13.265625 C 5.578125 -17.210938 6.738281 -20.4375 9.0625 -22.9375 C 11.394531 -25.445312 14.890625 -27.691406 19.546875 -29.671875 L 35.765625 -36.640625 C 38.097656 -37.578125 39.523438 -38.453125 40.046875 -39.265625 C 40.566406 -40.078125 40.828125 -41.585938 40.828125 -43.796875 L 41.1875 -54.09375 C 41.300781 -57.351562 40.628906 -59.96875 39.171875 -61.9375 C 37.722656 -63.914062 35.539062 -64.90625 32.625 -64.90625 C 31.113281 -64.90625 29.546875 -64.613281 27.921875 -64.03125 C 26.296875 -63.457031 25.015625 -62.703125 24.078125 -61.765625 C 23.617188 -61.304688 23.300781 -60.695312 23.125 -59.9375 C 22.945312 -59.1875 22.859375 -58.460938 22.859375 -57.765625 C 22.859375 -57.179688 22.882812 -56.453125 22.9375 -55.578125 C 23 -54.703125 23.03125 -53.914062 23.03125 -53.21875 C 23.03125 -52.519531 22.15625 -51.644531 20.40625 -50.59375 C 18.664062 -49.550781 16.691406 -48.625 14.484375 -47.8125 C 12.273438 -47 10.414062 -46.59375 8.90625 -46.59375 C 8.082031 -46.59375 7.4375 -46.882812 6.96875 -47.46875 C 6.507812 -48.050781 6.28125 -48.75 6.28125 -49.5625 C 6.28125 -51.414062 6.890625 -53.300781 8.109375 -55.21875 C 9.335938 -57.144531 11.285156 -59.210938 13.953125 -61.421875 C 16.867188 -63.867188 20.070312 -66.050781 23.5625 -67.96875 C 27.050781 -69.882812 30.453125 -71.425781 33.765625 -72.59375 C 37.078125 -73.757812 39.957031 -74.34375 42.40625 -74.34375 C 47.988281 -74.34375 52.46875 -72.507812 55.84375 -68.84375 C 59.21875 -65.175781 60.84375 -60.375 60.71875 -54.4375 L 59.859375 -17.09375 C 59.734375 -14.539062 60.222656 -12.390625 61.328125 -10.640625 C 62.441406 -8.898438 63.8125 -8.03125 65.4375 -8.03125 C 67.882812 -8.03125 69.863281 -8.726562 71.375 -10.125 C 71.832031 -10.582031 72.238281 -10.8125 72.59375 -10.8125 C 73.175781 -10.8125 73.671875 -10.609375 74.078125 -10.203125 C 74.484375 -9.796875 74.6875 -9.300781 74.6875 -8.71875 C 74.6875 -7.445312 73.753906 -5.878906 71.890625 -4.015625 C 69.796875 -1.921875 67.554688 -0.320312 65.171875 0.78125 C 62.785156 1.882812 60.429688 2.4375 58.109375 2.4375 C 51.941406 2.4375 46.9375 -0.757812 43.09375 -7.15625 L 42.578125 -7.15625 C 38.734375 -3.78125 35.210938 -1.335938 32.015625 0.171875 C 28.816406 1.679688 25.414062 2.4375 21.8125 2.4375 Z M 31.40625 -8.03125 C 33.039062 -8.03125 34.4375 -8.289062 35.59375 -8.8125 C 36.757812 -9.332031 37.75 -10.0625 38.5625 -11 C 39.03125 -11.570312 39.410156 -12.265625 39.703125 -13.078125 C 39.992188 -13.898438 40.195312 -15.066406 40.3125 -16.578125 L 40.65625 -27.75 C 40.769531 -28.90625 40.648438 -29.6875 40.296875 -30.09375 C 39.953125 -30.507812 39.550781 -30.71875 39.09375 -30.71875 C 38.851562 -30.71875 38.5 -30.6875 38.03125 -30.625 C 37.570312 -30.5625 37.050781 -30.359375 36.46875 -30.015625 C 32.164062 -28.265625 29.082031 -26.398438 27.21875 -24.421875 C 25.363281 -22.453125 24.4375 -19.894531 24.4375 -16.75 C 24.4375 -13.613281 25.191406 -11.375 26.703125 -10.03125 C 28.210938 -8.695312 29.78125 -8.03125 31.40625 -8.03125 Z M 31.40625 -8.03125 "/></g></g></g><g fill="#000000" fill-opacity="1"><g transform="translate(645.733627, 344.250003)"><g><path d="M 6.453125 47.109375 C 5.753906 47.109375 5 46.929688 4.1875 46.578125 C 3.375 46.234375 2.96875 45.65625 2.96875 44.84375 C 2.96875 43.914062 3.375 43.21875 4.1875 42.75 C 5 42.28125 5.929688 41.875 6.984375 41.53125 C 9.191406 40.832031 10.90625 40.046875 12.125 39.171875 C 13.34375 38.296875 13.953125 36.875 13.953125 34.90625 L 13.953125 -50.4375 C 13.953125 -51.59375 13.660156 -52.957031 13.078125 -54.53125 C 12.503906 -56.101562 11.664062 -57.554688 10.5625 -58.890625 C 9.457031 -60.234375 8.03125 -61.019531 6.28125 -61.25 C 5.695312 -61.476562 5.257812 -61.796875 4.96875 -62.203125 C 4.675781 -62.609375 4.53125 -63.28125 4.53125 -64.21875 C 4.53125 -65.03125 4.675781 -65.640625 4.96875 -66.046875 C 5.257812 -66.453125 5.640625 -66.710938 6.109375 -66.828125 C 10.296875 -67.765625 14.484375 -68.957031 18.671875 -70.40625 C 22.859375 -71.863281 26.523438 -73.289062 29.671875 -74.6875 C 30.015625 -74.800781 30.359375 -75.003906 30.703125 -75.296875 C 31.054688 -75.585938 31.410156 -75.734375 31.765625 -75.734375 C 32.335938 -75.734375 32.710938 -75.53125 32.890625 -75.125 C 33.066406 -74.71875 33.15625 -74.222656 33.15625 -73.640625 C 33.15625 -72.710938 33.007812 -71.171875 32.71875 -69.015625 C 32.425781 -66.859375 32.28125 -65.023438 32.28125 -63.515625 C 32.28125 -62.347656 32.394531 -61.707031 32.625 -61.59375 C 33.789062 -62.757812 35.859375 -64.300781 38.828125 -66.21875 C 41.796875 -68.144531 45.226562 -69.863281 49.125 -71.375 C 53.019531 -72.882812 56.769531 -73.640625 60.375 -73.640625 C 66.539062 -73.640625 71.804688 -71.976562 76.171875 -68.65625 C 80.535156 -65.34375 83.878906 -61.097656 86.203125 -55.921875 C 88.523438 -50.742188 89.6875 -45.363281 89.6875 -39.78125 C 89.6875 -34.4375 88.664062 -29.234375 86.625 -24.171875 C 84.59375 -19.109375 81.71875 -14.539062 78 -10.46875 C 74.28125 -6.394531 70.003906 -3.132812 65.171875 -0.6875 C 60.347656 1.75 55.144531 2.96875 49.5625 2.96875 C 48.164062 2.96875 46.503906 2.765625 44.578125 2.359375 C 42.660156 1.953125 40.742188 1.425781 38.828125 0.78125 C 36.910156 0.144531 35.253906 -0.578125 33.859375 -1.390625 C 33.734375 -1.390625 33.613281 -1.066406 33.5 -0.421875 C 33.382812 0.210938 33.296875 0.9375 33.234375 1.75 C 33.179688 2.5625 33.15625 3.203125 33.15625 3.671875 L 33.15625 33.859375 C 33.15625 35.367188 33.617188 36.617188 34.546875 37.609375 C 35.484375 38.597656 36.648438 39.378906 38.046875 39.953125 C 39.441406 40.535156 41.007812 41.0625 42.75 41.53125 C 43.914062 41.875 44.847656 42.28125 45.546875 42.75 C 46.242188 43.21875 46.59375 43.914062 46.59375 44.84375 C 46.59375 45.539062 46.242188 46.09375 45.546875 46.5 C 44.847656 46.90625 44.148438 47.109375 43.453125 47.109375 C 39.960938 47.109375 36.554688 46.960938 33.234375 46.671875 C 29.921875 46.390625 26.753906 46.25 23.734375 46.25 C 21.753906 46.25 19.890625 46.304688 18.140625 46.421875 C 16.398438 46.535156 14.597656 46.675781 12.734375 46.84375 C 10.878906 47.019531 8.785156 47.109375 6.453125 47.109375 Z M 50.078125 -4.359375 C 51.472656 -4.359375 53.21875 -4.851562 55.3125 -5.84375 C 57.40625 -6.832031 59.46875 -8.429688 61.5 -10.640625 C 63.539062 -12.847656 65.226562 -15.875 66.5625 -19.71875 C 67.90625 -23.5625 68.578125 -28.273438 68.578125 -33.859375 C 68.578125 -40.253906 67.878906 -45.398438 66.484375 -49.296875 C 65.085938 -53.191406 63.34375 -56.128906 61.25 -58.109375 C 59.15625 -60.085938 57.03125 -61.394531 54.875 -62.03125 C 52.726562 -62.675781 50.835938 -63 49.203125 -63 C 46.878906 -63 44.492188 -62.503906 42.046875 -61.515625 C 39.609375 -60.523438 37.570312 -59.359375 35.9375 -58.015625 C 34.3125 -56.679688 33.5 -55.550781 33.5 -54.625 C 33.5 -52.988281 33.5 -50.863281 33.5 -48.25 C 33.5 -45.632812 33.46875 -42.84375 33.40625 -39.875 C 33.351562 -36.90625 33.296875 -34.195312 33.234375 -31.75 C 33.179688 -29.3125 33.15625 -27.570312 33.15625 -26.53125 C 33.15625 -23.15625 33.910156 -19.75 35.421875 -16.3125 C 36.929688 -12.882812 38.96875 -10.035156 41.53125 -7.765625 C 44.09375 -5.492188 46.941406 -4.359375 50.078125 -4.359375 Z M 50.078125 -4.359375 "/></g></g></g><g fill="#000000" fill-opacity="1"><g transform="translate(739.959399, 344.250003)"><g><path d="M 6.984375 0.53125 C 6.046875 0.53125 5.285156 0.328125 4.703125 -0.078125 C 4.128906 -0.492188 3.84375 -1.050781 3.84375 -1.75 C 3.84375 -2.675781 4.191406 -3.367188 4.890625 -3.828125 C 5.585938 -4.296875 6.398438 -4.648438 7.328125 -4.890625 C 10.117188 -5.585938 12.125 -6.34375 13.34375 -7.15625 C 14.570312 -7.96875 15.1875 -9.363281 15.1875 -11.34375 L 15.1875 -49.203125 C 15.1875 -52.929688 14.601562 -55.722656 13.4375 -57.578125 C 12.269531 -59.441406 10.289062 -60.609375 7.5 -61.078125 C 6.914062 -61.191406 6.445312 -61.507812 6.09375 -62.03125 C 5.75 -62.550781 5.578125 -63.160156 5.578125 -63.859375 C 5.578125 -65.492188 6.21875 -66.367188 7.5 -66.484375 C 13.082031 -67.648438 17.9375 -69.25 22.0625 -71.28125 C 26.195312 -73.320312 29.367188 -74.921875 31.578125 -76.078125 C 33.210938 -76.890625 34.257812 -77.296875 34.71875 -77.296875 C 36 -77.296875 36.640625 -76.71875 36.640625 -75.5625 C 36.523438 -73.925781 36.289062 -71.679688 35.9375 -68.828125 C 35.59375 -65.984375 35.273438 -62.960938 34.984375 -59.765625 C 34.691406 -56.566406 34.546875 -53.570312 34.546875 -50.78125 L 34.546875 -11.515625 C 34.546875 -9.773438 35.1875 -8.4375 36.46875 -7.5 C 37.75 -6.570312 39.785156 -5.703125 42.578125 -4.890625 C 43.503906 -4.535156 44.316406 -4.15625 45.015625 -3.75 C 45.710938 -3.34375 46.0625 -2.675781 46.0625 -1.75 C 46.0625 -0.351562 45.070312 0.34375 43.09375 0.34375 C 40.882812 0.34375 38.757812 0.285156 36.71875 0.171875 C 34.6875 0.0546875 32.710938 -0.0546875 30.796875 -0.171875 C 28.878906 -0.285156 26.875 -0.34375 24.78125 -0.34375 C 22.800781 -0.34375 20.878906 -0.285156 19.015625 -0.171875 C 17.160156 -0.0546875 15.269531 0.0859375 13.34375 0.265625 C 11.425781 0.441406 9.304688 0.53125 6.984375 0.53125 Z M 24.4375 -87.421875 C 21.0625 -87.421875 18.207031 -88.582031 15.875 -90.90625 C 13.550781 -93.238281 12.390625 -96.035156 12.390625 -99.296875 C 12.390625 -102.898438 13.550781 -105.863281 15.875 -108.1875 C 18.207031 -110.519531 21.0625 -111.6875 24.4375 -111.6875 C 27.925781 -111.6875 30.832031 -110.519531 33.15625 -108.1875 C 35.488281 -105.863281 36.65625 -102.898438 36.65625 -99.296875 C 36.65625 -96.035156 35.488281 -93.238281 33.15625 -90.90625 C 30.832031 -88.582031 27.925781 -87.421875 24.4375 -87.421875 Z M 24.4375 -87.421875 "/></g></g></g><g fill="#000000" fill-opacity="1"><g transform="translate(788.6427, 344.250003)"><g><path d="M 37 2.4375 C 30.59375 2.4375 24.945312 0.8125 20.0625 -2.4375 C 15.175781 -5.695312 11.335938 -10.207031 8.546875 -15.96875 C 5.753906 -21.726562 4.359375 -28.269531 4.359375 -35.59375 C 4.359375 -42.695312 6.015625 -49.179688 9.328125 -55.046875 C 12.648438 -60.921875 17.101562 -65.601562 22.6875 -69.09375 C 28.269531 -72.59375 34.375 -74.34375 41 -74.34375 C 45.894531 -74.34375 50.257812 -73.320312 54.09375 -71.28125 C 57.9375 -69.25 60.988281 -66.457031 63.25 -62.90625 C 65.519531 -59.351562 66.65625 -55.367188 66.65625 -50.953125 C 66.65625 -46.765625 64.851562 -44.671875 61.25 -44.671875 L 25.828125 -44.671875 C 24.203125 -44.671875 23.007812 -44.234375 22.25 -43.359375 C 21.488281 -42.484375 21.109375 -40.882812 21.109375 -38.5625 C 21.109375 -33.675781 22.1875 -29.253906 24.34375 -25.296875 C 26.5 -21.347656 29.378906 -18.207031 32.984375 -15.875 C 36.585938 -13.550781 40.71875 -12.390625 45.375 -12.390625 C 48.75 -12.390625 51.859375 -13.054688 54.703125 -14.390625 C 57.554688 -15.734375 60.257812 -17.566406 62.8125 -19.890625 C 63.28125 -20.242188 63.6875 -20.5625 64.03125 -20.84375 C 64.382812 -21.132812 64.738281 -21.28125 65.09375 -21.28125 C 66.25 -21.28125 66.828125 -20.582031 66.828125 -19.1875 C 66.828125 -17.5625 66.128906 -15.585938 64.734375 -13.265625 C 63.335938 -10.585938 61.332031 -8.023438 58.71875 -5.578125 C 56.101562 -3.140625 52.929688 -1.195312 49.203125 0.25 C 45.484375 1.707031 41.414062 2.4375 37 2.4375 Z M 25.828125 -51.484375 L 38.21875 -51.484375 C 41.238281 -51.484375 43.503906 -51.539062 45.015625 -51.65625 C 46.535156 -51.769531 47.992188 -52 49.390625 -52.34375 C 49.960938 -52.46875 50.363281 -52.960938 50.59375 -53.828125 C 50.832031 -54.703125 50.953125 -55.722656 50.953125 -56.890625 C 50.953125 -60.023438 49.757812 -62.671875 47.375 -64.828125 C 44.988281 -66.984375 42.050781 -68.0625 38.5625 -68.0625 C 36.125 -68.0625 33.738281 -67.332031 31.40625 -65.875 C 29.082031 -64.414062 27.164062 -62.582031 25.65625 -60.375 C 24.144531 -58.164062 23.445312 -55.898438 23.5625 -53.578125 C 23.5625 -52.179688 24.316406 -51.484375 25.828125 -51.484375 Z M 25.828125 -51.484375 "/></g></g></g><g fill="#000000" fill-opacity="1"><g transform="translate(859.835522, 344.250003)"><g><path d="M 7.328125 0.53125 C 6.398438 0.53125 5.585938 0.328125 4.890625 -0.078125 C 4.191406 -0.492188 3.84375 -1.050781 3.84375 -1.75 C 3.84375 -2.675781 4.21875 -3.367188 4.96875 -3.828125 C 5.726562 -4.296875 6.691406 -4.707031 7.859375 -5.0625 C 9.597656 -5.53125 11.191406 -6.171875 12.640625 -6.984375 C 14.097656 -7.796875 14.828125 -9.363281 14.828125 -11.6875 L 14.828125 -50.78125 C 14.828125 -53.457031 14.445312 -55.753906 13.6875 -57.671875 C 12.9375 -59.585938 11.34375 -60.835938 8.90625 -61.421875 C 8.4375 -61.648438 8.023438 -61.96875 7.671875 -62.375 C 7.328125 -62.789062 7.15625 -63.460938 7.15625 -64.390625 C 7.15625 -65.898438 7.675781 -66.773438 8.71875 -67.015625 C 12.789062 -67.941406 16.832031 -69.1875 20.84375 -70.75 C 24.863281 -72.320312 28.382812 -73.984375 31.40625 -75.734375 C 31.875 -75.960938 32.335938 -76.25 32.796875 -76.59375 C 33.265625 -76.945312 33.734375 -77.125 34.203125 -77.125 C 34.785156 -77.125 35.160156 -76.921875 35.328125 -76.515625 C 35.503906 -76.109375 35.59375 -75.671875 35.59375 -75.203125 C 35.59375 -74.390625 35.445312 -72.878906 35.15625 -70.671875 C 34.863281 -68.460938 34.71875 -66.539062 34.71875 -64.90625 C 34.71875 -64.445312 34.75 -63.953125 34.8125 -63.421875 C 34.875 -62.898438 34.960938 -62.582031 35.078125 -62.46875 C 39.023438 -66.195312 43.125 -69.109375 47.375 -71.203125 C 51.625 -73.296875 56.421875 -74.34375 61.765625 -74.34375 C 67.703125 -74.34375 72.675781 -72.070312 76.6875 -67.53125 C 80.707031 -62.988281 82.71875 -57 82.71875 -49.5625 L 82.71875 -11.515625 C 82.71875 -9.191406 83.414062 -7.679688 84.8125 -6.984375 C 86.207031 -6.285156 87.773438 -5.644531 89.515625 -5.0625 C 90.453125 -4.707031 91.328125 -4.269531 92.140625 -3.75 C 92.953125 -3.226562 93.359375 -2.503906 93.359375 -1.578125 C 93.359375 -0.878906 92.976562 -0.351562 92.21875 0 C 91.46875 0.351562 90.742188 0.53125 90.046875 0.53125 C 87.710938 0.53125 85.671875 0.441406 83.921875 0.265625 C 82.179688 0.0859375 80.46875 -0.0546875 78.78125 -0.171875 C 77.09375 -0.285156 75.203125 -0.34375 73.109375 -0.34375 C 71.140625 -0.34375 69.28125 -0.285156 67.53125 -0.171875 C 65.78125 -0.0546875 64.003906 0.0859375 62.203125 0.265625 C 60.398438 0.441406 58.335938 0.53125 56.015625 0.53125 C 55.429688 0.53125 54.789062 0.351562 54.09375 0 C 53.394531 -0.351562 53.046875 -0.878906 53.046875 -1.578125 C 53.046875 -2.503906 53.394531 -3.226562 54.09375 -3.75 C 54.789062 -4.269531 55.601562 -4.707031 56.53125 -5.0625 C 58.28125 -5.644531 59.820312 -6.285156 61.15625 -6.984375 C 62.5 -7.679688 63.171875 -9.191406 63.171875 -11.515625 L 63.171875 -46.9375 C 63.171875 -51.59375 62.035156 -55.257812 59.765625 -57.9375 C 57.492188 -60.613281 54.441406 -61.953125 50.609375 -61.953125 C 47.460938 -61.953125 44.722656 -61.484375 42.390625 -60.546875 C 40.066406 -59.617188 37.800781 -58.28125 35.59375 -56.53125 C 35.132812 -56.1875 34.785156 -55.691406 34.546875 -55.046875 C 34.316406 -54.410156 34.203125 -53.742188 34.203125 -53.046875 L 34.203125 -11.515625 C 34.203125 -9.191406 34.867188 -7.648438 36.203125 -6.890625 C 37.546875 -6.140625 39.085938 -5.53125 40.828125 -5.0625 C 43.273438 -4.25 44.5 -3.144531 44.5 -1.75 C 44.5 -1.050781 44.207031 -0.492188 43.625 -0.078125 C 43.039062 0.328125 42.285156 0.53125 41.359375 0.53125 C 39.023438 0.53125 36.984375 0.441406 35.234375 0.265625 C 33.492188 0.0859375 31.8125 -0.0546875 30.1875 -0.171875 C 28.5625 -0.285156 26.703125 -0.34375 24.609375 -0.34375 C 22.628906 -0.34375 20.765625 -0.285156 19.015625 -0.171875 C 17.273438 -0.0546875 15.472656 0.0859375 13.609375 0.265625 C 11.742188 0.441406 9.648438 0.53125 7.328125 0.53125 Z M 7.328125 0.53125 "/></g></g></g><g fill="#000000" fill-opacity="1"><g transform="translate(956.329719, 344.250003)"><g><path d="M 37 2.4375 C 30.945312 2.4375 25.476562 0.867188 20.59375 -2.265625 C 15.707031 -5.410156 11.835938 -9.742188 8.984375 -15.265625 C 6.140625 -20.796875 4.71875 -26.992188 4.71875 -33.859375 C 4.71875 -41.421875 6.460938 -48.253906 9.953125 -54.359375 C 13.441406 -60.460938 18.0625 -65.316406 23.8125 -68.921875 C 29.570312 -72.535156 36 -74.34375 43.09375 -74.34375 C 51.9375 -74.34375 59.382812 -71.550781 65.4375 -65.96875 C 66.601562 -64.914062 67.1875 -63.863281 67.1875 -62.8125 C 67.1875 -62 66.71875 -60.953125 65.78125 -59.671875 C 64.851562 -58.398438 63.75 -57.296875 62.46875 -56.359375 C 61.1875 -55.429688 60.082031 -54.96875 59.15625 -54.96875 C 58.226562 -54.96875 57.351562 -55.257812 56.53125 -55.84375 C 55.71875 -56.425781 54.90625 -57.066406 54.09375 -57.765625 C 51.1875 -60.085938 48.160156 -62.0625 45.015625 -63.6875 C 41.878906 -65.320312 39.207031 -66.140625 37 -66.140625 C 32.226562 -66.140625 28.503906 -64.046875 25.828125 -59.859375 C 23.148438 -55.671875 21.8125 -49.382812 21.8125 -41 C 21.8125 -35.300781 22.800781 -30.359375 24.78125 -26.171875 C 26.757812 -21.984375 29.550781 -18.722656 33.15625 -16.390625 C 36.757812 -14.066406 40.945312 -12.90625 45.71875 -12.90625 C 49.207031 -12.90625 52.203125 -13.457031 54.703125 -14.5625 C 57.203125 -15.675781 59.847656 -17.453125 62.640625 -19.890625 C 63.109375 -20.242188 63.546875 -20.5625 63.953125 -20.84375 C 64.359375 -21.132812 64.796875 -21.28125 65.265625 -21.28125 C 66.546875 -21.28125 67.1875 -20.351562 67.1875 -18.5 C 67.1875 -18.03125 67.066406 -17.359375 66.828125 -16.484375 C 66.597656 -15.617188 66.132812 -14.660156 65.4375 -13.609375 C 64.15625 -11.285156 62.085938 -8.84375 59.234375 -6.28125 C 56.390625 -3.71875 53.101562 -1.625 49.375 0 C 45.65625 1.625 41.53125 2.4375 37 2.4375 Z M 37 2.4375 "/></g></g></g><g fill="#000000" fill-opacity="1"><g transform="translate(1027.871494, 344.250003)"><g><path d="M 37 2.4375 C 30.59375 2.4375 24.945312 0.8125 20.0625 -2.4375 C 15.175781 -5.695312 11.335938 -10.207031 8.546875 -15.96875 C 5.753906 -21.726562 4.359375 -28.269531 4.359375 -35.59375 C 4.359375 -42.695312 6.015625 -49.179688 9.328125 -55.046875 C 12.648438 -60.921875 17.101562 -65.601562 22.6875 -69.09375 C 28.269531 -72.59375 34.375 -74.34375 41 -74.34375 C 45.894531 -74.34375 50.257812 -73.320312 54.09375 -71.28125 C 57.9375 -69.25 60.988281 -66.457031 63.25 -62.90625 C 65.519531 -59.351562 66.65625 -55.367188 66.65625 -50.953125 C 66.65625 -46.765625 64.851562 -44.671875 61.25 -44.671875 L 25.828125 -44.671875 C 24.203125 -44.671875 23.007812 -44.234375 22.25 -43.359375 C 21.488281 -42.484375 21.109375 -40.882812 21.109375 -38.5625 C 21.109375 -33.675781 22.1875 -29.253906 24.34375 -25.296875 C 26.5 -21.347656 29.378906 -18.207031 32.984375 -15.875 C 36.585938 -13.550781 40.71875 -12.390625 45.375 -12.390625 C 48.75 -12.390625 51.859375 -13.054688 54.703125 -14.390625 C 57.554688 -15.734375 60.257812 -17.566406 62.8125 -19.890625 C 63.28125 -20.242188 63.6875 -20.5625 64.03125 -20.84375 C 64.382812 -21.132812 64.738281 -21.28125 65.09375 -21.28125 C 66.25 -21.28125 66.828125 -20.582031 66.828125 -19.1875 C 66.828125 -17.5625 66.128906 -15.585938 64.734375 -13.265625 C 63.335938 -10.585938 61.332031 -8.023438 58.71875 -5.578125 C 56.101562 -3.140625 52.929688 -1.195312 49.203125 0.25 C 45.484375 1.707031 41.414062 2.4375 37 2.4375 Z M 25.828125 -51.484375 L 38.21875 -51.484375 C 41.238281 -51.484375 43.503906 -51.539062 45.015625 -51.65625 C 46.535156 -51.769531 47.992188 -52 49.390625 -52.34375 C 49.960938 -52.46875 50.363281 -52.960938 50.59375 -53.828125 C 50.832031 -54.703125 50.953125 -55.722656 50.953125 -56.890625 C 50.953125 -60.023438 49.757812 -62.671875 47.375 -64.828125 C 44.988281 -66.984375 42.050781 -68.0625 38.5625 -68.0625 C 36.125 -68.0625 33.738281 -67.332031 31.40625 -65.875 C 29.082031 -64.414062 27.164062 -62.582031 25.65625 -60.375 C 24.144531 -58.164062 23.445312 -55.898438 23.5625 -53.578125 C 23.5625 -52.179688 24.316406 -51.484375 25.828125 -51.484375 Z M 25.828125 -51.484375 "/></g></g></g><g fill="#000000" fill-opacity="1"><g transform="translate(1099.064316, 344.250003)"><g/></g></g><g fill="#000000" fill-opacity="1"><g transform="translate(1138.325056, 344.250003)"><g><path d="M 36.46875 2.796875 C 31.351562 2.796875 26.4375 1.78125 21.71875 -0.25 C 17.007812 -2.289062 13.203125 -5.171875 10.296875 -8.890625 C 7.390625 -12.617188 5.9375 -17.160156 5.9375 -22.515625 C 5.9375 -30.191406 8.4375 -37.195312 13.4375 -43.53125 C 18.4375 -49.875 25.242188 -55.023438 33.859375 -58.984375 L 37.515625 -60.71875 L 35.59375 -62.640625 C 34.4375 -63.921875 32.925781 -65.519531 31.0625 -67.4375 C 29.195312 -69.363281 27.535156 -71.691406 26.078125 -74.421875 C 24.628906 -77.160156 23.90625 -80.210938 23.90625 -83.578125 C 23.90625 -87.648438 25.210938 -91.253906 27.828125 -94.390625 C 30.453125 -97.535156 33.972656 -100.039062 38.390625 -101.90625 C 42.804688 -103.769531 47.75 -104.703125 53.21875 -104.703125 C 58.457031 -104.703125 62.96875 -103.738281 66.75 -101.8125 C 70.53125 -99.894531 73.46875 -97.453125 75.5625 -94.484375 C 77.65625 -91.523438 78.703125 -88.300781 78.703125 -84.8125 C 78.703125 -79.800781 77.039062 -75.785156 73.71875 -72.765625 C 70.40625 -69.742188 65.898438 -67.1875 60.203125 -65.09375 L 56.890625 -63.6875 L 59.859375 -60.546875 C 63.460938 -56.710938 67.007812 -53.050781 70.5 -49.5625 C 73.988281 -46.070312 77.300781 -42.40625 80.4375 -38.5625 L 83.234375 -35.25 L 85.859375 -37.859375 C 88.410156 -40.304688 90.703125 -42.953125 92.734375 -45.796875 C 94.773438 -48.648438 96.460938 -51.296875 97.796875 -53.734375 C 99.140625 -56.179688 99.8125 -57.929688 99.8125 -58.984375 C 99.8125 -60.378906 99.316406 -61.570312 98.328125 -62.5625 C 97.335938 -63.550781 96.144531 -64.21875 94.75 -64.5625 C 94.050781 -64.914062 93.378906 -65.296875 92.734375 -65.703125 C 92.097656 -66.109375 91.78125 -66.660156 91.78125 -67.359375 C 91.78125 -68.523438 92.300781 -69.191406 93.34375 -69.359375 C 94.394531 -69.535156 95.445312 -69.625 96.5 -69.625 C 97.539062 -69.625 98.960938 -69.535156 100.765625 -69.359375 C 102.578125 -69.191406 104.441406 -69.019531 106.359375 -68.84375 C 108.273438 -68.664062 110.050781 -68.578125 111.6875 -68.578125 C 113.894531 -68.578125 116.273438 -68.835938 118.828125 -69.359375 C 121.390625 -69.890625 123.863281 -70.441406 126.25 -71.015625 C 128.632812 -71.597656 130.703125 -71.890625 132.453125 -71.890625 C 133.023438 -71.890625 133.570312 -71.65625 134.09375 -71.1875 C 134.625 -70.726562 134.890625 -70.265625 134.890625 -69.796875 C 134.890625 -68.984375 134.363281 -68.140625 133.3125 -67.265625 C 132.269531 -66.398438 131.050781 -65.847656 129.65625 -65.609375 C 126.28125 -65.140625 123.367188 -64.117188 120.921875 -62.546875 C 118.484375 -60.984375 116.390625 -59.390625 114.640625 -57.765625 C 113.597656 -56.828125 112.113281 -55.398438 110.1875 -53.484375 C 108.269531 -51.566406 106.148438 -49.472656 103.828125 -47.203125 C 101.503906 -44.929688 99.207031 -42.691406 96.9375 -40.484375 C 94.664062 -38.273438 92.597656 -36.296875 90.734375 -34.546875 C 88.878906 -32.804688 87.484375 -31.53125 86.546875 -30.71875 L 89.6875 -26.703125 C 93.414062 -21.929688 96.992188 -17.972656 100.421875 -14.828125 C 103.859375 -11.691406 107.492188 -10.125 111.328125 -10.125 C 113.421875 -10.125 115.660156 -10.351562 118.046875 -10.8125 C 120.429688 -11.28125 122.726562 -11.976562 124.9375 -12.90625 C 125.519531 -13.144531 126.128906 -13.378906 126.765625 -13.609375 C 127.410156 -13.835938 128.023438 -13.953125 128.609375 -13.953125 C 129.535156 -13.953125 130.203125 -13.804688 130.609375 -13.515625 C 131.015625 -13.234375 131.21875 -12.566406 131.21875 -11.515625 C 131.21875 -10.234375 129.992188 -8.429688 127.546875 -6.109375 C 125.109375 -3.785156 121.882812 -1.75 117.875 0 C 113.863281 1.75 109.472656 2.625 104.703125 2.625 C 100.273438 2.625 96.460938 1.984375 93.265625 0.703125 C 90.066406 -0.578125 87.160156 -2.5 84.546875 -5.0625 C 81.929688 -7.625 79.109375 -10.820312 76.078125 -14.65625 L 73.296875 -18.328125 L 72.421875 -17.28125 C 68.929688 -13.320312 65.320312 -9.828125 61.59375 -6.796875 C 57.875 -3.773438 53.976562 -1.421875 49.90625 0.265625 C 45.832031 1.953125 41.351562 2.796875 36.46875 2.796875 Z M 46.59375 -12.046875 C 50.425781 -12.046875 54.144531 -12.710938 57.75 -14.046875 C 61.363281 -15.378906 64.800781 -17.789062 68.0625 -21.28125 L 69.453125 -22.6875 L 67.015625 -26 C 63.515625 -30.539062 59.757812 -35.078125 55.75 -39.609375 C 51.738281 -44.148438 47.460938 -48.863281 42.921875 -53.75 L 40.828125 -56.1875 L 37.515625 -54.4375 C 34.253906 -53.039062 31.78125 -51.179688 30.09375 -48.859375 C 28.414062 -46.535156 27.253906 -44.035156 26.609375 -41.359375 C 25.972656 -38.679688 25.65625 -35.945312 25.65625 -33.15625 C 25.65625 -26.875 27.570312 -21.785156 31.40625 -17.890625 C 35.25 -13.992188 40.3125 -12.046875 46.59375 -12.046875 Z M 53.75 -67.53125 L 55.671875 -68.921875 C 57.878906 -70.316406 59.503906 -72.523438 60.546875 -75.546875 C 61.597656 -78.578125 62.125 -81.601562 62.125 -84.625 C 62.238281 -88.351562 61.507812 -91.671875 59.9375 -94.578125 C 58.363281 -97.484375 55.832031 -98.9375 52.34375 -98.9375 C 49.789062 -98.9375 47.46875 -98.003906 45.375 -96.140625 C 43.28125 -94.285156 42.234375 -91.90625 42.234375 -89 C 42.234375 -86.207031 42.550781 -83.765625 43.1875 -81.671875 C 43.832031 -79.578125 44.789062 -77.710938 46.0625 -76.078125 C 47.34375 -74.453125 48.800781 -72.707031 50.4375 -70.84375 Z M 53.75 -67.53125 "/></g></g></g><g fill="#000000" fill-opacity="1"><g transform="translate(732.721793, 587.99999)"><g><path d="M 91.609375 0.703125 C 89.054688 0.703125 85.972656 0.671875 82.359375 0.609375 C 78.753906 0.554688 74.800781 0.5 70.5 0.4375 C 66.195312 0.375 61.71875 0.3125 57.0625 0.25 C 52.40625 0.195312 47.867188 0.171875 43.453125 0.171875 C 39.492188 0.171875 35.507812 0.195312 31.5 0.25 C 27.488281 0.3125 23.5625 0.40625 19.71875 0.53125 L 6.28125 0.703125 C 5.351562 0.703125 4.742188 0.0625 4.453125 -1.21875 C 4.160156 -2.5 4.070312 -3.253906 4.1875 -3.484375 C 4.882812 -4.765625 5.785156 -6.335938 6.890625 -8.203125 C 7.992188 -10.066406 9.210938 -12.046875 10.546875 -14.140625 C 11.890625 -16.234375 13.144531 -18.148438 14.3125 -19.890625 C 19.082031 -27.109375 23.675781 -34.085938 28.09375 -40.828125 C 32.507812 -47.578125 36.898438 -54.207031 41.265625 -60.71875 C 45.628906 -67.238281 50.019531 -73.867188 54.4375 -80.609375 C 58.863281 -87.359375 63.34375 -94.398438 67.875 -101.734375 C 68.113281 -102.078125 68.347656 -102.453125 68.578125 -102.859375 C 68.804688 -103.273438 68.921875 -103.65625 68.921875 -104 C 68.921875 -104.46875 68.71875 -104.847656 68.3125 -105.140625 C 67.90625 -105.429688 67.125 -105.632812 65.96875 -105.75 C 63.519531 -105.75 60.753906 -105.773438 57.671875 -105.828125 C 54.585938 -105.890625 51.476562 -105.921875 48.34375 -105.921875 C 45.78125 -105.921875 43.304688 -105.921875 40.921875 -105.921875 C 38.535156 -105.921875 36.296875 -105.863281 34.203125 -105.75 C 30.128906 -105.632812 26.226562 -104.351562 22.5 -101.90625 C 18.78125 -99.46875 15.816406 -96.035156 13.609375 -91.609375 C 12.910156 -90.328125 12.066406 -89.015625 11.078125 -87.671875 C 10.085938 -86.335938 8.78125 -85.671875 7.15625 -85.671875 C 6.34375 -85.671875 5.757812 -85.929688 5.40625 -86.453125 C 5.0625 -86.984375 4.890625 -87.597656 4.890625 -88.296875 C 4.890625 -88.992188 5.035156 -89.78125 5.328125 -90.65625 C 5.617188 -91.53125 5.878906 -92.316406 6.109375 -93.015625 C 7.148438 -95.335938 7.988281 -97.601562 8.625 -99.8125 C 9.269531 -102.019531 9.796875 -104.375 10.203125 -106.875 C 10.609375 -109.382812 10.929688 -112.09375 11.171875 -115 C 11.398438 -116.625 11.773438 -117.726562 12.296875 -118.3125 C 12.828125 -118.894531 13.554688 -119.1875 14.484375 -119.1875 C 15.410156 -119.1875 16.597656 -118.660156 18.046875 -117.609375 C 19.503906 -116.566406 20.9375 -115.753906 22.34375 -115.171875 C 24.195312 -114.472656 26.375 -113.945312 28.875 -113.59375 C 31.375 -113.25 34.195312 -113.078125 37.34375 -113.078125 C 40.476562 -113.078125 43.847656 -113.078125 47.453125 -113.078125 C 51.066406 -113.078125 54.734375 -113.078125 58.453125 -113.078125 C 61.015625 -113.078125 64.039062 -113.101562 67.53125 -113.15625 C 71.019531 -113.21875 74.65625 -113.273438 78.4375 -113.328125 C 82.21875 -113.390625 85.820312 -113.476562 89.25 -113.59375 C 92.6875 -113.71875 95.6875 -113.78125 98.25 -113.78125 C 98.945312 -113.78125 99.613281 -113.253906 100.25 -112.203125 C 100.882812 -111.160156 101.085938 -110.40625 100.859375 -109.9375 L 89.34375 -92.65625 C 84.6875 -85.90625 80.234375 -79.273438 75.984375 -72.765625 C 71.742188 -66.253906 67.613281 -59.796875 63.59375 -53.390625 C 59.582031 -46.992188 55.539062 -40.566406 51.46875 -34.109375 C 47.40625 -27.660156 43.21875 -21.117188 38.90625 -14.484375 C 37.976562 -12.972656 37.515625 -11.691406 37.515625 -10.640625 C 37.515625 -9.941406 37.804688 -9.390625 38.390625 -8.984375 C 38.972656 -8.578125 39.785156 -8.316406 40.828125 -8.203125 C 42.691406 -8.085938 45.078125 -7.96875 47.984375 -7.84375 C 50.890625 -7.726562 53.625 -7.671875 56.1875 -7.671875 C 60.726562 -7.671875 64.914062 -7.816406 68.75 -8.109375 C 72.59375 -8.398438 76.203125 -8.953125 79.578125 -9.765625 C 86.671875 -11.628906 92.195312 -17.503906 96.15625 -27.390625 C 96.5 -28.210938 96.988281 -28.882812 97.625 -29.40625 C 98.269531 -29.925781 98.941406 -30.1875 99.640625 -30.1875 C 101.148438 -30.1875 101.90625 -29.375 101.90625 -27.75 C 101.90625 -26.695312 101.671875 -25.09375 101.203125 -22.9375 C 100.742188 -20.789062 100.191406 -18.4375 99.546875 -15.875 C 98.910156 -13.320312 98.242188 -10.851562 97.546875 -8.46875 C 96.847656 -6.082031 96.265625 -4.070312 95.796875 -2.4375 C 95.453125 -1.507812 94.929688 -0.753906 94.234375 -0.171875 C 93.535156 0.410156 92.660156 0.703125 91.609375 0.703125 Z M 91.609375 0.703125 "/></g></g></g><g fill="#000000" fill-opacity="1"><g transform="translate(837.242601, 587.99999)"><g><path d="M 37 2.4375 C 30.59375 2.4375 24.945312 0.8125 20.0625 -2.4375 C 15.175781 -5.695312 11.335938 -10.207031 8.546875 -15.96875 C 5.753906 -21.726562 4.359375 -28.269531 4.359375 -35.59375 C 4.359375 -42.695312 6.015625 -49.179688 9.328125 -55.046875 C 12.648438 -60.921875 17.101562 -65.601562 22.6875 -69.09375 C 28.269531 -72.59375 34.375 -74.34375 41 -74.34375 C 45.894531 -74.34375 50.257812 -73.320312 54.09375 -71.28125 C 57.9375 -69.25 60.988281 -66.457031 63.25 -62.90625 C 65.519531 -59.351562 66.65625 -55.367188 66.65625 -50.953125 C 66.65625 -46.765625 64.851562 -44.671875 61.25 -44.671875 L 25.828125 -44.671875 C 24.203125 -44.671875 23.007812 -44.234375 22.25 -43.359375 C 21.488281 -42.484375 21.109375 -40.882812 21.109375 -38.5625 C 21.109375 -33.675781 22.1875 -29.253906 24.34375 -25.296875 C 26.5 -21.347656 29.378906 -18.207031 32.984375 -15.875 C 36.585938 -13.550781 40.71875 -12.390625 45.375 -12.390625 C 48.75 -12.390625 51.859375 -13.054688 54.703125 -14.390625 C 57.554688 -15.734375 60.257812 -17.566406 62.8125 -19.890625 C 63.28125 -20.242188 63.6875 -20.5625 64.03125 -20.84375 C 64.382812 -21.132812 64.738281 -21.28125 65.09375 -21.28125 C 66.25 -21.28125 66.828125 -20.582031 66.828125 -19.1875 C 66.828125 -17.5625 66.128906 -15.585938 64.734375 -13.265625 C 63.335938 -10.585938 61.332031 -8.023438 58.71875 -5.578125 C 56.101562 -3.140625 52.929688 -1.195312 49.203125 0.25 C 45.484375 1.707031 41.414062 2.4375 37 2.4375 Z M 25.828125 -51.484375 L 38.21875 -51.484375 C 41.238281 -51.484375 43.503906 -51.539062 45.015625 -51.65625 C 46.535156 -51.769531 47.992188 -52 49.390625 -52.34375 C 49.960938 -52.46875 50.363281 -52.960938 50.59375 -53.828125 C 50.832031 -54.703125 50.953125 -55.722656 50.953125 -56.890625 C 50.953125 -60.023438 49.757812 -62.671875 47.375 -64.828125 C 44.988281 -66.984375 42.050781 -68.0625 38.5625 -68.0625 C 36.125 -68.0625 33.738281 -67.332031 31.40625 -65.875 C 29.082031 -64.414062 27.164062 -62.582031 25.65625 -60.375 C 24.144531 -58.164062 23.445312 -55.898438 23.5625 -53.578125 C 23.5625 -52.179688 24.316406 -51.484375 25.828125 -51.484375 Z M 25.828125 -51.484375 "/></g></g></g><g fill="#000000" fill-opacity="1"><g transform="translate(908.435412, 587.99999)"><g><path d="M 21.8125 2.4375 C 19.019531 2.4375 16.375 1.679688 13.875 0.171875 C 11.375 -1.335938 9.363281 -3.3125 7.84375 -5.75 C 6.332031 -8.195312 5.578125 -10.703125 5.578125 -13.265625 C 5.578125 -17.210938 6.738281 -20.4375 9.0625 -22.9375 C 11.394531 -25.445312 14.890625 -27.691406 19.546875 -29.671875 L 35.765625 -36.640625 C 38.097656 -37.578125 39.523438 -38.453125 40.046875 -39.265625 C 40.566406 -40.078125 40.828125 -41.585938 40.828125 -43.796875 L 41.1875 -54.09375 C 41.300781 -57.351562 40.628906 -59.96875 39.171875 -61.9375 C 37.722656 -63.914062 35.539062 -64.90625 32.625 -64.90625 C 31.113281 -64.90625 29.546875 -64.613281 27.921875 -64.03125 C 26.296875 -63.457031 25.015625 -62.703125 24.078125 -61.765625 C 23.617188 -61.304688 23.300781 -60.695312 23.125 -59.9375 C 22.945312 -59.1875 22.859375 -58.460938 22.859375 -57.765625 C 22.859375 -57.179688 22.882812 -56.453125 22.9375 -55.578125 C 23 -54.703125 23.03125 -53.914062 23.03125 -53.21875 C 23.03125 -52.519531 22.15625 -51.644531 20.40625 -50.59375 C 18.664062 -49.550781 16.691406 -48.625 14.484375 -47.8125 C 12.273438 -47 10.414062 -46.59375 8.90625 -46.59375 C 8.082031 -46.59375 7.4375 -46.882812 6.96875 -47.46875 C 6.507812 -48.050781 6.28125 -48.75 6.28125 -49.5625 C 6.28125 -51.414062 6.890625 -53.300781 8.109375 -55.21875 C 9.335938 -57.144531 11.285156 -59.210938 13.953125 -61.421875 C 16.867188 -63.867188 20.070312 -66.050781 23.5625 -67.96875 C 27.050781 -69.882812 30.453125 -71.425781 33.765625 -72.59375 C 37.078125 -73.757812 39.957031 -74.34375 42.40625 -74.34375 C 47.988281 -74.34375 52.46875 -72.507812 55.84375 -68.84375 C 59.21875 -65.175781 60.84375 -60.375 60.71875 -54.4375 L 59.859375 -17.09375 C 59.734375 -14.539062 60.222656 -12.390625 61.328125 -10.640625 C 62.441406 -8.898438 63.8125 -8.03125 65.4375 -8.03125 C 67.882812 -8.03125 69.863281 -8.726562 71.375 -10.125 C 71.832031 -10.582031 72.238281 -10.8125 72.59375 -10.8125 C 73.175781 -10.8125 73.671875 -10.609375 74.078125 -10.203125 C 74.484375 -9.796875 74.6875 -9.300781 74.6875 -8.71875 C 74.6875 -7.445312 73.753906 -5.878906 71.890625 -4.015625 C 69.796875 -1.921875 67.554688 -0.320312 65.171875 0.78125 C 62.785156 1.882812 60.429688 2.4375 58.109375 2.4375 C 51.941406 2.4375 46.9375 -0.757812 43.09375 -7.15625 L 42.578125 -7.15625 C 38.734375 -3.78125 35.210938 -1.335938 32.015625 0.171875 C 28.816406 1.679688 25.414062 2.4375 21.8125 2.4375 Z M 31.40625 -8.03125 C 33.039062 -8.03125 34.4375 -8.289062 35.59375 -8.8125 C 36.757812 -9.332031 37.75 -10.0625 38.5625 -11 C 39.03125 -11.570312 39.410156 -12.265625 39.703125 -13.078125 C 39.992188 -13.898438 40.195312 -15.066406 40.3125 -16.578125 L 40.65625 -27.75 C 40.769531 -28.90625 40.648438 -29.6875 40.296875 -30.09375 C 39.953125 -30.507812 39.550781 -30.71875 39.09375 -30.71875 C 38.851562 -30.71875 38.5 -30.6875 38.03125 -30.625 C 37.570312 -30.5625 37.050781 -30.359375 36.46875 -30.015625 C 32.164062 -28.265625 29.082031 -26.398438 27.21875 -24.421875 C 25.363281 -22.453125 24.4375 -19.894531 24.4375 -16.75 C 24.4375 -13.613281 25.191406 -11.375 26.703125 -10.03125 C 28.210938 -8.695312 29.78125 -8.03125 31.40625 -8.03125 Z M 31.40625 -8.03125 "/></g></g></g><g fill="#000000" fill-opacity="1"><g transform="translate(982.594599, 587.99999)"><g><path d="M 6.453125 0.53125 C 5.523438 0.53125 4.710938 0.351562 4.015625 0 C 3.316406 -0.351562 2.96875 -0.878906 2.96875 -1.578125 C 2.96875 -2.503906 3.34375 -3.195312 4.09375 -3.65625 C 4.851562 -4.125 5.816406 -4.59375 6.984375 -5.0625 C 8.722656 -5.644531 10.316406 -6.285156 11.765625 -6.984375 C 13.222656 -7.679688 13.953125 -9.25 13.953125 -11.6875 L 13.953125 -96.84375 C 13.953125 -100.101562 13.457031 -102.863281 12.46875 -105.125 C 11.488281 -107.394531 9.539062 -108.820312 6.625 -109.40625 C 5.46875 -109.644531 4.890625 -110.519531 4.890625 -112.03125 C 4.890625 -113.425781 5.410156 -114.238281 6.453125 -114.46875 C 9.359375 -115.050781 12.351562 -115.863281 15.4375 -116.90625 C 18.519531 -117.957031 21.425781 -119.003906 24.15625 -120.046875 C 26.894531 -121.097656 29.195312 -121.914062 31.0625 -122.5 C 31.875 -122.84375 32.457031 -123.015625 32.8125 -123.015625 C 33.382812 -123.015625 33.785156 -122.8125 34.015625 -122.40625 C 34.253906 -122 34.375 -121.625 34.375 -121.28125 C 34.375 -120.34375 34.195312 -118.566406 33.84375 -115.953125 C 33.5 -113.335938 33.328125 -109.816406 33.328125 -105.390625 L 33.328125 -11.859375 C 33.328125 -9.421875 34.023438 -7.851562 35.421875 -7.15625 C 36.816406 -6.457031 38.390625 -5.816406 40.140625 -5.234375 C 41.296875 -4.765625 42.253906 -4.296875 43.015625 -3.828125 C 43.773438 -3.367188 44.15625 -2.675781 44.15625 -1.75 C 44.15625 -1.050781 43.800781 -0.523438 43.09375 -0.171875 C 42.394531 0.171875 41.582031 0.34375 40.65625 0.34375 C 38.445312 0.34375 36.410156 0.253906 34.546875 0.078125 C 32.691406 -0.0859375 30.859375 -0.195312 29.046875 -0.25 C 27.242188 -0.3125 25.296875 -0.34375 23.203125 -0.34375 C 21.222656 -0.34375 19.390625 -0.285156 17.703125 -0.171875 C 16.023438 -0.0546875 14.3125 0.0859375 12.5625 0.265625 C 10.820312 0.441406 8.785156 0.53125 6.453125 0.53125 Z M 6.453125 0.53125 "/></g></g></g><g clip-path="url(#32804cac09)"><g clip-path="url(#6690cc1753)"><path fill="#5ca4a9" d="M 81 180.007812 L 530.984375 180.007812 L 530.984375 629.992188 L 81 629.992188 Z M 81 180.007812 " fill-opacity="1" fill-rule="nonzero"/></g></g><g clip-path="url(#40c44c6af8)"><g clip-path="url(#cffd0f6672)"><path stroke-linecap="butt" transform="matrix(0.75, 0, 0, 0.75, 81.000002, 180.007746)" fill="none" stroke-linejoin="miter" d="M 299.984387 0.0000884746 L 395.437517 204.531349 L 599.968777 299.984479 L 395.437517 395.437608 L 299.984387 599.968869 L 204.531257 395.437608 L -0.00000286296 299.984479 L 204.531257 204.531349 Z M 299.984387 0.0000884746 " stroke="#000000" stroke-width="40" stroke-opacity="1" stroke-miterlimit="4"/></g></g></svg>